M48
METRIC,LZ,000.000
;FILE_FORMAT=3:3
;TYPE=PLATED
;Layer: PTH_Through
;EasyEDA v6.5.48, 2025-03-27 00:42:13
;263b490ed21644e2b7ecd1de9e176e96,d43077cf4c39487bac85c1b17e246763,10
;Gerber Generator version 0.2
;Holesize 1 = 0.850 mm
T01C0.850
;Holesize 2 = 0.915 mm
T02C0.915
;Holesize 3 = 0.951 mm
T03C0.951
;Holesize 4 = 1.016 mm
T04C1.016
;Holesize 5 = 1.067 mm
T05C1.067
;Holesize 6 = 1.501 mm
T06C1.501
%
G05
G90
T01
X055290Y081264
X057290Y079264
X057290Y081264
X053290Y081264
X055290Y079264
X053290Y079264
T02
X059563Y027559
X059563Y012446
X059563Y025146
X059563Y022606
X059563Y020066
X059563Y017526
X059563Y014986
X047117Y012319
X042037Y025019
X042037Y022479
X042037Y019939
X042037Y017399
X042037Y014859
X042037Y012319
X044577Y025019
X044577Y022479
X044577Y019939
X044577Y017399
X044577Y014859
X044577Y012319
X047117Y025019
X047117Y022479
X047117Y019939
X047117Y017399
X047117Y014859
X049657Y025146
X057277Y014986
X057277Y017526
X057277Y020066
X057277Y022606
X057277Y025146
X054737Y012446
X054737Y014986
X054737Y017526
X054737Y020066
X054737Y022606
X054737Y025146
X052197Y012446
X052197Y014986
X052197Y017526
X052197Y020066
X052197Y022606
X052197Y025146
X057277Y012446
X049657Y012446
X049657Y014986
X049657Y017526
X049657Y020066
X049657Y022606
X049657Y027559
X057277Y027559
X052197Y027559
X054737Y027559
X044577Y027432
X042037Y027432
X047117Y027432
X041656Y058674
X041656Y061214
X041656Y063754
X041529Y066294
X041529Y068834
X041529Y071374
X041529Y073914
X041529Y076454
X041529Y078994
X041529Y094234
X041529Y091694
X041529Y089154
X041529Y086614
X041529Y084074
X041529Y081534
X041656Y043434
X041656Y045974
X041656Y048514
X041656Y051054
X041656Y053594
X041656Y056134
X041656Y040894
X041656Y038354
X041656Y035814
X062230Y038354
X062230Y040894
X062230Y043434
X062230Y058674
X062230Y056134
X062230Y053594
X062230Y051054
X062230Y048514
X062230Y045974
X062103Y084074
X062103Y086614
X062103Y089154
X062103Y091694
X062103Y094234
X062103Y081534
X062103Y078994
X062103Y076454
X062103Y073914
X062103Y071374
X062103Y068834
X062230Y066294
X062230Y063754
X062230Y061214
X062230Y035941
X049784Y010033
X057404Y010033
X052324Y010033
X054864Y010033
X044704Y009906
X042164Y009906
X047244Y009906
X059690Y010033
X061976Y010160
X061849Y015113
X061849Y017653
X061849Y020193
X061849Y022733
X061849Y025273
X061849Y012573
X061849Y027686
X061976Y005207
X061976Y007747
X061976Y002794
X059690Y002667
X047244Y002540
X042164Y002540
X044704Y002540
X054864Y002667
X052324Y002667
X057404Y002667
X049784Y002667
X049784Y007620
X049784Y005080
X057404Y005080
X052324Y007620
X052324Y005080
X054864Y007620
X054864Y005080
X057404Y007620
X047244Y007493
X044704Y004953
X044704Y007493
X042164Y004953
X042164Y007493
X047244Y004953
X059690Y007620
X059690Y005080
X059690Y000127
X047244Y000000
X042164Y000000
X044704Y000000
X054864Y000127
X052324Y000127
X057404Y000127
X049784Y000127
X049784Y-002286
X057404Y-002286
X052324Y-002286
X054864Y-002286
X044704Y-002413
X042164Y-002413
X047244Y-002413
X059690Y-002286
X061976Y-002159
X061976Y000254
X062103Y-007239
X049911Y-007366
X057531Y-007366
X052451Y-007366
X054991Y-007366
X044831Y-007493
X042291Y-007493
X047371Y-007493
X059817Y-007366
X049911Y-004826
X057531Y-004826
X052451Y-004826
X054991Y-004826
X044831Y-004953
X042291Y-004953
X047371Y-004953
X059817Y-004826
X062103Y-004699
T03
X044450Y035814
X044450Y040894
X044450Y043434
X044450Y038354
X044450Y045974
X059690Y038354
X059690Y035814
X044450Y048514
X046990Y048514
X049530Y048514
X052070Y048514
X054610Y048514
X057150Y048514
X059690Y048514
X059690Y045974
X059690Y043434
X059690Y040894
X044450Y051054
X044450Y056134
X044450Y058674
X044450Y061214
X044450Y063754
X044450Y066294
X044450Y068834
X044450Y071374
X044450Y073914
X044450Y076454
X044450Y078994
X044450Y081534
X044450Y084074
X044450Y086614
X044450Y089154
X044450Y091694
X044450Y094234
X059690Y094234
X059690Y091694
X059690Y089154
X059690Y086614
X059690Y084074
X059690Y081534
X059690Y078994
X059690Y076454
X059690Y073914
X059690Y071374
X059690Y068834
X059690Y066294
X059690Y063754
X059690Y061214
X059690Y058674
X059690Y056134
X059690Y051054
X057150Y091694
X059690Y053594
X044450Y053594
X050800Y093624
X053340Y093624
X047450Y087884
X047450Y085344
X047450Y082804
X047450Y080264
X047450Y077724
X085339Y028067
T04
X021209Y083312
X028829Y083312
X021209Y078684
X028829Y078684
X021209Y074055
X028829Y074055
X073660Y083185
X081280Y083185
X021209Y069427
X028829Y069427
X073660Y078585
X081280Y078585
X073660Y073985
X081280Y073985
X021209Y064798
X028829Y064798
X073660Y069384
X081280Y069384
X021209Y060170
X028829Y060170
X073660Y064784
X081280Y064784
X073660Y060184
X081280Y060184
X021209Y055541
X028829Y055541
X073660Y055584
X081280Y055584
X073660Y050983
X081280Y050983
X021209Y050913
X028829Y050913
X073660Y046383
X081280Y046383
X073660Y041783
X081280Y041783
X021209Y046284
X028829Y046284
X028067Y005207
X035687Y005207
X028067Y013970
X035687Y013970
X021209Y041656
X028829Y041656
X028194Y021971
X035814Y021971
X028194Y030353
X035814Y030353
X027940Y-003556
X035560Y-003556
X085233Y083185
X085229Y078486
X085229Y073787
X085217Y059944
X085217Y064643
X085229Y069342
X085217Y046101
X085217Y050800
X085217Y055499
X085344Y032385
X085217Y041783
X085344Y023495
X016510Y059817
X016510Y074041
X016510Y069342
X016510Y064643
X016510Y083185
X016510Y078486
X016510Y050673
X016510Y055372
X016510Y041529
X016510Y046228
X081407Y032131
X081407Y027813
X081407Y023368
X081407Y019177
X085344Y018923
T05
X067945Y-005461
X070485Y-005461
X073025Y-005461
X075565Y-005461
X078105Y-005461
X080645Y-005461
X083185Y-005461
T06
X069850Y019177
X077089Y019177
X069850Y023495
X069469Y083312
X069469Y078698
X069469Y074083
X069469Y069469
X069469Y064855
X069469Y060240
X069469Y055626
X069469Y051012
X069469Y046397
X069469Y041783
X033528Y083566
X033528Y078923
X033528Y074281
X033528Y069638
X033528Y064996
X033528Y060353
X033528Y055711
X033528Y051068
X033528Y046426
X033528Y041783
X077216Y031877
X077216Y027686
X077216Y023495
X069977Y027686
X069977Y031877
M30
