G04 Layer: TopLayer*
G04 EasyEDA v6.5.48, 2025-03-27 00:42:13*
G04 263b490ed21644e2b7ecd1de9e176e96,d43077cf4c39487bac85c1b17e246763,10*
G04 Gerber Generator version 0.2*
G04 Scale: 100 percent, Rotated: No, Reflected: No *
G04 Dimensions in millimeters *
G04 leading zeros omitted , absolute positions ,4 integer and 5 decimal *
%FSLAX45Y45*%
%MOMM*%

%ADD10C,0.2540*%
%ADD11C,3.0000*%
%ADD12C,1.8796*%
%ADD13C,1.5240*%
%ADD14C,1.4000*%
%ADD15C,2.0320*%
%ADD16C,1.7780*%
%ADD17C,1.6000*%
%ADD18C,2.0230*%
%ADD19C,2.0000*%
%ADD20C,2.0340*%
%ADD21C,0.0121*%

%LPD*%
G36*
X1394460Y-1358392D02*
G01*
X1390548Y-1357630D01*
X1387297Y-1355394D01*
X1385062Y-1352143D01*
X1384300Y-1348232D01*
X1384300Y-1125016D01*
X1385163Y-1120902D01*
X1387602Y-1117498D01*
X1391208Y-1115364D01*
X1395374Y-1114856D01*
X1399387Y-1116126D01*
X1402588Y-1118870D01*
X1404366Y-1122680D01*
X1408734Y-1141222D01*
X1415338Y-1160983D01*
X1423720Y-1180033D01*
X1433880Y-1198219D01*
X1445666Y-1215390D01*
X1458976Y-1231392D01*
X1473708Y-1246124D01*
X1489710Y-1259433D01*
X1506880Y-1271219D01*
X1525066Y-1281379D01*
X1544116Y-1289761D01*
X1563878Y-1296365D01*
X1584147Y-1301140D01*
X1604772Y-1304036D01*
X1625600Y-1305001D01*
X1646428Y-1304036D01*
X1667052Y-1301140D01*
X1687322Y-1296365D01*
X1707083Y-1289761D01*
X1726133Y-1281379D01*
X1744319Y-1271219D01*
X1761489Y-1259433D01*
X1777492Y-1246124D01*
X1792224Y-1231392D01*
X1805533Y-1215390D01*
X1817319Y-1198219D01*
X1827479Y-1180033D01*
X1835861Y-1160983D01*
X1842465Y-1141222D01*
X1847240Y-1120952D01*
X1850136Y-1100328D01*
X1851101Y-1079500D01*
X1850136Y-1058672D01*
X1847240Y-1038047D01*
X1842465Y-1017778D01*
X1835861Y-998016D01*
X1827479Y-978966D01*
X1817319Y-960780D01*
X1805533Y-943610D01*
X1792224Y-927608D01*
X1777492Y-912876D01*
X1761489Y-899566D01*
X1744319Y-887780D01*
X1726133Y-877620D01*
X1707083Y-869238D01*
X1687322Y-862634D01*
X1667052Y-857859D01*
X1646428Y-854964D01*
X1625600Y-853998D01*
X1604772Y-854964D01*
X1584147Y-857859D01*
X1563878Y-862634D01*
X1544116Y-869238D01*
X1525066Y-877620D01*
X1506880Y-887780D01*
X1489710Y-899566D01*
X1473708Y-912876D01*
X1458976Y-927608D01*
X1445666Y-943610D01*
X1433880Y-960780D01*
X1423720Y-978966D01*
X1415338Y-998016D01*
X1408734Y-1017778D01*
X1404366Y-1036319D01*
X1402588Y-1040130D01*
X1399387Y-1042873D01*
X1395374Y-1044143D01*
X1391208Y-1043635D01*
X1387602Y-1041501D01*
X1385163Y-1038098D01*
X1384300Y-1033983D01*
X1384300Y9174327D01*
X1385214Y9178493D01*
X1387754Y9181947D01*
X1391462Y9184030D01*
X1395730Y9184436D01*
X1399743Y9183014D01*
X1402842Y9180068D01*
X1407566Y9173210D01*
X1420876Y9157208D01*
X1435608Y9142476D01*
X1451610Y9129166D01*
X1468780Y9117380D01*
X1486966Y9107220D01*
X1506016Y9098838D01*
X1525778Y9092234D01*
X1546047Y9087459D01*
X1566672Y9084564D01*
X1587500Y9083598D01*
X1608328Y9084564D01*
X1628952Y9087459D01*
X1649222Y9092234D01*
X1668983Y9098838D01*
X1688033Y9107220D01*
X1706219Y9117380D01*
X1723389Y9129166D01*
X1739392Y9142476D01*
X1754124Y9157208D01*
X1767433Y9173210D01*
X1779219Y9190380D01*
X1789379Y9208566D01*
X1797761Y9227616D01*
X1804365Y9247378D01*
X1809140Y9267647D01*
X1812036Y9288272D01*
X1813001Y9309100D01*
X1812036Y9329928D01*
X1809140Y9350552D01*
X1804365Y9370822D01*
X1797761Y9390583D01*
X1789379Y9409633D01*
X1779219Y9427819D01*
X1767433Y9444990D01*
X1754124Y9460992D01*
X1739392Y9475724D01*
X1723389Y9489033D01*
X1714246Y9495332D01*
X1711299Y9498431D01*
X1709877Y9502444D01*
X1710283Y9506661D01*
X1712366Y9510420D01*
X1715770Y9512960D01*
X1719935Y9513874D01*
X3985971Y9525254D01*
X3990086Y9524441D01*
X3993540Y9521952D01*
X3995674Y9518294D01*
X3996131Y9514128D01*
X3994861Y9510115D01*
X3991457Y9504121D01*
X3983990Y9487052D01*
X3978351Y9469374D01*
X3974541Y9451187D01*
X3972661Y9432696D01*
X3972661Y9414103D01*
X3974541Y9395612D01*
X3978351Y9377426D01*
X3983990Y9359747D01*
X3991457Y9342678D01*
X4000601Y9326524D01*
X4011371Y9311386D01*
X4018635Y9303105D01*
X4020515Y9300006D01*
X4021175Y9296400D01*
X4020515Y9292793D01*
X4018635Y9289694D01*
X4011371Y9281414D01*
X4000601Y9266275D01*
X3991457Y9250121D01*
X3983990Y9233052D01*
X3978351Y9215374D01*
X3974541Y9197187D01*
X3972661Y9178696D01*
X3972661Y9160103D01*
X3974541Y9141612D01*
X3978351Y9123426D01*
X3983990Y9105747D01*
X3991457Y9088678D01*
X4000601Y9072524D01*
X4011371Y9057386D01*
X4018635Y9049105D01*
X4020515Y9046006D01*
X4021175Y9042400D01*
X4020515Y9038793D01*
X4018635Y9035694D01*
X4011371Y9027414D01*
X4000601Y9012275D01*
X3991457Y8996121D01*
X3983990Y8979052D01*
X3978351Y8961374D01*
X3974541Y8943187D01*
X3972661Y8924696D01*
X3972661Y8906103D01*
X3974541Y8887612D01*
X3978351Y8869426D01*
X3983990Y8851747D01*
X3991457Y8834678D01*
X4000601Y8818524D01*
X4011371Y8803386D01*
X4018635Y8795105D01*
X4020515Y8792006D01*
X4021175Y8788400D01*
X4020515Y8784793D01*
X4018635Y8781694D01*
X4011371Y8773414D01*
X4000601Y8758275D01*
X3991457Y8742121D01*
X3983990Y8725052D01*
X3978351Y8707374D01*
X3974541Y8689187D01*
X3972661Y8670696D01*
X3972661Y8652103D01*
X3974541Y8633612D01*
X3978351Y8615426D01*
X3983990Y8597747D01*
X3991457Y8580678D01*
X4000601Y8564524D01*
X4011371Y8549386D01*
X4018635Y8541105D01*
X4020515Y8538006D01*
X4021175Y8534400D01*
X4020515Y8530793D01*
X4018635Y8527694D01*
X4011371Y8519414D01*
X4000601Y8504275D01*
X3991457Y8488121D01*
X3983990Y8471052D01*
X3978351Y8453374D01*
X3974541Y8435187D01*
X3972661Y8416696D01*
X3972661Y8398103D01*
X3974541Y8379612D01*
X3978351Y8361425D01*
X3983990Y8343747D01*
X3991457Y8326678D01*
X4000601Y8310524D01*
X4011371Y8295386D01*
X4018635Y8287105D01*
X4020515Y8284006D01*
X4021175Y8280400D01*
X4020515Y8276793D01*
X4018635Y8273694D01*
X4011371Y8265414D01*
X4000601Y8250275D01*
X3991457Y8234121D01*
X3983990Y8217052D01*
X3978351Y8199374D01*
X3974541Y8181187D01*
X3972661Y8162696D01*
X3972661Y8144103D01*
X3973169Y8139074D01*
X3972610Y8134603D01*
X3970223Y8130844D01*
X3716426Y7876946D01*
X3709263Y7868564D01*
X3707333Y7865973D01*
X3701287Y7856829D01*
X3694887Y7844129D01*
X3693617Y7841132D01*
X3690061Y7830769D01*
X3689197Y7827619D01*
X3687013Y7816850D01*
X3686556Y7813649D01*
X3685692Y7802727D01*
X3685641Y6996684D01*
X3684828Y6992823D01*
X3682644Y6989521D01*
X3618534Y6925411D01*
X3615029Y6923125D01*
X3610914Y6922465D01*
X3606850Y6923481D01*
X3603548Y6926072D01*
X3601618Y6929780D01*
X3601262Y6933946D01*
X3602329Y6942023D01*
X3603294Y6963816D01*
X3602329Y6985660D01*
X3599484Y7007352D01*
X3594760Y7028688D01*
X3588207Y7049516D01*
X3579825Y7069683D01*
X3569715Y7089089D01*
X3557981Y7107529D01*
X3544671Y7124852D01*
X3529939Y7140956D01*
X3513836Y7155738D01*
X3496462Y7169048D01*
X3478072Y7180783D01*
X3466185Y7186930D01*
X3462832Y7189774D01*
X3460953Y7193737D01*
X3460953Y7198156D01*
X3462832Y7202170D01*
X3466185Y7204964D01*
X3478072Y7211161D01*
X3496462Y7222896D01*
X3513836Y7236206D01*
X3529939Y7250938D01*
X3544671Y7267092D01*
X3557981Y7284415D01*
X3569715Y7302855D01*
X3579825Y7322210D01*
X3588207Y7342428D01*
X3594760Y7363256D01*
X3599484Y7384592D01*
X3602329Y7406233D01*
X3603294Y7428077D01*
X3602329Y7449921D01*
X3599484Y7471562D01*
X3594760Y7492898D01*
X3588207Y7513777D01*
X3579825Y7533944D01*
X3569715Y7553350D01*
X3557981Y7571790D01*
X3544671Y7589113D01*
X3529939Y7605217D01*
X3513836Y7620000D01*
X3496462Y7633258D01*
X3478072Y7645044D01*
X3466185Y7651191D01*
X3462832Y7654036D01*
X3460953Y7657998D01*
X3460953Y7662418D01*
X3462832Y7666380D01*
X3466185Y7669225D01*
X3478072Y7675422D01*
X3496462Y7687157D01*
X3513836Y7700467D01*
X3529939Y7715199D01*
X3544671Y7731302D01*
X3557981Y7748676D01*
X3569715Y7767116D01*
X3579825Y7786471D01*
X3588207Y7806690D01*
X3594760Y7827518D01*
X3599484Y7848853D01*
X3602329Y7870494D01*
X3603294Y7892338D01*
X3602329Y7914182D01*
X3599484Y7935823D01*
X3594760Y7957159D01*
X3588207Y7978038D01*
X3579825Y7998206D01*
X3569715Y8017611D01*
X3557981Y8036001D01*
X3544671Y8053374D01*
X3529939Y8069478D01*
X3513836Y8084261D01*
X3496462Y8097520D01*
X3478072Y8109305D01*
X3466185Y8115452D01*
X3462832Y8118297D01*
X3460953Y8122259D01*
X3460953Y8126679D01*
X3462832Y8130641D01*
X3466185Y8133486D01*
X3478072Y8139684D01*
X3496462Y8151418D01*
X3513836Y8164728D01*
X3529939Y8179460D01*
X3544671Y8195564D01*
X3557981Y8212937D01*
X3569715Y8231327D01*
X3579825Y8250732D01*
X3588207Y8270900D01*
X3594760Y8291779D01*
X3599484Y8313115D01*
X3602329Y8334756D01*
X3603294Y8356600D01*
X3602329Y8378444D01*
X3599484Y8400084D01*
X3594760Y8421420D01*
X3588207Y8442299D01*
X3579825Y8462467D01*
X3569715Y8481872D01*
X3557981Y8500262D01*
X3544671Y8517636D01*
X3529939Y8533739D01*
X3513836Y8548471D01*
X3496462Y8561781D01*
X3478072Y8573516D01*
X3458667Y8583625D01*
X3438499Y8592007D01*
X3417620Y8598560D01*
X3396284Y8603284D01*
X3374644Y8606129D01*
X3352800Y8607094D01*
X3330956Y8606129D01*
X3309315Y8603284D01*
X3287979Y8598560D01*
X3267100Y8592007D01*
X3246932Y8583625D01*
X3227527Y8573516D01*
X3209137Y8561781D01*
X3191764Y8548471D01*
X3175660Y8533739D01*
X3160928Y8517636D01*
X3147618Y8500262D01*
X3135884Y8481872D01*
X3125774Y8462467D01*
X3117392Y8442299D01*
X3110839Y8421420D01*
X3106115Y8400084D01*
X3103270Y8378444D01*
X3102610Y8363153D01*
X3101492Y8359038D01*
X3098850Y8355736D01*
X3095040Y8353806D01*
X3090824Y8353552D01*
X3086862Y8355126D01*
X3083864Y8358124D01*
X3082391Y8362137D01*
X3081223Y8370011D01*
X3076549Y8389010D01*
X3070098Y8407400D01*
X3061868Y8425129D01*
X3051962Y8441944D01*
X3040481Y8457742D01*
X3027527Y8472373D01*
X3013202Y8485682D01*
X2997708Y8497519D01*
X2981096Y8507831D01*
X2963621Y8516467D01*
X2945333Y8523427D01*
X2926486Y8528558D01*
X2907284Y8531809D01*
X2887776Y8533231D01*
X2868269Y8532774D01*
X2848864Y8530386D01*
X2829814Y8526221D01*
X2811221Y8520176D01*
X2793339Y8512352D01*
X2776270Y8502853D01*
X2760218Y8491778D01*
X2745282Y8479180D01*
X2731617Y8465210D01*
X2719425Y8449970D01*
X2708706Y8433663D01*
X2699613Y8416340D01*
X2692247Y8398256D01*
X2686659Y8379561D01*
X2682900Y8360409D01*
X2681020Y8340953D01*
X2681020Y8321446D01*
X2682900Y8301990D01*
X2686659Y8282838D01*
X2692247Y8264144D01*
X2699613Y8246059D01*
X2708706Y8228736D01*
X2719425Y8212429D01*
X2731617Y8197189D01*
X2745282Y8183219D01*
X2760218Y8170621D01*
X2776270Y8159546D01*
X2793339Y8150047D01*
X2811221Y8142224D01*
X2829814Y8136178D01*
X2848864Y8132013D01*
X2868269Y8129625D01*
X2887776Y8129168D01*
X2907284Y8130590D01*
X2926486Y8133842D01*
X2945333Y8138972D01*
X2963621Y8145932D01*
X2981096Y8154568D01*
X2997708Y8164880D01*
X3013202Y8176717D01*
X3027527Y8190026D01*
X3040481Y8204657D01*
X3051962Y8220456D01*
X3061868Y8237270D01*
X3070098Y8255000D01*
X3076549Y8273389D01*
X3081223Y8292388D01*
X3084068Y8311692D01*
X3084576Y8322309D01*
X3085642Y8326424D01*
X3088335Y8329726D01*
X3092196Y8331657D01*
X3096412Y8331809D01*
X3100374Y8330234D01*
X3103372Y8327136D01*
X3104794Y8323122D01*
X3106115Y8313115D01*
X3110839Y8291779D01*
X3117392Y8270900D01*
X3125774Y8250732D01*
X3135884Y8231327D01*
X3147618Y8212937D01*
X3160928Y8195564D01*
X3175660Y8179460D01*
X3191764Y8164728D01*
X3209137Y8151418D01*
X3227527Y8139684D01*
X3239414Y8133486D01*
X3242767Y8130641D01*
X3244646Y8126679D01*
X3244646Y8122259D01*
X3242767Y8118297D01*
X3239414Y8115452D01*
X3227527Y8109305D01*
X3209137Y8097520D01*
X3191764Y8084261D01*
X3175660Y8069478D01*
X3160928Y8053374D01*
X3147618Y8036001D01*
X3135884Y8017611D01*
X3125774Y7998206D01*
X3117392Y7978038D01*
X3110839Y7957159D01*
X3106115Y7935823D01*
X3103270Y7914182D01*
X3102660Y7899958D01*
X3101543Y7895844D01*
X3098901Y7892542D01*
X3095091Y7890611D01*
X3090875Y7890408D01*
X3086912Y7891932D01*
X3083915Y7894980D01*
X3082442Y7898942D01*
X3081223Y7907172D01*
X3076549Y7926120D01*
X3070098Y7944561D01*
X3061868Y7962290D01*
X3051962Y7979105D01*
X3040481Y7994903D01*
X3027527Y8009534D01*
X3013202Y8022844D01*
X2997708Y8034680D01*
X2981096Y8044992D01*
X2963621Y8053628D01*
X2945333Y8060537D01*
X2926486Y8065668D01*
X2907284Y8068970D01*
X2887776Y8070392D01*
X2868269Y8069935D01*
X2848864Y8067548D01*
X2829814Y8063331D01*
X2811221Y8057337D01*
X2793339Y8049514D01*
X2776270Y8040014D01*
X2760218Y8028940D01*
X2745282Y8016341D01*
X2731617Y8002371D01*
X2719425Y7987131D01*
X2708706Y7970824D01*
X2699613Y7953502D01*
X2692247Y7935417D01*
X2686659Y7916722D01*
X2682900Y7897571D01*
X2681020Y7878114D01*
X2681020Y7858607D01*
X2682900Y7839151D01*
X2686659Y7819999D01*
X2692247Y7801254D01*
X2699613Y7783169D01*
X2708706Y7765897D01*
X2719425Y7749590D01*
X2731617Y7734350D01*
X2745282Y7720380D01*
X2760218Y7707782D01*
X2776270Y7696657D01*
X2793339Y7687208D01*
X2811221Y7679385D01*
X2829814Y7673340D01*
X2848864Y7669123D01*
X2868269Y7666786D01*
X2887776Y7666329D01*
X2907284Y7667752D01*
X2926486Y7671003D01*
X2945333Y7676134D01*
X2963621Y7683093D01*
X2981096Y7691729D01*
X2997708Y7702042D01*
X3013202Y7713878D01*
X3027527Y7727188D01*
X3040481Y7741818D01*
X3051962Y7757617D01*
X3061868Y7774431D01*
X3070098Y7792161D01*
X3076549Y7810550D01*
X3081223Y7829550D01*
X3084068Y7848853D01*
X3084525Y7858404D01*
X3085592Y7862570D01*
X3088284Y7865872D01*
X3092145Y7867751D01*
X3096361Y7867954D01*
X3100324Y7866380D01*
X3103321Y7863281D01*
X3104743Y7859268D01*
X3106115Y7848853D01*
X3110839Y7827518D01*
X3117392Y7806690D01*
X3125774Y7786471D01*
X3135884Y7767116D01*
X3147618Y7748676D01*
X3160928Y7731302D01*
X3175660Y7715199D01*
X3191764Y7700467D01*
X3209137Y7687157D01*
X3227527Y7675422D01*
X3239414Y7669225D01*
X3242767Y7666380D01*
X3244646Y7662418D01*
X3244646Y7657998D01*
X3242767Y7654036D01*
X3239414Y7651191D01*
X3227527Y7645044D01*
X3209137Y7633258D01*
X3191764Y7620000D01*
X3175660Y7605217D01*
X3160928Y7589113D01*
X3147618Y7571790D01*
X3135884Y7553350D01*
X3125774Y7533944D01*
X3117392Y7513777D01*
X3110839Y7492898D01*
X3106115Y7471562D01*
X3103270Y7449921D01*
X3102660Y7436815D01*
X3101594Y7432700D01*
X3098952Y7429398D01*
X3095142Y7427468D01*
X3090926Y7427214D01*
X3086963Y7428788D01*
X3083966Y7431786D01*
X3082493Y7435799D01*
X3081223Y7444333D01*
X3076549Y7463281D01*
X3070098Y7481722D01*
X3061868Y7499451D01*
X3051962Y7516266D01*
X3040481Y7532065D01*
X3027527Y7546695D01*
X3013202Y7559954D01*
X2997708Y7571841D01*
X2981096Y7582153D01*
X2963621Y7590790D01*
X2945333Y7597698D01*
X2926486Y7602829D01*
X2907284Y7606131D01*
X2887776Y7607553D01*
X2868269Y7607096D01*
X2848864Y7604709D01*
X2829814Y7600492D01*
X2811221Y7594498D01*
X2793339Y7586675D01*
X2776270Y7577175D01*
X2760218Y7566101D01*
X2745282Y7553502D01*
X2731617Y7539532D01*
X2719425Y7524292D01*
X2708706Y7507986D01*
X2699613Y7490663D01*
X2692247Y7472578D01*
X2686659Y7453884D01*
X2682900Y7434732D01*
X2681020Y7415275D01*
X2681020Y7395768D01*
X2682900Y7376312D01*
X2686659Y7357160D01*
X2692247Y7338415D01*
X2699613Y7320330D01*
X2708706Y7303058D01*
X2719425Y7286701D01*
X2731617Y7271512D01*
X2745282Y7257542D01*
X2760218Y7244943D01*
X2776270Y7233818D01*
X2793339Y7224369D01*
X2811221Y7216546D01*
X2829814Y7210501D01*
X2848864Y7206284D01*
X2868269Y7203948D01*
X2887776Y7203490D01*
X2907284Y7204913D01*
X2926486Y7208164D01*
X2945333Y7213295D01*
X2963621Y7220254D01*
X2981096Y7228890D01*
X2997708Y7239203D01*
X3013202Y7251039D01*
X3027527Y7264349D01*
X3040481Y7278979D01*
X3051962Y7294778D01*
X3061868Y7311593D01*
X3070098Y7329322D01*
X3076549Y7347712D01*
X3081223Y7366660D01*
X3084068Y7386015D01*
X3084474Y7394549D01*
X3085541Y7398664D01*
X3088233Y7401966D01*
X3092094Y7403896D01*
X3096310Y7404049D01*
X3100273Y7402474D01*
X3103270Y7399426D01*
X3104692Y7395362D01*
X3106115Y7384592D01*
X3110839Y7363256D01*
X3117392Y7342428D01*
X3125774Y7322210D01*
X3135884Y7302855D01*
X3147618Y7284415D01*
X3160928Y7267092D01*
X3175660Y7250938D01*
X3191764Y7236206D01*
X3209137Y7222896D01*
X3227527Y7211161D01*
X3239414Y7204964D01*
X3242767Y7202170D01*
X3244646Y7198156D01*
X3244646Y7193737D01*
X3242767Y7189774D01*
X3239414Y7186930D01*
X3227527Y7180783D01*
X3209137Y7169048D01*
X3191764Y7155738D01*
X3175660Y7140956D01*
X3160928Y7124852D01*
X3147618Y7107529D01*
X3135884Y7089089D01*
X3125774Y7069683D01*
X3117392Y7049516D01*
X3110839Y7028688D01*
X3106115Y7007352D01*
X3103270Y6985660D01*
X3102711Y6973620D01*
X3101644Y6969506D01*
X3099003Y6966203D01*
X3095193Y6964273D01*
X3090976Y6964070D01*
X3087014Y6965594D01*
X3084017Y6968642D01*
X3082544Y6972604D01*
X3081223Y6981494D01*
X3076549Y7000443D01*
X3070098Y7018883D01*
X3061868Y7036562D01*
X3051962Y7053427D01*
X3040481Y7069226D01*
X3027527Y7083856D01*
X3013202Y7097115D01*
X2997708Y7109002D01*
X2981096Y7119315D01*
X2963621Y7127951D01*
X2945333Y7134859D01*
X2926486Y7139990D01*
X2907284Y7143292D01*
X2887776Y7144715D01*
X2868269Y7144207D01*
X2848864Y7141870D01*
X2829814Y7137653D01*
X2811221Y7131608D01*
X2793339Y7123836D01*
X2776270Y7114336D01*
X2760218Y7103262D01*
X2745282Y7090664D01*
X2731617Y7076694D01*
X2719425Y7061453D01*
X2708706Y7045096D01*
X2699613Y7027824D01*
X2692247Y7009739D01*
X2686659Y6991045D01*
X2682900Y6971842D01*
X2681020Y6952437D01*
X2681020Y6932879D01*
X2682900Y6913473D01*
X2686659Y6894322D01*
X2692247Y6875576D01*
X2699613Y6857492D01*
X2708706Y6840220D01*
X2719425Y6823862D01*
X2731617Y6808673D01*
X2745282Y6794652D01*
X2760218Y6782104D01*
X2776270Y6770979D01*
X2793339Y6761480D01*
X2811221Y6753707D01*
X2829814Y6747662D01*
X2848864Y6743446D01*
X2868269Y6741109D01*
X2887776Y6740652D01*
X2907284Y6742023D01*
X2926486Y6745325D01*
X2945333Y6750456D01*
X2963621Y6757365D01*
X2981096Y6766052D01*
X2997708Y6776364D01*
X3013202Y6788200D01*
X3027527Y6801510D01*
X3040481Y6816140D01*
X3051962Y6831939D01*
X3061868Y6848754D01*
X3070098Y6866432D01*
X3076549Y6884873D01*
X3081223Y6903821D01*
X3084068Y6923176D01*
X3084423Y6930694D01*
X3085490Y6934809D01*
X3088182Y6938111D01*
X3092043Y6940042D01*
X3096310Y6940194D01*
X3100222Y6938619D01*
X3103219Y6935520D01*
X3104642Y6931507D01*
X3106115Y6920331D01*
X3110839Y6898995D01*
X3117392Y6878167D01*
X3125774Y6857949D01*
X3135884Y6838594D01*
X3147618Y6820153D01*
X3160928Y6802831D01*
X3175660Y6786727D01*
X3191764Y6771944D01*
X3209137Y6758635D01*
X3227527Y6746900D01*
X3239414Y6740702D01*
X3242767Y6737908D01*
X3244646Y6733895D01*
X3244646Y6729526D01*
X3242767Y6725513D01*
X3239414Y6722668D01*
X3227527Y6716522D01*
X3209137Y6704787D01*
X3191764Y6691477D01*
X3175660Y6676694D01*
X3160928Y6660591D01*
X3147618Y6643268D01*
X3135884Y6624828D01*
X3125774Y6605422D01*
X3117392Y6585254D01*
X3110839Y6564426D01*
X3106115Y6543090D01*
X3103270Y6521399D01*
X3102762Y6510477D01*
X3101695Y6506362D01*
X3099054Y6503060D01*
X3095244Y6501079D01*
X3091027Y6500876D01*
X3087065Y6502450D01*
X3084068Y6505448D01*
X3082594Y6509461D01*
X3081223Y6518656D01*
X3076549Y6537604D01*
X3070098Y6556044D01*
X3061868Y6573723D01*
X3051962Y6590588D01*
X3040481Y6606387D01*
X3027527Y6620967D01*
X3013202Y6634276D01*
X2997708Y6646164D01*
X2981096Y6656425D01*
X2963621Y6665112D01*
X2945333Y6672021D01*
X2926486Y6677152D01*
X2907284Y6680453D01*
X2887776Y6681876D01*
X2868269Y6681368D01*
X2848864Y6679031D01*
X2829814Y6674815D01*
X2811221Y6668770D01*
X2793339Y6660997D01*
X2776270Y6651498D01*
X2760218Y6640423D01*
X2745282Y6627825D01*
X2731617Y6613855D01*
X2719425Y6598615D01*
X2708706Y6582257D01*
X2699613Y6564985D01*
X2692247Y6546900D01*
X2686659Y6528206D01*
X2682900Y6509004D01*
X2681020Y6489598D01*
X2681020Y6470040D01*
X2682900Y6450634D01*
X2686659Y6431432D01*
X2692247Y6412738D01*
X2699613Y6394653D01*
X2708706Y6377381D01*
X2719425Y6361023D01*
X2731617Y6345783D01*
X2745282Y6331813D01*
X2760218Y6319266D01*
X2776270Y6308140D01*
X2793339Y6298641D01*
X2811221Y6290868D01*
X2829814Y6284823D01*
X2848864Y6280607D01*
X2868269Y6278270D01*
X2887776Y6277762D01*
X2907284Y6279184D01*
X2926486Y6282486D01*
X2945333Y6287617D01*
X2963621Y6294526D01*
X2981096Y6303213D01*
X2997708Y6313474D01*
X3013202Y6325362D01*
X3027527Y6338671D01*
X3040481Y6353251D01*
X3051962Y6369050D01*
X3061868Y6385915D01*
X3070098Y6403594D01*
X3076549Y6422034D01*
X3081223Y6440982D01*
X3084068Y6460337D01*
X3084372Y6466789D01*
X3085439Y6470904D01*
X3088132Y6474206D01*
X3091992Y6476136D01*
X3096260Y6476339D01*
X3100171Y6474714D01*
X3103168Y6471666D01*
X3104591Y6467652D01*
X3106115Y6456070D01*
X3110839Y6434734D01*
X3117392Y6413906D01*
X3125774Y6393688D01*
X3135884Y6374333D01*
X3147618Y6355892D01*
X3160928Y6338570D01*
X3175660Y6322466D01*
X3191764Y6307683D01*
X3209137Y6294374D01*
X3227527Y6282639D01*
X3238347Y6277051D01*
X3241040Y6274968D01*
X3242919Y6272072D01*
X3243783Y6268770D01*
X3243072Y6264046D01*
X3241192Y6260338D01*
X3237992Y6257696D01*
X3227527Y6252260D01*
X3209137Y6240526D01*
X3191764Y6227216D01*
X3175660Y6212433D01*
X3160928Y6196330D01*
X3147618Y6179007D01*
X3135884Y6160566D01*
X3125774Y6141212D01*
X3117392Y6120993D01*
X3110839Y6100165D01*
X3106115Y6078829D01*
X3103270Y6057138D01*
X3102813Y6047282D01*
X3101746Y6043168D01*
X3099104Y6039866D01*
X3095294Y6037935D01*
X3091078Y6037732D01*
X3087065Y6039256D01*
X3084118Y6042304D01*
X3082645Y6046266D01*
X3081223Y6055817D01*
X3076549Y6074765D01*
X3070098Y6093206D01*
X3061868Y6110884D01*
X3051962Y6127750D01*
X3040481Y6143548D01*
X3027527Y6158128D01*
X3013202Y6171438D01*
X2997708Y6183274D01*
X2981096Y6193586D01*
X2963621Y6202273D01*
X2945333Y6209182D01*
X2926486Y6214313D01*
X2907284Y6217615D01*
X2887776Y6219037D01*
X2868269Y6218529D01*
X2848864Y6216192D01*
X2829814Y6211976D01*
X2811221Y6205931D01*
X2793339Y6198158D01*
X2776270Y6188659D01*
X2760218Y6177534D01*
X2745282Y6164986D01*
X2731617Y6151016D01*
X2719425Y6135776D01*
X2708706Y6119418D01*
X2699613Y6102146D01*
X2692247Y6084062D01*
X2686659Y6065367D01*
X2682900Y6046165D01*
X2681020Y6026759D01*
X2681020Y6007201D01*
X2682900Y5987796D01*
X2686659Y5968593D01*
X2692247Y5949899D01*
X2699613Y5931814D01*
X2708706Y5914542D01*
X2719425Y5898184D01*
X2731617Y5882944D01*
X2745282Y5868974D01*
X2760218Y5856376D01*
X2776270Y5845302D01*
X2793339Y5835802D01*
X2811221Y5828030D01*
X2829814Y5821984D01*
X2848864Y5817768D01*
X2868269Y5815431D01*
X2887776Y5814923D01*
X2907284Y5816346D01*
X2926486Y5819648D01*
X2945333Y5824778D01*
X2963621Y5831687D01*
X2981096Y5840374D01*
X2997708Y5850636D01*
X3013202Y5862523D01*
X3027527Y5875832D01*
X3040481Y5890412D01*
X3051962Y5906211D01*
X3061868Y5923076D01*
X3070098Y5940755D01*
X3076549Y5959195D01*
X3081223Y5978144D01*
X3084068Y5997448D01*
X3084322Y6002934D01*
X3085388Y6007049D01*
X3088081Y6010351D01*
X3091942Y6012281D01*
X3096209Y6012434D01*
X3100171Y6010859D01*
X3103118Y6007760D01*
X3104540Y6003747D01*
X3106115Y5991809D01*
X3110839Y5970473D01*
X3117392Y5949645D01*
X3125774Y5929477D01*
X3135884Y5910072D01*
X3147618Y5891631D01*
X3160928Y5874308D01*
X3175660Y5858205D01*
X3191764Y5843422D01*
X3209137Y5830112D01*
X3227527Y5818378D01*
X3239414Y5812180D01*
X3242767Y5809386D01*
X3244646Y5805373D01*
X3244646Y5801004D01*
X3242767Y5796991D01*
X3239414Y5794197D01*
X3227527Y5787999D01*
X3209137Y5776264D01*
X3191764Y5762955D01*
X3175660Y5748172D01*
X3160928Y5732068D01*
X3147618Y5714746D01*
X3135884Y5696305D01*
X3125774Y5676950D01*
X3117392Y5656732D01*
X3110839Y5635904D01*
X3106115Y5614568D01*
X3103270Y5592876D01*
X3102864Y5584139D01*
X3101797Y5580024D01*
X3099155Y5576722D01*
X3095345Y5574741D01*
X3091078Y5574538D01*
X3087116Y5576112D01*
X3084169Y5579110D01*
X3082645Y5583123D01*
X3081223Y5592978D01*
X3076549Y5611926D01*
X3070098Y5630367D01*
X3061868Y5648045D01*
X3051962Y5664860D01*
X3040481Y5680659D01*
X3027527Y5695289D01*
X3013202Y5708599D01*
X2997708Y5720435D01*
X2981096Y5730748D01*
X2963621Y5739434D01*
X2945333Y5746343D01*
X2926486Y5751474D01*
X2907284Y5754776D01*
X2887776Y5756148D01*
X2868269Y5755690D01*
X2848864Y5753354D01*
X2829814Y5749137D01*
X2811221Y5743092D01*
X2793339Y5735320D01*
X2776270Y5725820D01*
X2760218Y5714695D01*
X2745282Y5702147D01*
X2731617Y5688126D01*
X2719425Y5672937D01*
X2708706Y5656580D01*
X2699613Y5639308D01*
X2692247Y5621223D01*
X2686659Y5602478D01*
X2682900Y5583326D01*
X2681020Y5563920D01*
X2681020Y5544362D01*
X2682900Y5524957D01*
X2686659Y5505754D01*
X2692247Y5487060D01*
X2699613Y5468975D01*
X2708706Y5451703D01*
X2719425Y5435346D01*
X2731617Y5420106D01*
X2745282Y5406136D01*
X2760218Y5393537D01*
X2776270Y5382463D01*
X2793339Y5372963D01*
X2811221Y5365191D01*
X2829814Y5359146D01*
X2848864Y5354929D01*
X2868269Y5352592D01*
X2887776Y5352084D01*
X2907284Y5353507D01*
X2926486Y5356809D01*
X2945333Y5361940D01*
X2963621Y5368848D01*
X2981096Y5377484D01*
X2997708Y5387797D01*
X3013202Y5399684D01*
X3027527Y5412943D01*
X3040481Y5427573D01*
X3051962Y5443372D01*
X3061868Y5460238D01*
X3070098Y5477916D01*
X3076549Y5496356D01*
X3081223Y5515305D01*
X3084068Y5534609D01*
X3084271Y5539028D01*
X3085338Y5543143D01*
X3088081Y5546496D01*
X3091891Y5548376D01*
X3096158Y5548579D01*
X3100120Y5546953D01*
X3103067Y5543905D01*
X3104489Y5539892D01*
X3106115Y5527548D01*
X3110839Y5506212D01*
X3117392Y5485384D01*
X3125774Y5465216D01*
X3135884Y5445810D01*
X3147618Y5427370D01*
X3160928Y5410047D01*
X3175660Y5393944D01*
X3191764Y5379161D01*
X3209137Y5365851D01*
X3227527Y5354116D01*
X3239414Y5347970D01*
X3242767Y5345125D01*
X3244646Y5341162D01*
X3244646Y5336743D01*
X3242767Y5332730D01*
X3239414Y5329936D01*
X3227527Y5323738D01*
X3209137Y5312003D01*
X3191764Y5298694D01*
X3175660Y5283962D01*
X3160928Y5267807D01*
X3147618Y5250484D01*
X3135884Y5232044D01*
X3125774Y5212689D01*
X3117392Y5192471D01*
X3110839Y5171643D01*
X3106115Y5150307D01*
X3103270Y5128666D01*
X3102914Y5120944D01*
X3101848Y5116830D01*
X3099206Y5113528D01*
X3095396Y5111597D01*
X3091129Y5111394D01*
X3087166Y5112918D01*
X3084220Y5115966D01*
X3082696Y5119928D01*
X3081223Y5130139D01*
X3076549Y5149088D01*
X3070098Y5167477D01*
X3061868Y5185206D01*
X3051962Y5202021D01*
X3040481Y5217820D01*
X3027527Y5232450D01*
X3013202Y5245760D01*
X2997708Y5257596D01*
X2981096Y5267909D01*
X2963621Y5276545D01*
X2945333Y5283504D01*
X2926486Y5288635D01*
X2907284Y5291886D01*
X2887776Y5293309D01*
X2868269Y5292852D01*
X2848864Y5290515D01*
X2829814Y5286298D01*
X2811221Y5280253D01*
X2793339Y5272430D01*
X2776270Y5262981D01*
X2760218Y5251856D01*
X2745282Y5239258D01*
X2731617Y5225288D01*
X2719425Y5210098D01*
X2708706Y5193741D01*
X2699613Y5176469D01*
X2692247Y5158384D01*
X2686659Y5139639D01*
X2682900Y5120487D01*
X2681020Y5101031D01*
X2681020Y5081524D01*
X2682900Y5062067D01*
X2686659Y5042916D01*
X2692247Y5024221D01*
X2699613Y5006136D01*
X2708706Y4988814D01*
X2719425Y4972507D01*
X2731617Y4957267D01*
X2745282Y4943297D01*
X2760218Y4930698D01*
X2776270Y4919624D01*
X2793339Y4910124D01*
X2811221Y4902301D01*
X2829814Y4896307D01*
X2848864Y4892090D01*
X2868269Y4889703D01*
X2887776Y4889246D01*
X2907284Y4890668D01*
X2926486Y4893970D01*
X2945333Y4899101D01*
X2963621Y4906010D01*
X2981096Y4914646D01*
X2997708Y4924958D01*
X3013202Y4936845D01*
X3027527Y4950104D01*
X3040481Y4964734D01*
X3051962Y4980533D01*
X3061868Y4997348D01*
X3070098Y5015077D01*
X3076549Y5033518D01*
X3081223Y5052466D01*
X3084068Y5071770D01*
X3084220Y5075174D01*
X3085338Y5079288D01*
X3088030Y5082590D01*
X3091840Y5084521D01*
X3096107Y5084673D01*
X3100070Y5083098D01*
X3103016Y5080000D01*
X3104438Y5075986D01*
X3106115Y5063337D01*
X3110839Y5042001D01*
X3117392Y5021122D01*
X3125774Y5000955D01*
X3135884Y4981549D01*
X3147618Y4963109D01*
X3160928Y4945786D01*
X3175660Y4929682D01*
X3191764Y4914900D01*
X3209137Y4901641D01*
X3227527Y4889855D01*
X3239414Y4883708D01*
X3242767Y4880864D01*
X3244646Y4876901D01*
X3244646Y4872482D01*
X3242767Y4868519D01*
X3239414Y4865674D01*
X3227527Y4859477D01*
X3209137Y4847742D01*
X3191764Y4834432D01*
X3175660Y4819700D01*
X3160928Y4803597D01*
X3147618Y4786223D01*
X3135884Y4767783D01*
X3125774Y4748428D01*
X3117392Y4728210D01*
X3110839Y4707382D01*
X3106115Y4686046D01*
X3103270Y4664405D01*
X3102965Y4657801D01*
X3101898Y4653686D01*
X3099257Y4650384D01*
X3095447Y4648403D01*
X3091180Y4648200D01*
X3087217Y4649774D01*
X3084271Y4652772D01*
X3082747Y4656785D01*
X3081223Y4667250D01*
X3076549Y4686249D01*
X3070098Y4704638D01*
X3061868Y4722368D01*
X3051962Y4739182D01*
X3040481Y4754981D01*
X3027527Y4769612D01*
X3013202Y4782921D01*
X2997708Y4794758D01*
X2981096Y4805070D01*
X2963621Y4813706D01*
X2945333Y4820666D01*
X2926486Y4825796D01*
X2907284Y4829048D01*
X2887776Y4830470D01*
X2868269Y4830013D01*
X2848864Y4827676D01*
X2829814Y4823460D01*
X2811221Y4817414D01*
X2793339Y4809591D01*
X2776270Y4800142D01*
X2760218Y4789017D01*
X2745282Y4776419D01*
X2731617Y4762449D01*
X2719425Y4747209D01*
X2708706Y4730902D01*
X2699613Y4713630D01*
X2692247Y4695545D01*
X2686659Y4676800D01*
X2682900Y4657648D01*
X2681020Y4638192D01*
X2681020Y4618685D01*
X2682900Y4599228D01*
X2686659Y4580077D01*
X2692247Y4561382D01*
X2699613Y4543298D01*
X2708706Y4525975D01*
X2719425Y4509668D01*
X2731617Y4494428D01*
X2745282Y4480458D01*
X2760218Y4467860D01*
X2776270Y4456785D01*
X2793339Y4447286D01*
X2811221Y4439462D01*
X2829814Y4433468D01*
X2848864Y4429252D01*
X2868269Y4426864D01*
X2887776Y4426407D01*
X2907284Y4427829D01*
X2926486Y4431131D01*
X2945333Y4436262D01*
X2963621Y4443171D01*
X2981096Y4451807D01*
X2997708Y4462119D01*
X3013202Y4473956D01*
X3027527Y4487265D01*
X3040481Y4501896D01*
X3051962Y4517694D01*
X3061868Y4534509D01*
X3070098Y4552238D01*
X3076549Y4570679D01*
X3081223Y4589627D01*
X3084068Y4608931D01*
X3084169Y4611268D01*
X3085287Y4615434D01*
X3087979Y4618736D01*
X3091789Y4620615D01*
X3096056Y4620818D01*
X3100019Y4619244D01*
X3102965Y4616145D01*
X3104388Y4612132D01*
X3106115Y4599076D01*
X3110839Y4577740D01*
X3117392Y4556861D01*
X3125774Y4536694D01*
X3135884Y4517288D01*
X3147618Y4498898D01*
X3160928Y4481525D01*
X3175660Y4465421D01*
X3191764Y4450638D01*
X3209137Y4437380D01*
X3227527Y4425594D01*
X3239414Y4419447D01*
X3242767Y4416602D01*
X3244646Y4412640D01*
X3244646Y4408220D01*
X3242767Y4404258D01*
X3239414Y4401413D01*
X3227527Y4395216D01*
X3209137Y4383481D01*
X3191764Y4370171D01*
X3175660Y4355439D01*
X3160928Y4339336D01*
X3147618Y4321962D01*
X3135884Y4303572D01*
X3125774Y4284167D01*
X3117392Y4263999D01*
X3110839Y4243120D01*
X3106115Y4221784D01*
X3103270Y4200144D01*
X3103016Y4194606D01*
X3101949Y4190492D01*
X3099257Y4187190D01*
X3095498Y4185259D01*
X3091230Y4185056D01*
X3087268Y4186580D01*
X3084271Y4189628D01*
X3082798Y4193590D01*
X3081223Y4204411D01*
X3076549Y4223410D01*
X3070098Y4241800D01*
X3061868Y4259529D01*
X3051962Y4276344D01*
X3040481Y4292142D01*
X3027527Y4306773D01*
X3013202Y4320082D01*
X2997708Y4331919D01*
X2981096Y4342231D01*
X2963621Y4350867D01*
X2945333Y4357827D01*
X2926486Y4362958D01*
X2907284Y4366209D01*
X2887776Y4367631D01*
X2868269Y4367174D01*
X2848864Y4364786D01*
X2829814Y4360621D01*
X2811221Y4354576D01*
X2793339Y4346752D01*
X2776270Y4337253D01*
X2760218Y4326178D01*
X2745282Y4313580D01*
X2731617Y4299610D01*
X2719425Y4284370D01*
X2708706Y4268063D01*
X2699613Y4250740D01*
X2692247Y4232656D01*
X2686659Y4213961D01*
X2682900Y4194810D01*
X2681020Y4175353D01*
X2681020Y4155846D01*
X2682900Y4136390D01*
X2686659Y4117238D01*
X2692247Y4098544D01*
X2699613Y4080459D01*
X2708706Y4063136D01*
X2719425Y4046829D01*
X2731617Y4031589D01*
X2745282Y4017619D01*
X2760218Y4005021D01*
X2776270Y3993946D01*
X2793339Y3984447D01*
X2811221Y3976624D01*
X2829814Y3970578D01*
X2848864Y3966413D01*
X2868269Y3964025D01*
X2887776Y3963568D01*
X2907284Y3964990D01*
X2926486Y3968242D01*
X2945333Y3973372D01*
X2963621Y3980332D01*
X2981096Y3988968D01*
X2997708Y3999280D01*
X3013202Y4011117D01*
X3027527Y4024426D01*
X3040481Y4039057D01*
X3051962Y4054856D01*
X3061868Y4071670D01*
X3070098Y4089400D01*
X3076549Y4107789D01*
X3081223Y4126788D01*
X3084068Y4146092D01*
X3085236Y4151528D01*
X3087928Y4154830D01*
X3091738Y4156760D01*
X3096006Y4156913D01*
X3099968Y4155338D01*
X3102914Y4152290D01*
X3104337Y4148226D01*
X3106115Y4134815D01*
X3110839Y4113479D01*
X3117392Y4092600D01*
X3125774Y4072432D01*
X3135884Y4053027D01*
X3147618Y4034637D01*
X3160928Y4017264D01*
X3175660Y4001160D01*
X3191764Y3986428D01*
X3209137Y3973118D01*
X3227527Y3961384D01*
X3246932Y3951274D01*
X3267100Y3942892D01*
X3287979Y3936339D01*
X3309315Y3931615D01*
X3331514Y3928719D01*
X3335324Y3927805D01*
X3338474Y3925570D01*
X3340557Y3922268D01*
X3341268Y3918458D01*
X3340455Y3914648D01*
X3338271Y3911396D01*
X3308502Y3881526D01*
X3301339Y3873144D01*
X3299409Y3870553D01*
X3293364Y3861358D01*
X3291789Y3858564D01*
X3286912Y3848658D01*
X3285693Y3845712D01*
X3282137Y3835298D01*
X3281273Y3832199D01*
X3279038Y3821429D01*
X3277768Y3807256D01*
X3277768Y695096D01*
X3278632Y684174D01*
X3279089Y680923D01*
X3281273Y670204D01*
X3282137Y667054D01*
X3285693Y656691D01*
X3286963Y653694D01*
X3293364Y640994D01*
X3299409Y631850D01*
X3301339Y629259D01*
X3308502Y620877D01*
X3366668Y562660D01*
X3368548Y559968D01*
X3369513Y556818D01*
X3369411Y553516D01*
X3368700Y549910D01*
X3366820Y530453D01*
X3366820Y510946D01*
X3368700Y491490D01*
X3372459Y472338D01*
X3378047Y453643D01*
X3385413Y435559D01*
X3394506Y418236D01*
X3405225Y401929D01*
X3417417Y386689D01*
X3431082Y372719D01*
X3446018Y360121D01*
X3462070Y349046D01*
X3479139Y339547D01*
X3497021Y331724D01*
X3515614Y325678D01*
X3534664Y321513D01*
X3554069Y319125D01*
X3573576Y318668D01*
X3593084Y320090D01*
X3612286Y323342D01*
X3631133Y328472D01*
X3649421Y335432D01*
X3666896Y344068D01*
X3683508Y354380D01*
X3699001Y366217D01*
X3713327Y379526D01*
X3726281Y394157D01*
X3737762Y409956D01*
X3747668Y426770D01*
X3755898Y444500D01*
X3762349Y462889D01*
X3767023Y481888D01*
X3769868Y501192D01*
X3770782Y520700D01*
X3769868Y540207D01*
X3767023Y559511D01*
X3762349Y578510D01*
X3755898Y596900D01*
X3747668Y614629D01*
X3737762Y631444D01*
X3726281Y647242D01*
X3713327Y661873D01*
X3699001Y675182D01*
X3683508Y687019D01*
X3666896Y697331D01*
X3649421Y705967D01*
X3631133Y712927D01*
X3612286Y718058D01*
X3593084Y721309D01*
X3573576Y722731D01*
X3554069Y722274D01*
X3535070Y719937D01*
X3531971Y720039D01*
X3529126Y721055D01*
X3526637Y722833D01*
X3507079Y742391D01*
X3504895Y745693D01*
X3504133Y749604D01*
X3504133Y1191869D01*
X3505098Y1196289D01*
X3507892Y1199794D01*
X3511956Y1201775D01*
X3516477Y1201826D01*
X3534664Y1197813D01*
X3554069Y1195425D01*
X3573576Y1194968D01*
X3593084Y1196390D01*
X3612286Y1199642D01*
X3631133Y1204772D01*
X3649421Y1211732D01*
X3666896Y1220368D01*
X3683508Y1230680D01*
X3699001Y1242517D01*
X3713327Y1255826D01*
X3726281Y1270457D01*
X3737762Y1286256D01*
X3747668Y1303070D01*
X3755898Y1320800D01*
X3762349Y1339189D01*
X3767023Y1358188D01*
X3769868Y1377492D01*
X3770782Y1397000D01*
X3769868Y1416507D01*
X3767023Y1435811D01*
X3762349Y1454810D01*
X3755898Y1473200D01*
X3747668Y1490929D01*
X3737762Y1507744D01*
X3726281Y1523542D01*
X3713327Y1538173D01*
X3699001Y1551482D01*
X3683508Y1563319D01*
X3666896Y1573631D01*
X3649421Y1582267D01*
X3631133Y1589227D01*
X3612286Y1594358D01*
X3593084Y1597609D01*
X3573576Y1599031D01*
X3568090Y1598879D01*
X3564128Y1599590D01*
X3560775Y1601774D01*
X3558489Y1605127D01*
X3557727Y1609039D01*
X3557727Y1985365D01*
X3558489Y1989277D01*
X3560775Y1992630D01*
X3564128Y1994814D01*
X3568090Y1995525D01*
X3586276Y1995068D01*
X3605784Y1996490D01*
X3624986Y1999742D01*
X3643833Y2004872D01*
X3662121Y2011832D01*
X3679596Y2020468D01*
X3696208Y2030780D01*
X3711701Y2042617D01*
X3726027Y2055926D01*
X3738981Y2070557D01*
X3750462Y2086356D01*
X3760368Y2103170D01*
X3768598Y2120900D01*
X3775049Y2139289D01*
X3779723Y2158288D01*
X3782568Y2177592D01*
X3783482Y2197100D01*
X3782568Y2216607D01*
X3780536Y2230374D01*
X3780586Y2233523D01*
X3781551Y2236470D01*
X3783431Y2239010D01*
X4010914Y2466492D01*
X4014520Y2468829D01*
X4018838Y2469438D01*
X4023004Y2468219D01*
X4026255Y2465324D01*
X4028033Y2461361D01*
X4029151Y2455926D01*
X4034790Y2438247D01*
X4042257Y2421178D01*
X4051401Y2405024D01*
X4062171Y2389886D01*
X4069435Y2381605D01*
X4071315Y2378506D01*
X4071975Y2374900D01*
X4071315Y2371293D01*
X4069435Y2368194D01*
X4062171Y2359914D01*
X4051401Y2344775D01*
X4042257Y2328621D01*
X4034790Y2311552D01*
X4029151Y2293874D01*
X4025341Y2275687D01*
X4023461Y2257196D01*
X4023461Y2238603D01*
X4025341Y2220112D01*
X4029151Y2201926D01*
X4034790Y2184247D01*
X4042257Y2167178D01*
X4051401Y2151024D01*
X4062171Y2135886D01*
X4069435Y2127605D01*
X4071315Y2124506D01*
X4071975Y2120900D01*
X4071315Y2117293D01*
X4069435Y2114194D01*
X4062171Y2105914D01*
X4051401Y2090775D01*
X4042257Y2074621D01*
X4034790Y2057552D01*
X4029151Y2039874D01*
X4025341Y2021687D01*
X4023461Y2003196D01*
X4023461Y1984603D01*
X4025341Y1966112D01*
X4029151Y1947925D01*
X4034790Y1930247D01*
X4042257Y1913178D01*
X4051401Y1897024D01*
X4062171Y1881886D01*
X4069435Y1873605D01*
X4071315Y1870506D01*
X4071975Y1866900D01*
X4071315Y1863293D01*
X4069435Y1860194D01*
X4062171Y1851914D01*
X4051401Y1836775D01*
X4042257Y1820621D01*
X4034790Y1803552D01*
X4029151Y1785874D01*
X4025341Y1767687D01*
X4023461Y1749196D01*
X4023461Y1730603D01*
X4025341Y1712112D01*
X4029151Y1693925D01*
X4034790Y1676247D01*
X4042257Y1659178D01*
X4051401Y1643024D01*
X4062171Y1627886D01*
X4069435Y1619605D01*
X4071315Y1616506D01*
X4071975Y1612900D01*
X4071315Y1609293D01*
X4069435Y1606194D01*
X4062171Y1597914D01*
X4051401Y1582775D01*
X4042257Y1566621D01*
X4034790Y1549552D01*
X4029151Y1531874D01*
X4025341Y1513687D01*
X4023461Y1495196D01*
X4023461Y1476603D01*
X4025341Y1458112D01*
X4029151Y1439926D01*
X4034790Y1422247D01*
X4042257Y1405178D01*
X4051401Y1389024D01*
X4062171Y1373886D01*
X4069435Y1365605D01*
X4071315Y1362506D01*
X4071975Y1358900D01*
X4071315Y1355293D01*
X4069435Y1352194D01*
X4062171Y1343914D01*
X4051401Y1328775D01*
X4042257Y1312621D01*
X4034790Y1295552D01*
X4029151Y1277874D01*
X4025341Y1259687D01*
X4023461Y1241196D01*
X4023461Y1222603D01*
X4025341Y1204112D01*
X4029151Y1185926D01*
X4034790Y1168247D01*
X4042257Y1151229D01*
X4044086Y1146098D01*
X4043476Y1141730D01*
X4041140Y1138072D01*
X3983228Y1080058D01*
X3976065Y1071727D01*
X3974134Y1069136D01*
X3968089Y1059942D01*
X3966514Y1057148D01*
X3961688Y1047292D01*
X3960418Y1044295D01*
X3956862Y1033881D01*
X3955999Y1030782D01*
X3953814Y1020013D01*
X3953357Y1016812D01*
X3952494Y1005840D01*
X3952443Y205130D01*
X3951630Y201218D01*
X3949446Y197916D01*
X3597859Y-153619D01*
X3595268Y-155498D01*
X3592220Y-156464D01*
X3588969Y-156464D01*
X3580384Y-154990D01*
X3560876Y-153568D01*
X3541369Y-154025D01*
X3521964Y-156413D01*
X3502914Y-160578D01*
X3484321Y-166624D01*
X3466439Y-174447D01*
X3449370Y-183946D01*
X3433318Y-195021D01*
X3418382Y-207619D01*
X3404717Y-221589D01*
X3392525Y-236829D01*
X3381806Y-253136D01*
X3372713Y-270459D01*
X3365347Y-288544D01*
X3359759Y-307238D01*
X3356000Y-326390D01*
X3354120Y-345846D01*
X3354120Y-365353D01*
X3356000Y-384810D01*
X3359759Y-403961D01*
X3365347Y-422656D01*
X3372713Y-440740D01*
X3381806Y-458063D01*
X3392525Y-474370D01*
X3404717Y-489610D01*
X3418382Y-503580D01*
X3433318Y-516178D01*
X3449370Y-527253D01*
X3466439Y-536752D01*
X3484321Y-544576D01*
X3502914Y-550621D01*
X3521964Y-554786D01*
X3541369Y-557174D01*
X3560876Y-557631D01*
X3580384Y-556209D01*
X3599586Y-552958D01*
X3618433Y-547827D01*
X3636721Y-540867D01*
X3654196Y-532231D01*
X3670808Y-521919D01*
X3686301Y-510082D01*
X3700627Y-496773D01*
X3713581Y-482142D01*
X3725062Y-466343D01*
X3734968Y-449529D01*
X3743198Y-431800D01*
X3749649Y-413410D01*
X3754323Y-394411D01*
X3757168Y-375107D01*
X3758082Y-355600D01*
X3757168Y-336092D01*
X3755136Y-322326D01*
X3755186Y-319176D01*
X3756151Y-316230D01*
X3758031Y-313690D01*
X4026154Y-45516D01*
X4029608Y-43281D01*
X4033672Y-42570D01*
X4037685Y-43535D01*
X4040987Y-46024D01*
X4043019Y-49631D01*
X4047490Y-63652D01*
X4054957Y-80670D01*
X4064101Y-96875D01*
X4074871Y-112014D01*
X4076547Y-113944D01*
X4078427Y-117043D01*
X4079087Y-120650D01*
X4078427Y-124206D01*
X4076547Y-127355D01*
X4074871Y-129285D01*
X4064101Y-144424D01*
X4054957Y-160578D01*
X4047490Y-177647D01*
X4041851Y-195326D01*
X4038041Y-213512D01*
X4036161Y-232003D01*
X4036161Y-250596D01*
X4038041Y-269087D01*
X4041851Y-287274D01*
X4047490Y-304952D01*
X4054957Y-321970D01*
X4064101Y-338175D01*
X4074871Y-353314D01*
X4087114Y-367284D01*
X4090162Y-371094D01*
X4091127Y-374904D01*
X4090568Y-378764D01*
X4087571Y-383286D01*
X4076801Y-398424D01*
X4067657Y-414578D01*
X4060190Y-431647D01*
X4054551Y-449326D01*
X4050741Y-467512D01*
X4048861Y-486003D01*
X4048861Y-504596D01*
X4050741Y-523087D01*
X4054551Y-541274D01*
X4060190Y-558952D01*
X4067657Y-575970D01*
X4076801Y-592175D01*
X4087571Y-607314D01*
X4094835Y-615594D01*
X4096715Y-618693D01*
X4097375Y-622300D01*
X4096715Y-625856D01*
X4094835Y-629005D01*
X4087571Y-637286D01*
X4076801Y-652424D01*
X4067657Y-668578D01*
X4060190Y-685647D01*
X4054551Y-703326D01*
X4050741Y-721512D01*
X4048861Y-740003D01*
X4048861Y-758596D01*
X4050741Y-777087D01*
X4054551Y-795274D01*
X4060190Y-812952D01*
X4067657Y-829970D01*
X4076801Y-846175D01*
X4087571Y-861314D01*
X4099814Y-875284D01*
X4113479Y-887882D01*
X4128363Y-899058D01*
X4144264Y-908608D01*
X4161078Y-916482D01*
X4178655Y-922578D01*
X4196740Y-926846D01*
X4215180Y-929233D01*
X4233722Y-929741D01*
X4252264Y-928319D01*
X4270552Y-924966D01*
X4288383Y-919784D01*
X4305604Y-912774D01*
X4322013Y-904036D01*
X4337456Y-893673D01*
X4349648Y-883462D01*
X4352848Y-881684D01*
X4356404Y-881126D01*
X4360011Y-881837D01*
X4363059Y-883818D01*
X4367479Y-887882D01*
X4382363Y-899058D01*
X4398264Y-908608D01*
X4415078Y-916482D01*
X4432655Y-922578D01*
X4450740Y-926846D01*
X4469180Y-929233D01*
X4487722Y-929741D01*
X4506264Y-928319D01*
X4524552Y-924966D01*
X4542383Y-919784D01*
X4559604Y-912774D01*
X4576013Y-904036D01*
X4591456Y-893673D01*
X4603648Y-883462D01*
X4606848Y-881684D01*
X4610404Y-881126D01*
X4614011Y-881837D01*
X4617059Y-883818D01*
X4621479Y-887882D01*
X4636363Y-899058D01*
X4652264Y-908608D01*
X4669078Y-916482D01*
X4686655Y-922578D01*
X4704740Y-926846D01*
X4723180Y-929233D01*
X4741722Y-929741D01*
X4760264Y-928319D01*
X4778552Y-924966D01*
X4796383Y-919784D01*
X4813604Y-912774D01*
X4830013Y-904036D01*
X4845456Y-893673D01*
X4859680Y-881735D01*
X4863846Y-877519D01*
X4866792Y-875436D01*
X4870297Y-874471D01*
X4873955Y-874877D01*
X4877206Y-876503D01*
X4890363Y-886358D01*
X4906264Y-895908D01*
X4923078Y-903782D01*
X4940655Y-909878D01*
X4958740Y-914196D01*
X4977180Y-916533D01*
X4995722Y-917041D01*
X5014264Y-915619D01*
X5032552Y-912266D01*
X5050383Y-907084D01*
X5067604Y-900074D01*
X5084013Y-891336D01*
X5099456Y-880973D01*
X5111648Y-870762D01*
X5114848Y-868984D01*
X5118404Y-868426D01*
X5122011Y-869137D01*
X5125059Y-871118D01*
X5129479Y-875182D01*
X5144363Y-886358D01*
X5160264Y-895908D01*
X5177078Y-903782D01*
X5194655Y-909878D01*
X5212740Y-914146D01*
X5231180Y-916533D01*
X5249722Y-917041D01*
X5268264Y-915619D01*
X5286552Y-912266D01*
X5304383Y-907084D01*
X5321604Y-900074D01*
X5338013Y-891336D01*
X5353456Y-880973D01*
X5365648Y-870762D01*
X5368848Y-868984D01*
X5372404Y-868426D01*
X5376011Y-869137D01*
X5379059Y-871118D01*
X5383479Y-875182D01*
X5398363Y-886358D01*
X5414264Y-895908D01*
X5431078Y-903782D01*
X5448655Y-909878D01*
X5466740Y-914146D01*
X5485180Y-916533D01*
X5503722Y-917041D01*
X5522264Y-915619D01*
X5540552Y-912266D01*
X5558383Y-907084D01*
X5575604Y-900074D01*
X5592013Y-891336D01*
X5607456Y-880973D01*
X5619648Y-870762D01*
X5622848Y-868984D01*
X5626404Y-868426D01*
X5630011Y-869137D01*
X5633059Y-871118D01*
X5637479Y-875182D01*
X5652363Y-886358D01*
X5668264Y-895908D01*
X5685078Y-903782D01*
X5702655Y-909878D01*
X5720740Y-914196D01*
X5739180Y-916533D01*
X5757722Y-917041D01*
X5776264Y-915619D01*
X5794552Y-912266D01*
X5812383Y-907084D01*
X5829604Y-900074D01*
X5846013Y-891336D01*
X5861913Y-880618D01*
X5865774Y-879043D01*
X5869940Y-879144D01*
X5873699Y-880922D01*
X5880963Y-886358D01*
X5896864Y-895908D01*
X5913678Y-903782D01*
X5931255Y-909929D01*
X5949340Y-914196D01*
X5967780Y-916584D01*
X5986322Y-917041D01*
X6004864Y-915619D01*
X6023152Y-912266D01*
X6040983Y-907084D01*
X6058204Y-900074D01*
X6074613Y-891336D01*
X6090056Y-880973D01*
X6097727Y-874521D01*
X6101435Y-872591D01*
X6105550Y-872286D01*
X6109512Y-873607D01*
X6125464Y-883208D01*
X6142278Y-891082D01*
X6159855Y-897229D01*
X6177940Y-901496D01*
X6196380Y-903884D01*
X6214922Y-904341D01*
X6233464Y-902919D01*
X6251752Y-899566D01*
X6269583Y-894384D01*
X6286804Y-887374D01*
X6303213Y-878636D01*
X6318656Y-868273D01*
X6332880Y-856386D01*
X6345885Y-843076D01*
X6357416Y-828497D01*
X6367373Y-812800D01*
X6375704Y-796188D01*
X6382258Y-778814D01*
X6386982Y-760831D01*
X6389827Y-742442D01*
X6390792Y-723900D01*
X6389827Y-705358D01*
X6386982Y-686968D01*
X6382258Y-669036D01*
X6375704Y-651611D01*
X6367373Y-635000D01*
X6357416Y-619302D01*
X6345885Y-604774D01*
X6342989Y-600710D01*
X6342278Y-596900D01*
X6342989Y-593090D01*
X6345885Y-589076D01*
X6357416Y-574497D01*
X6367373Y-558800D01*
X6375704Y-542188D01*
X6382258Y-524814D01*
X6386982Y-506831D01*
X6389827Y-488442D01*
X6390792Y-469900D01*
X6389827Y-451358D01*
X6386982Y-432968D01*
X6382258Y-415035D01*
X6375704Y-397611D01*
X6367373Y-381000D01*
X6357416Y-365302D01*
X6345885Y-350774D01*
X6338265Y-342900D01*
X6336233Y-339902D01*
X6335369Y-336346D01*
X6335826Y-332740D01*
X6337554Y-329539D01*
X6344716Y-320497D01*
X6354673Y-304800D01*
X6363004Y-288188D01*
X6369558Y-270814D01*
X6374282Y-252831D01*
X6377127Y-234442D01*
X6378092Y-215900D01*
X6377127Y-197358D01*
X6374282Y-178968D01*
X6369558Y-161036D01*
X6363004Y-143611D01*
X6354673Y-127000D01*
X6344716Y-111302D01*
X6336995Y-101549D01*
X6335064Y-97485D01*
X6335064Y-93014D01*
X6336995Y-88950D01*
X6344716Y-79197D01*
X6354673Y-63500D01*
X6363004Y-46888D01*
X6369558Y-29514D01*
X6374282Y-11531D01*
X6377127Y6858D01*
X6378092Y25400D01*
X6377127Y43942D01*
X6374282Y62331D01*
X6369558Y80264D01*
X6363004Y97688D01*
X6354673Y114300D01*
X6344716Y129997D01*
X6333185Y144526D01*
X6330289Y148590D01*
X6329578Y152400D01*
X6330289Y156210D01*
X6333185Y160223D01*
X6344716Y174802D01*
X6354673Y190500D01*
X6363004Y207111D01*
X6369558Y224485D01*
X6374282Y242468D01*
X6377127Y260858D01*
X6378092Y279400D01*
X6377127Y297942D01*
X6374282Y316331D01*
X6369558Y334264D01*
X6363004Y351688D01*
X6354673Y368300D01*
X6344716Y383997D01*
X6336995Y393750D01*
X6335064Y397814D01*
X6335064Y402285D01*
X6336995Y406349D01*
X6344716Y416102D01*
X6354673Y431800D01*
X6363004Y448411D01*
X6368084Y461924D01*
X6370218Y465328D01*
X6373520Y467664D01*
X6377482Y468477D01*
X6381394Y467766D01*
X6384798Y465531D01*
X7214260Y-363931D01*
X7216343Y-367030D01*
X7217206Y-370687D01*
X7216648Y-374396D01*
X7214819Y-377647D01*
X7211923Y-380034D01*
X7203744Y-384505D01*
X7188149Y-395122D01*
X7182053Y-400253D01*
X7178954Y-402031D01*
X7175500Y-402640D01*
X7172045Y-402031D01*
X7168946Y-400253D01*
X7162850Y-395122D01*
X7147255Y-384505D01*
X7130694Y-375462D01*
X7113270Y-368147D01*
X7095236Y-362559D01*
X7076744Y-358800D01*
X7057948Y-356920D01*
X7039051Y-356920D01*
X7020255Y-358800D01*
X7001764Y-362559D01*
X6983730Y-368147D01*
X6966305Y-375462D01*
X6949744Y-384505D01*
X6934149Y-395122D01*
X6928053Y-400253D01*
X6924954Y-402031D01*
X6921500Y-402640D01*
X6918045Y-402031D01*
X6914946Y-400253D01*
X6908850Y-395122D01*
X6893255Y-384505D01*
X6876694Y-375462D01*
X6859270Y-368147D01*
X6841236Y-362559D01*
X6822744Y-358800D01*
X6803948Y-356920D01*
X6785051Y-356920D01*
X6766255Y-358800D01*
X6747764Y-362559D01*
X6729730Y-368147D01*
X6712305Y-375462D01*
X6695744Y-384505D01*
X6680149Y-395122D01*
X6665671Y-407263D01*
X6652514Y-420776D01*
X6640728Y-435559D01*
X6630466Y-451408D01*
X6621881Y-468223D01*
X6614972Y-485800D01*
X6609842Y-503935D01*
X6606590Y-522528D01*
X6605168Y-541375D01*
X6605625Y-560273D01*
X6607962Y-578967D01*
X6612178Y-597408D01*
X6618173Y-615289D01*
X6625945Y-632510D01*
X6635394Y-648868D01*
X6646418Y-664210D01*
X6658914Y-678332D01*
X6672783Y-691184D01*
X6687820Y-702564D01*
X6703923Y-712419D01*
X6720941Y-720598D01*
X6738670Y-727100D01*
X6756958Y-731723D01*
X6775653Y-734568D01*
X6794500Y-735482D01*
X6813346Y-734568D01*
X6832041Y-731723D01*
X6850329Y-727100D01*
X6868058Y-720598D01*
X6885076Y-712419D01*
X6901180Y-702564D01*
X6915353Y-691845D01*
X6919315Y-690016D01*
X6923684Y-690016D01*
X6927646Y-691845D01*
X6941820Y-702564D01*
X6957923Y-712419D01*
X6974941Y-720598D01*
X6992670Y-727100D01*
X7010958Y-731723D01*
X7029653Y-734568D01*
X7048500Y-735482D01*
X7067346Y-734568D01*
X7086041Y-731723D01*
X7104329Y-727100D01*
X7122058Y-720598D01*
X7139076Y-712419D01*
X7155180Y-702564D01*
X7169353Y-691845D01*
X7173315Y-690016D01*
X7177684Y-690016D01*
X7181646Y-691845D01*
X7195820Y-702564D01*
X7211923Y-712419D01*
X7228941Y-720598D01*
X7246670Y-727100D01*
X7251700Y-728370D01*
X7251700Y-596900D01*
X7243673Y-596900D01*
X7240117Y-596239D01*
X7236968Y-594410D01*
X7234732Y-591566D01*
X7233615Y-588111D01*
X7233767Y-584454D01*
X7235037Y-578967D01*
X7237374Y-560273D01*
X7237831Y-541375D01*
X7236409Y-522528D01*
X7233716Y-507238D01*
X7233920Y-502818D01*
X7235952Y-498906D01*
X7239457Y-496265D01*
X7243724Y-495300D01*
X7251700Y-495300D01*
X7251700Y-425907D01*
X7252462Y-422046D01*
X7254697Y-418744D01*
X7257948Y-416559D01*
X7261859Y-415747D01*
X7265771Y-416559D01*
X7269022Y-418744D01*
X7365593Y-515264D01*
X7367930Y-518922D01*
X7368540Y-523240D01*
X7367168Y-541375D01*
X7367625Y-560273D01*
X7369962Y-578967D01*
X7371232Y-584454D01*
X7371384Y-588111D01*
X7370267Y-591566D01*
X7368031Y-594410D01*
X7364882Y-596239D01*
X7361326Y-596900D01*
X7353300Y-596900D01*
X7353300Y-728370D01*
X7358329Y-727100D01*
X7376058Y-720598D01*
X7393076Y-712419D01*
X7409180Y-702564D01*
X7423353Y-691845D01*
X7427315Y-690016D01*
X7431684Y-690016D01*
X7435646Y-691845D01*
X7449820Y-702564D01*
X7465923Y-712419D01*
X7482941Y-720598D01*
X7500670Y-727100D01*
X7518958Y-731723D01*
X7537653Y-734568D01*
X7556500Y-735482D01*
X7575346Y-734568D01*
X7594041Y-731723D01*
X7612329Y-727100D01*
X7630058Y-720598D01*
X7636560Y-717499D01*
X7640574Y-716483D01*
X7644638Y-717194D01*
X7648143Y-719480D01*
X7688986Y-760222D01*
X7697317Y-767384D01*
X7699908Y-769315D01*
X7709103Y-775360D01*
X7711897Y-776935D01*
X7721752Y-781761D01*
X7724749Y-783031D01*
X7735163Y-786587D01*
X7738262Y-787450D01*
X7749031Y-789635D01*
X7752232Y-790092D01*
X7763205Y-790956D01*
X7936179Y-790956D01*
X7947101Y-790092D01*
X7950352Y-789635D01*
X7961071Y-787450D01*
X7964220Y-786587D01*
X7974584Y-783031D01*
X7977581Y-781761D01*
X7990281Y-775360D01*
X7999425Y-769315D01*
X8002016Y-767384D01*
X8010398Y-760222D01*
X8033766Y-736955D01*
X8036306Y-735076D01*
X8039303Y-734110D01*
X8042452Y-734060D01*
X8045653Y-734568D01*
X8064500Y-735482D01*
X8083346Y-734568D01*
X8102041Y-731723D01*
X8120329Y-727100D01*
X8138058Y-720598D01*
X8155076Y-712419D01*
X8171180Y-702564D01*
X8185353Y-691845D01*
X8189315Y-690016D01*
X8193684Y-690016D01*
X8197646Y-691845D01*
X8211820Y-702564D01*
X8227923Y-712419D01*
X8244941Y-720598D01*
X8262670Y-727100D01*
X8280958Y-731723D01*
X8299653Y-734568D01*
X8318500Y-735482D01*
X8337346Y-734568D01*
X8356041Y-731723D01*
X8374329Y-727100D01*
X8392058Y-720598D01*
X8409076Y-712419D01*
X8425180Y-702564D01*
X8440216Y-691184D01*
X8454085Y-678332D01*
X8466582Y-664210D01*
X8477605Y-648868D01*
X8487054Y-632510D01*
X8494826Y-615289D01*
X8500821Y-597408D01*
X8505037Y-578967D01*
X8507374Y-560273D01*
X8507831Y-541375D01*
X8506409Y-522528D01*
X8503158Y-503935D01*
X8498027Y-485800D01*
X8491118Y-468223D01*
X8482533Y-451408D01*
X8472271Y-435559D01*
X8460486Y-420776D01*
X8447328Y-407263D01*
X8432850Y-395122D01*
X8417255Y-384505D01*
X8400694Y-375462D01*
X8383270Y-368147D01*
X8365236Y-362559D01*
X8346744Y-358800D01*
X8327948Y-356920D01*
X8309051Y-356920D01*
X8290255Y-358800D01*
X8271764Y-362559D01*
X8253730Y-368147D01*
X8236305Y-375462D01*
X8219744Y-384505D01*
X8204149Y-395122D01*
X8198053Y-400253D01*
X8194954Y-402031D01*
X8191500Y-402640D01*
X8188045Y-402031D01*
X8184946Y-400253D01*
X8178850Y-395122D01*
X8163255Y-384505D01*
X8146694Y-375462D01*
X8129270Y-368147D01*
X8111236Y-362559D01*
X8092744Y-358800D01*
X8073948Y-356920D01*
X8055051Y-356920D01*
X8036255Y-358800D01*
X8017764Y-362559D01*
X7999730Y-368147D01*
X7982305Y-375462D01*
X7965744Y-384505D01*
X7950149Y-395122D01*
X7944053Y-400253D01*
X7940954Y-402031D01*
X7937500Y-402640D01*
X7934045Y-402031D01*
X7930946Y-400253D01*
X7924850Y-395122D01*
X7909255Y-384505D01*
X7892694Y-375462D01*
X7875270Y-368147D01*
X7857236Y-362559D01*
X7838744Y-358800D01*
X7819948Y-356920D01*
X7801051Y-356920D01*
X7787995Y-358241D01*
X7783575Y-357682D01*
X7779816Y-355295D01*
X6566408Y858062D01*
X6564223Y861364D01*
X6563461Y865276D01*
X6563461Y4377131D01*
X6564223Y4381042D01*
X6566408Y4384344D01*
X6569709Y4386529D01*
X6573621Y4387291D01*
X6577482Y4386529D01*
X6580784Y4384344D01*
X6704685Y4260443D01*
X6706768Y4257395D01*
X6707631Y4253839D01*
X6707174Y4250182D01*
X6704939Y4243120D01*
X6700215Y4221784D01*
X6697370Y4200144D01*
X6696405Y4178300D01*
X6697370Y4156456D01*
X6700215Y4134815D01*
X6704939Y4113479D01*
X6711492Y4092600D01*
X6719874Y4072432D01*
X6729984Y4053027D01*
X6741718Y4034637D01*
X6755028Y4017264D01*
X6769760Y4001160D01*
X6785864Y3986428D01*
X6803237Y3973118D01*
X6821627Y3961384D01*
X6841032Y3951274D01*
X6861200Y3942892D01*
X6882079Y3936339D01*
X6903415Y3931615D01*
X6925056Y3928770D01*
X6946900Y3927805D01*
X6968744Y3928770D01*
X6990384Y3931615D01*
X7011720Y3936339D01*
X7032599Y3942892D01*
X7052767Y3951274D01*
X7072172Y3961384D01*
X7090562Y3973118D01*
X7107936Y3986428D01*
X7124039Y4001160D01*
X7138771Y4017264D01*
X7152081Y4034637D01*
X7163816Y4053027D01*
X7173925Y4072432D01*
X7176871Y4077055D01*
X7180630Y4079290D01*
X7184999Y4079697D01*
X7189114Y4078224D01*
X7192264Y4075176D01*
X7202525Y4059529D01*
X7214717Y4044289D01*
X7228382Y4030319D01*
X7243318Y4017721D01*
X7259370Y4006646D01*
X7276439Y3997147D01*
X7294321Y3989324D01*
X7312914Y3983278D01*
X7331964Y3979113D01*
X7351369Y3976725D01*
X7370876Y3976268D01*
X7390384Y3977690D01*
X7409586Y3980942D01*
X7428433Y3986072D01*
X7446721Y3993032D01*
X7464196Y4001668D01*
X7480808Y4011980D01*
X7496302Y4023817D01*
X7510627Y4037126D01*
X7523581Y4051757D01*
X7535062Y4067556D01*
X7544968Y4084370D01*
X7553198Y4102100D01*
X7559649Y4120489D01*
X7564323Y4139488D01*
X7567168Y4158792D01*
X7568082Y4178300D01*
X7567168Y4197807D01*
X7564323Y4217111D01*
X7559649Y4236110D01*
X7553198Y4254500D01*
X7544968Y4272229D01*
X7535062Y4289044D01*
X7523581Y4304842D01*
X7510627Y4319473D01*
X7496302Y4332782D01*
X7480808Y4344619D01*
X7464196Y4354931D01*
X7446721Y4363567D01*
X7428433Y4370527D01*
X7409586Y4375658D01*
X7390384Y4378909D01*
X7370876Y4380331D01*
X7351369Y4379874D01*
X7331964Y4377486D01*
X7312914Y4373321D01*
X7294321Y4367276D01*
X7276439Y4359452D01*
X7259370Y4349953D01*
X7243318Y4338878D01*
X7228382Y4326280D01*
X7214717Y4312310D01*
X7202525Y4297070D01*
X7192264Y4281424D01*
X7189114Y4278376D01*
X7184999Y4276902D01*
X7180630Y4277309D01*
X7176871Y4279544D01*
X7173925Y4284167D01*
X7163816Y4303572D01*
X7152081Y4321962D01*
X7138771Y4339336D01*
X7124039Y4355439D01*
X7107936Y4370171D01*
X7090562Y4383481D01*
X7072172Y4395216D01*
X7062978Y4399991D01*
X7059625Y4402836D01*
X7057745Y4406798D01*
X7057745Y4411218D01*
X7059625Y4415180D01*
X7062978Y4418025D01*
X7072172Y4422800D01*
X7090562Y4434535D01*
X7107936Y4447844D01*
X7124039Y4462627D01*
X7138771Y4478731D01*
X7152081Y4496054D01*
X7163816Y4514494D01*
X7174382Y4534814D01*
X7177024Y4538065D01*
X7180783Y4539996D01*
X7184999Y4540199D01*
X7188911Y4538675D01*
X7191908Y4535728D01*
X7202525Y4519523D01*
X7214717Y4504283D01*
X7228382Y4490313D01*
X7243318Y4477766D01*
X7259370Y4466640D01*
X7276439Y4457141D01*
X7294321Y4449368D01*
X7312914Y4443323D01*
X7331964Y4439107D01*
X7351369Y4436770D01*
X7370876Y4436262D01*
X7390384Y4437684D01*
X7409586Y4440986D01*
X7428433Y4446117D01*
X7446721Y4453026D01*
X7464196Y4461713D01*
X7480808Y4471974D01*
X7496302Y4483862D01*
X7510627Y4497171D01*
X7523581Y4511751D01*
X7535062Y4527550D01*
X7544968Y4544415D01*
X7553198Y4562094D01*
X7559649Y4580534D01*
X7564323Y4599482D01*
X7567168Y4618837D01*
X7568082Y4638344D01*
X7567168Y4657852D01*
X7564323Y4677156D01*
X7559649Y4696104D01*
X7553198Y4714544D01*
X7544968Y4732223D01*
X7535062Y4749088D01*
X7523581Y4764887D01*
X7510627Y4779467D01*
X7496302Y4792776D01*
X7480808Y4804664D01*
X7464196Y4814925D01*
X7446721Y4823612D01*
X7428433Y4830521D01*
X7409586Y4835652D01*
X7390384Y4838954D01*
X7370876Y4840376D01*
X7351369Y4839868D01*
X7331964Y4837531D01*
X7312914Y4833315D01*
X7294321Y4827270D01*
X7276439Y4819497D01*
X7259370Y4809998D01*
X7243318Y4798923D01*
X7228382Y4786325D01*
X7214717Y4772355D01*
X7202525Y4757115D01*
X7192619Y4742027D01*
X7189470Y4738928D01*
X7185355Y4737506D01*
X7180986Y4737912D01*
X7177227Y4740097D01*
X7174738Y4743704D01*
X7173925Y4745583D01*
X7163816Y4764989D01*
X7152081Y4783429D01*
X7138771Y4800752D01*
X7124039Y4816856D01*
X7107936Y4831638D01*
X7090562Y4844948D01*
X7072172Y4856683D01*
X7062978Y4861458D01*
X7059625Y4864252D01*
X7057745Y4868265D01*
X7057745Y4872634D01*
X7059625Y4876647D01*
X7062978Y4879441D01*
X7072172Y4884216D01*
X7090562Y4895951D01*
X7107936Y4909261D01*
X7124039Y4924044D01*
X7138771Y4940147D01*
X7152081Y4957470D01*
X7163816Y4975910D01*
X7174026Y4995418D01*
X7176668Y4998669D01*
X7180427Y5000548D01*
X7184644Y5000752D01*
X7188555Y4999278D01*
X7191552Y4996281D01*
X7202525Y4979568D01*
X7214717Y4964328D01*
X7228382Y4950358D01*
X7243318Y4937760D01*
X7259370Y4926685D01*
X7276439Y4917186D01*
X7294321Y4909362D01*
X7312914Y4903368D01*
X7331964Y4899152D01*
X7351369Y4896764D01*
X7370876Y4896307D01*
X7390384Y4897729D01*
X7409586Y4901031D01*
X7428433Y4906162D01*
X7446721Y4913071D01*
X7464196Y4921707D01*
X7480808Y4932019D01*
X7496302Y4943856D01*
X7510627Y4957165D01*
X7523581Y4971796D01*
X7535062Y4987594D01*
X7544968Y5004409D01*
X7553198Y5022138D01*
X7559649Y5040579D01*
X7564323Y5059527D01*
X7567168Y5078831D01*
X7568082Y5098338D01*
X7567168Y5117846D01*
X7564323Y5137150D01*
X7559649Y5156149D01*
X7553198Y5174538D01*
X7544968Y5192268D01*
X7535062Y5209082D01*
X7523581Y5224881D01*
X7510627Y5239512D01*
X7496302Y5252821D01*
X7480808Y5264658D01*
X7464196Y5274970D01*
X7446721Y5283606D01*
X7428433Y5290566D01*
X7409586Y5295696D01*
X7390384Y5298948D01*
X7370876Y5300370D01*
X7351369Y5299913D01*
X7331964Y5297576D01*
X7312914Y5293360D01*
X7294321Y5287314D01*
X7276439Y5279491D01*
X7259370Y5270042D01*
X7243318Y5258917D01*
X7228382Y5246319D01*
X7214717Y5232349D01*
X7202525Y5217109D01*
X7192975Y5202580D01*
X7189825Y5199532D01*
X7185710Y5198059D01*
X7181342Y5198465D01*
X7177582Y5200650D01*
X7175093Y5204256D01*
X7173925Y5207050D01*
X7163816Y5226405D01*
X7152081Y5244846D01*
X7138771Y5262168D01*
X7124039Y5278272D01*
X7107936Y5293055D01*
X7090562Y5306364D01*
X7072172Y5318099D01*
X7062978Y5322874D01*
X7059625Y5325719D01*
X7057745Y5329682D01*
X7057745Y5334101D01*
X7059625Y5338064D01*
X7062978Y5340908D01*
X7072172Y5345684D01*
X7090562Y5357418D01*
X7107936Y5370728D01*
X7124039Y5385460D01*
X7138771Y5401564D01*
X7152081Y5418937D01*
X7163816Y5437327D01*
X7173620Y5456174D01*
X7176465Y5459526D01*
X7180427Y5461406D01*
X7184847Y5461406D01*
X7188809Y5459577D01*
X7191806Y5455920D01*
X7202525Y5439562D01*
X7214717Y5424373D01*
X7228382Y5410352D01*
X7243318Y5397804D01*
X7259370Y5386679D01*
X7276439Y5377180D01*
X7294321Y5369407D01*
X7312914Y5363362D01*
X7331964Y5359146D01*
X7351369Y5356809D01*
X7370876Y5356352D01*
X7390384Y5357723D01*
X7409586Y5361025D01*
X7428433Y5366156D01*
X7446721Y5373065D01*
X7464196Y5381752D01*
X7480808Y5392064D01*
X7496302Y5403900D01*
X7510627Y5417210D01*
X7523581Y5431840D01*
X7535062Y5447639D01*
X7544968Y5464454D01*
X7553198Y5482132D01*
X7559649Y5500573D01*
X7564323Y5519521D01*
X7567168Y5538876D01*
X7568082Y5558383D01*
X7567168Y5577890D01*
X7564323Y5597194D01*
X7559649Y5616143D01*
X7553198Y5634583D01*
X7544968Y5652262D01*
X7535062Y5669127D01*
X7523581Y5684926D01*
X7510627Y5699556D01*
X7496302Y5712815D01*
X7480808Y5724702D01*
X7464196Y5735015D01*
X7446721Y5743651D01*
X7428433Y5750560D01*
X7409586Y5755690D01*
X7390384Y5758992D01*
X7370876Y5760415D01*
X7351369Y5759907D01*
X7331964Y5757570D01*
X7312914Y5753354D01*
X7294321Y5747308D01*
X7276439Y5739536D01*
X7259370Y5730036D01*
X7243318Y5718962D01*
X7228382Y5706364D01*
X7214717Y5692394D01*
X7202525Y5677154D01*
X7193330Y5663133D01*
X7190181Y5660085D01*
X7186066Y5658612D01*
X7181697Y5659018D01*
X7177938Y5661253D01*
X7175449Y5664809D01*
X7173925Y5668467D01*
X7163816Y5687872D01*
X7152081Y5706262D01*
X7138771Y5723636D01*
X7124039Y5739739D01*
X7107936Y5754471D01*
X7090562Y5767781D01*
X7072172Y5779516D01*
X7062978Y5784291D01*
X7059625Y5787136D01*
X7057745Y5791098D01*
X7057745Y5795518D01*
X7059625Y5799480D01*
X7062978Y5802325D01*
X7072172Y5807100D01*
X7090562Y5818835D01*
X7107936Y5832144D01*
X7124039Y5846927D01*
X7138771Y5863031D01*
X7152081Y5880354D01*
X7163816Y5898794D01*
X7173264Y5916879D01*
X7176109Y5920282D01*
X7180072Y5922111D01*
X7184440Y5922111D01*
X7188453Y5920282D01*
X7191806Y5915914D01*
X7202525Y5899607D01*
X7214717Y5884367D01*
X7228382Y5870397D01*
X7243318Y5857798D01*
X7259370Y5846724D01*
X7276439Y5837224D01*
X7294321Y5829401D01*
X7312914Y5823407D01*
X7331964Y5819190D01*
X7351369Y5816803D01*
X7370876Y5816346D01*
X7390384Y5817768D01*
X7409586Y5821070D01*
X7428433Y5826201D01*
X7446721Y5833110D01*
X7464196Y5841746D01*
X7480808Y5852058D01*
X7496302Y5863945D01*
X7510627Y5877204D01*
X7523581Y5891834D01*
X7535062Y5907633D01*
X7544968Y5924448D01*
X7553198Y5942177D01*
X7559649Y5960618D01*
X7564323Y5979566D01*
X7567168Y5998870D01*
X7568082Y6018377D01*
X7567168Y6037884D01*
X7564323Y6057239D01*
X7559649Y6076188D01*
X7553198Y6094577D01*
X7544968Y6112306D01*
X7535062Y6129121D01*
X7523581Y6144920D01*
X7510627Y6159550D01*
X7496302Y6172860D01*
X7480808Y6184696D01*
X7464196Y6195009D01*
X7446721Y6203645D01*
X7428433Y6210604D01*
X7409586Y6215735D01*
X7390384Y6218986D01*
X7370876Y6220409D01*
X7351369Y6219952D01*
X7331964Y6217615D01*
X7312914Y6213398D01*
X7294321Y6207353D01*
X7276439Y6199530D01*
X7259370Y6190081D01*
X7243318Y6178956D01*
X7228382Y6166358D01*
X7214717Y6152388D01*
X7202525Y6137198D01*
X7193686Y6123736D01*
X7190536Y6120638D01*
X7186422Y6119215D01*
X7182053Y6119622D01*
X7178294Y6121806D01*
X7175804Y6125413D01*
X7173925Y6129883D01*
X7163816Y6149289D01*
X7152081Y6167729D01*
X7138771Y6185052D01*
X7124039Y6201156D01*
X7107936Y6215938D01*
X7090562Y6229248D01*
X7072172Y6240983D01*
X7062978Y6245707D01*
X7059625Y6248552D01*
X7057745Y6252514D01*
X7057745Y6256934D01*
X7059625Y6260896D01*
X7062978Y6263741D01*
X7072172Y6268516D01*
X7090562Y6280251D01*
X7107936Y6293561D01*
X7124039Y6308344D01*
X7138771Y6324447D01*
X7152081Y6341770D01*
X7163816Y6360210D01*
X7172909Y6377635D01*
X7175703Y6380988D01*
X7179716Y6382867D01*
X7184085Y6382867D01*
X7188098Y6380988D01*
X7190892Y6377635D01*
X7191806Y6375958D01*
X7202525Y6359601D01*
X7214717Y6344412D01*
X7228382Y6330442D01*
X7243318Y6317843D01*
X7259370Y6306718D01*
X7276439Y6297269D01*
X7294321Y6289446D01*
X7312914Y6283401D01*
X7331964Y6279184D01*
X7351369Y6276848D01*
X7370876Y6276390D01*
X7390384Y6277813D01*
X7409586Y6281064D01*
X7428433Y6286195D01*
X7446721Y6293154D01*
X7464196Y6301790D01*
X7480808Y6312103D01*
X7496302Y6323939D01*
X7510627Y6337249D01*
X7523581Y6351879D01*
X7535062Y6367678D01*
X7544968Y6384493D01*
X7553198Y6402222D01*
X7559649Y6420612D01*
X7564323Y6439560D01*
X7567168Y6458915D01*
X7568082Y6478422D01*
X7567168Y6497929D01*
X7564323Y6517233D01*
X7559649Y6536181D01*
X7553198Y6554622D01*
X7544968Y6572351D01*
X7535062Y6589166D01*
X7523581Y6604965D01*
X7510627Y6619595D01*
X7496302Y6632854D01*
X7480808Y6644741D01*
X7464196Y6655053D01*
X7446721Y6663690D01*
X7428433Y6670598D01*
X7409586Y6675729D01*
X7390384Y6679031D01*
X7370876Y6680453D01*
X7351369Y6679996D01*
X7331964Y6677609D01*
X7312914Y6673392D01*
X7294321Y6667398D01*
X7276439Y6659575D01*
X7259370Y6650075D01*
X7243318Y6639001D01*
X7228382Y6626402D01*
X7214717Y6612432D01*
X7202525Y6597192D01*
X7194042Y6584289D01*
X7190892Y6581241D01*
X7186777Y6579768D01*
X7182408Y6580174D01*
X7178649Y6582359D01*
X7176160Y6585966D01*
X7173925Y6591350D01*
X7163816Y6610705D01*
X7152081Y6629146D01*
X7138771Y6646468D01*
X7124039Y6662572D01*
X7107936Y6677355D01*
X7090562Y6690664D01*
X7072172Y6702399D01*
X7062978Y6707174D01*
X7059625Y6710019D01*
X7057745Y6713981D01*
X7057745Y6718401D01*
X7059625Y6722364D01*
X7062978Y6725208D01*
X7072172Y6729984D01*
X7090562Y6741718D01*
X7107936Y6755028D01*
X7124039Y6769760D01*
X7138771Y6785864D01*
X7152081Y6803237D01*
X7163816Y6821627D01*
X7172553Y6838340D01*
X7175347Y6841693D01*
X7179309Y6843572D01*
X7183729Y6843572D01*
X7187692Y6841744D01*
X7190536Y6838391D01*
X7191806Y6836003D01*
X7202525Y6819646D01*
X7214717Y6804406D01*
X7228382Y6790436D01*
X7243318Y6777837D01*
X7259370Y6766763D01*
X7276439Y6757263D01*
X7294321Y6749491D01*
X7312914Y6743446D01*
X7331964Y6739229D01*
X7351369Y6736892D01*
X7370876Y6736384D01*
X7390384Y6737807D01*
X7409586Y6741109D01*
X7428433Y6746240D01*
X7446721Y6753148D01*
X7464196Y6761784D01*
X7480808Y6772097D01*
X7496302Y6783984D01*
X7510627Y6797243D01*
X7523581Y6811873D01*
X7535062Y6827672D01*
X7544968Y6844538D01*
X7553198Y6862216D01*
X7559649Y6880656D01*
X7564323Y6899605D01*
X7567168Y6918909D01*
X7568082Y6938416D01*
X7567168Y6957923D01*
X7564323Y6977278D01*
X7559649Y6996226D01*
X7553198Y7014667D01*
X7544968Y7032345D01*
X7535062Y7049160D01*
X7523581Y7064959D01*
X7510627Y7079589D01*
X7496302Y7092899D01*
X7480808Y7104735D01*
X7464196Y7115048D01*
X7446721Y7123734D01*
X7428433Y7130643D01*
X7409586Y7135774D01*
X7390384Y7139076D01*
X7370876Y7140448D01*
X7351369Y7139990D01*
X7331964Y7137653D01*
X7312914Y7133437D01*
X7294321Y7127392D01*
X7276439Y7119620D01*
X7259370Y7110120D01*
X7243318Y7098995D01*
X7228382Y7086447D01*
X7214717Y7072426D01*
X7202525Y7057237D01*
X7194397Y7044842D01*
X7191248Y7041794D01*
X7187133Y7040321D01*
X7182815Y7040727D01*
X7179005Y7042962D01*
X7176516Y7046518D01*
X7173925Y7052767D01*
X7163816Y7072172D01*
X7152081Y7090562D01*
X7138771Y7107936D01*
X7124039Y7124039D01*
X7107936Y7138771D01*
X7090562Y7152081D01*
X7072172Y7163816D01*
X7062978Y7168591D01*
X7059625Y7171436D01*
X7057745Y7175398D01*
X7057745Y7179818D01*
X7059625Y7183780D01*
X7062978Y7186625D01*
X7072172Y7191400D01*
X7090562Y7203135D01*
X7107936Y7216444D01*
X7124039Y7231227D01*
X7138771Y7247331D01*
X7152081Y7264653D01*
X7163816Y7283094D01*
X7172147Y7299096D01*
X7174992Y7302449D01*
X7178954Y7304278D01*
X7183374Y7304328D01*
X7187336Y7302449D01*
X7190181Y7299096D01*
X7191806Y7295997D01*
X7202525Y7279690D01*
X7214717Y7264450D01*
X7228382Y7250480D01*
X7243318Y7237882D01*
X7259370Y7226757D01*
X7276439Y7217308D01*
X7294321Y7209485D01*
X7312914Y7203440D01*
X7331964Y7199223D01*
X7351369Y7196886D01*
X7370876Y7196429D01*
X7390384Y7197852D01*
X7409586Y7201103D01*
X7428433Y7206234D01*
X7446721Y7213193D01*
X7464196Y7221829D01*
X7480808Y7232142D01*
X7496302Y7243978D01*
X7510627Y7257288D01*
X7523581Y7271918D01*
X7535062Y7287717D01*
X7544968Y7304531D01*
X7553198Y7322261D01*
X7559649Y7340650D01*
X7564323Y7359650D01*
X7567168Y7378953D01*
X7568082Y7398461D01*
X7567168Y7417968D01*
X7564323Y7437272D01*
X7559649Y7456220D01*
X7553198Y7474661D01*
X7544968Y7492390D01*
X7535062Y7509205D01*
X7523581Y7525003D01*
X7510627Y7539634D01*
X7496302Y7552944D01*
X7480808Y7564780D01*
X7464196Y7575092D01*
X7446721Y7583728D01*
X7428433Y7590637D01*
X7409586Y7595768D01*
X7390384Y7599070D01*
X7370876Y7600492D01*
X7351369Y7600035D01*
X7331964Y7597648D01*
X7312914Y7593431D01*
X7294321Y7587437D01*
X7276439Y7579614D01*
X7259370Y7570114D01*
X7243318Y7559040D01*
X7228382Y7546441D01*
X7214717Y7532471D01*
X7202525Y7517231D01*
X7194753Y7505395D01*
X7191603Y7502347D01*
X7187488Y7500924D01*
X7183170Y7501331D01*
X7179360Y7503515D01*
X7176871Y7507122D01*
X7173925Y7514183D01*
X7163816Y7533589D01*
X7152081Y7552029D01*
X7138771Y7569352D01*
X7124039Y7585456D01*
X7107936Y7600238D01*
X7090562Y7613548D01*
X7072172Y7625283D01*
X7062978Y7630058D01*
X7059625Y7632852D01*
X7057745Y7636865D01*
X7057745Y7641234D01*
X7059625Y7645247D01*
X7062978Y7648041D01*
X7072172Y7652816D01*
X7090562Y7664551D01*
X7107936Y7677861D01*
X7124039Y7692644D01*
X7138771Y7708747D01*
X7152081Y7726070D01*
X7163816Y7744510D01*
X7171791Y7759801D01*
X7174636Y7763154D01*
X7178598Y7765034D01*
X7182967Y7765034D01*
X7186980Y7763205D01*
X7189825Y7759852D01*
X7191806Y7756042D01*
X7202525Y7739684D01*
X7214717Y7724444D01*
X7228382Y7710474D01*
X7243318Y7697876D01*
X7259370Y7686802D01*
X7276439Y7677302D01*
X7294321Y7669530D01*
X7312914Y7663484D01*
X7331964Y7659268D01*
X7351369Y7656931D01*
X7370876Y7656423D01*
X7390384Y7657846D01*
X7409586Y7661148D01*
X7428433Y7666278D01*
X7446721Y7673187D01*
X7464196Y7681874D01*
X7480808Y7692136D01*
X7496302Y7704023D01*
X7510627Y7717332D01*
X7523581Y7731912D01*
X7535062Y7747711D01*
X7544968Y7764576D01*
X7553198Y7782255D01*
X7559649Y7800695D01*
X7564323Y7819644D01*
X7567168Y7838948D01*
X7568082Y7858455D01*
X7567168Y7877962D01*
X7564323Y7897317D01*
X7559649Y7916265D01*
X7553198Y7934706D01*
X7544968Y7952384D01*
X7535062Y7969250D01*
X7523581Y7985048D01*
X7510627Y7999628D01*
X7496302Y8012938D01*
X7480808Y8024774D01*
X7464196Y8035086D01*
X7446721Y8043773D01*
X7428433Y8050682D01*
X7409586Y8055813D01*
X7390384Y8059115D01*
X7370876Y8060537D01*
X7351369Y8060029D01*
X7331964Y8057692D01*
X7312914Y8053476D01*
X7294321Y8047431D01*
X7276439Y8039658D01*
X7259370Y8030159D01*
X7243318Y8019034D01*
X7228382Y8006486D01*
X7214717Y7992516D01*
X7202525Y7977276D01*
X7195108Y7965998D01*
X7191959Y7962950D01*
X7187844Y7961477D01*
X7183526Y7961884D01*
X7179716Y7964068D01*
X7177227Y7967675D01*
X7173925Y7975650D01*
X7163816Y7995005D01*
X7152081Y8013446D01*
X7138771Y8030768D01*
X7124039Y8046872D01*
X7107936Y8061655D01*
X7090562Y8074964D01*
X7072172Y8086699D01*
X7062978Y8091474D01*
X7059625Y8094319D01*
X7057745Y8098281D01*
X7057745Y8102701D01*
X7059625Y8106664D01*
X7062978Y8109508D01*
X7072172Y8114284D01*
X7090562Y8126018D01*
X7107936Y8139328D01*
X7124039Y8154060D01*
X7138771Y8170164D01*
X7152081Y8187537D01*
X7163816Y8205927D01*
X7171436Y8220506D01*
X7174230Y8223910D01*
X7178243Y8225739D01*
X7182612Y8225739D01*
X7186574Y8223910D01*
X7189419Y8220557D01*
X7191806Y8216036D01*
X7202525Y8199729D01*
X7214717Y8184489D01*
X7228382Y8170519D01*
X7243318Y8157921D01*
X7259370Y8146846D01*
X7276439Y8137347D01*
X7294321Y8129524D01*
X7312914Y8123478D01*
X7331964Y8119313D01*
X7351369Y8116925D01*
X7370876Y8116468D01*
X7390384Y8117890D01*
X7409586Y8121142D01*
X7428433Y8126272D01*
X7446721Y8133232D01*
X7464196Y8141868D01*
X7480808Y8152180D01*
X7496302Y8164017D01*
X7510627Y8177326D01*
X7523581Y8191957D01*
X7535062Y8207756D01*
X7544968Y8224570D01*
X7553198Y8242300D01*
X7559649Y8260689D01*
X7564323Y8279688D01*
X7567168Y8298992D01*
X7568082Y8318500D01*
X7567168Y8338007D01*
X7564323Y8357311D01*
X7559649Y8376310D01*
X7553198Y8394700D01*
X7544968Y8412429D01*
X7535062Y8429244D01*
X7523581Y8445042D01*
X7510627Y8459673D01*
X7496302Y8472982D01*
X7480808Y8484819D01*
X7464196Y8495131D01*
X7446721Y8503767D01*
X7428433Y8510727D01*
X7409586Y8515858D01*
X7390384Y8519109D01*
X7370876Y8520531D01*
X7351369Y8520074D01*
X7331964Y8517686D01*
X7312914Y8513521D01*
X7294321Y8507476D01*
X7276439Y8499652D01*
X7259370Y8490153D01*
X7243318Y8479078D01*
X7228382Y8466480D01*
X7214717Y8452510D01*
X7202525Y8437270D01*
X7195464Y8426551D01*
X7192365Y8423503D01*
X7188200Y8422030D01*
X7183881Y8422436D01*
X7180072Y8424672D01*
X7177582Y8428228D01*
X7173925Y8437067D01*
X7163816Y8456472D01*
X7152081Y8474862D01*
X7138771Y8492236D01*
X7124039Y8508339D01*
X7107936Y8523071D01*
X7090562Y8536381D01*
X7072172Y8548116D01*
X7052767Y8558225D01*
X7032599Y8566607D01*
X7011720Y8573160D01*
X6990384Y8577884D01*
X6968744Y8580729D01*
X6946900Y8581694D01*
X6925056Y8580729D01*
X6903415Y8577884D01*
X6882079Y8573160D01*
X6861200Y8566607D01*
X6841032Y8558225D01*
X6821627Y8548116D01*
X6803237Y8536381D01*
X6785864Y8523071D01*
X6769760Y8508339D01*
X6755028Y8492236D01*
X6741718Y8474862D01*
X6729984Y8456472D01*
X6719874Y8437067D01*
X6711492Y8416899D01*
X6704939Y8396020D01*
X6700215Y8374684D01*
X6697370Y8353044D01*
X6696405Y8331200D01*
X6697370Y8309356D01*
X6700215Y8287715D01*
X6704939Y8266379D01*
X6711492Y8245500D01*
X6719874Y8225332D01*
X6729984Y8205927D01*
X6741718Y8187537D01*
X6755028Y8170164D01*
X6769760Y8154060D01*
X6785864Y8139328D01*
X6803237Y8126018D01*
X6821627Y8114284D01*
X6830822Y8109508D01*
X6834174Y8106664D01*
X6836054Y8102701D01*
X6836054Y8098281D01*
X6834174Y8094319D01*
X6830822Y8091474D01*
X6821627Y8086699D01*
X6803237Y8074964D01*
X6785864Y8061655D01*
X6769760Y8046872D01*
X6755028Y8030768D01*
X6741718Y8013446D01*
X6729984Y7995005D01*
X6719874Y7975650D01*
X6711492Y7955432D01*
X6704939Y7934604D01*
X6700215Y7913268D01*
X6697370Y7891576D01*
X6696405Y7869783D01*
X6697370Y7847939D01*
X6700215Y7826248D01*
X6704939Y7804912D01*
X6711492Y7784084D01*
X6719874Y7763916D01*
X6729984Y7744510D01*
X6741718Y7726070D01*
X6755028Y7708747D01*
X6769760Y7692644D01*
X6785864Y7677861D01*
X6803237Y7664551D01*
X6821627Y7652816D01*
X6830822Y7648041D01*
X6834174Y7645247D01*
X6836054Y7641234D01*
X6836054Y7636865D01*
X6834174Y7632852D01*
X6830822Y7630058D01*
X6821627Y7625283D01*
X6803237Y7613548D01*
X6785864Y7600238D01*
X6769760Y7585456D01*
X6755028Y7569352D01*
X6741718Y7552029D01*
X6729984Y7533589D01*
X6719874Y7514183D01*
X6711492Y7494016D01*
X6704939Y7473188D01*
X6700215Y7451852D01*
X6697370Y7430160D01*
X6696405Y7408316D01*
X6697370Y7386523D01*
X6700215Y7364831D01*
X6704939Y7343495D01*
X6711492Y7322667D01*
X6719874Y7302449D01*
X6729984Y7283094D01*
X6741718Y7264653D01*
X6755028Y7247331D01*
X6769760Y7231227D01*
X6785864Y7216444D01*
X6803237Y7203135D01*
X6821627Y7191400D01*
X6830822Y7186625D01*
X6834174Y7183780D01*
X6836054Y7179818D01*
X6836054Y7175398D01*
X6834174Y7171436D01*
X6830822Y7168591D01*
X6821627Y7163816D01*
X6803237Y7152081D01*
X6785864Y7138771D01*
X6769760Y7124039D01*
X6755028Y7107936D01*
X6741718Y7090562D01*
X6729984Y7072172D01*
X6719874Y7052767D01*
X6711492Y7032599D01*
X6704939Y7011720D01*
X6700215Y6990384D01*
X6697370Y6968744D01*
X6696405Y6946900D01*
X6697370Y6925056D01*
X6700215Y6903415D01*
X6704939Y6882079D01*
X6711492Y6861200D01*
X6719874Y6841032D01*
X6729984Y6821627D01*
X6741718Y6803237D01*
X6755028Y6785864D01*
X6769760Y6769760D01*
X6785864Y6755028D01*
X6803237Y6741718D01*
X6821627Y6729984D01*
X6830822Y6725208D01*
X6834174Y6722364D01*
X6836054Y6718401D01*
X6836054Y6713981D01*
X6834174Y6710019D01*
X6830822Y6707174D01*
X6821627Y6702399D01*
X6803237Y6690664D01*
X6785864Y6677355D01*
X6769760Y6662572D01*
X6755028Y6646468D01*
X6741718Y6629146D01*
X6729984Y6610705D01*
X6726377Y6603796D01*
X6724040Y6600850D01*
X6720738Y6598920D01*
X6716979Y6598361D01*
X6713321Y6599174D01*
X6710172Y6601307D01*
X6523583Y6787896D01*
X6521399Y6791198D01*
X6520637Y6795058D01*
X6520535Y7197699D01*
X6519672Y7208621D01*
X6519214Y7211822D01*
X6517030Y7222591D01*
X6516166Y7225741D01*
X6512610Y7236104D01*
X6511340Y7239101D01*
X6504940Y7251801D01*
X6498894Y7260945D01*
X6496964Y7263536D01*
X6489801Y7271918D01*
X6392976Y7368794D01*
X6390690Y7372350D01*
X6390030Y7376515D01*
X6390792Y7391400D01*
X6389827Y7409942D01*
X6386982Y7428331D01*
X6382258Y7446264D01*
X6375704Y7463688D01*
X6367373Y7480300D01*
X6357416Y7495997D01*
X6345885Y7510525D01*
X6342989Y7514590D01*
X6342278Y7518400D01*
X6342989Y7522209D01*
X6345885Y7526223D01*
X6357416Y7540802D01*
X6367373Y7556500D01*
X6375704Y7573111D01*
X6382258Y7590485D01*
X6386982Y7608468D01*
X6389827Y7626858D01*
X6390792Y7645400D01*
X6389827Y7663942D01*
X6386982Y7682331D01*
X6382258Y7700264D01*
X6375704Y7717688D01*
X6367373Y7734300D01*
X6357416Y7749997D01*
X6345885Y7764525D01*
X6342989Y7768590D01*
X6342278Y7772400D01*
X6342989Y7776209D01*
X6345885Y7780223D01*
X6357416Y7794802D01*
X6367373Y7810500D01*
X6375704Y7827111D01*
X6382258Y7844485D01*
X6386982Y7862468D01*
X6389827Y7880858D01*
X6390792Y7899400D01*
X6389827Y7917942D01*
X6386982Y7936331D01*
X6382258Y7954264D01*
X6375704Y7971688D01*
X6367373Y7988300D01*
X6357416Y8003997D01*
X6345885Y8018525D01*
X6342989Y8022590D01*
X6342278Y8026400D01*
X6342989Y8030209D01*
X6345885Y8034223D01*
X6357416Y8048802D01*
X6367373Y8064500D01*
X6375704Y8081111D01*
X6382258Y8098485D01*
X6386982Y8116468D01*
X6389827Y8134858D01*
X6390792Y8153400D01*
X6389827Y8171942D01*
X6386982Y8190331D01*
X6382258Y8208264D01*
X6375704Y8225688D01*
X6367373Y8242300D01*
X6357416Y8257997D01*
X6345885Y8272525D01*
X6342989Y8276590D01*
X6342227Y8280400D01*
X6342989Y8284209D01*
X6345885Y8288274D01*
X6357416Y8302802D01*
X6367373Y8318500D01*
X6375704Y8335111D01*
X6382258Y8352536D01*
X6386982Y8370468D01*
X6389827Y8388858D01*
X6390792Y8407400D01*
X6389827Y8425942D01*
X6386982Y8444331D01*
X6382258Y8462314D01*
X6375704Y8479688D01*
X6367373Y8496300D01*
X6357416Y8511997D01*
X6345885Y8526576D01*
X6342989Y8530590D01*
X6342278Y8534400D01*
X6342989Y8538210D01*
X6345885Y8542223D01*
X6357416Y8556802D01*
X6367373Y8572500D01*
X6375704Y8589111D01*
X6382258Y8606485D01*
X6386982Y8624468D01*
X6389827Y8642858D01*
X6390792Y8661400D01*
X6389827Y8679942D01*
X6386982Y8698331D01*
X6382258Y8716314D01*
X6375704Y8733688D01*
X6367373Y8750300D01*
X6357416Y8765997D01*
X6345885Y8780576D01*
X6342989Y8784590D01*
X6342278Y8788400D01*
X6342989Y8792210D01*
X6345885Y8796223D01*
X6357416Y8810802D01*
X6367373Y8826500D01*
X6375704Y8843111D01*
X6382258Y8860485D01*
X6386982Y8878468D01*
X6389827Y8896858D01*
X6390792Y8915400D01*
X6389827Y8933942D01*
X6386982Y8952331D01*
X6382258Y8970314D01*
X6375704Y8987688D01*
X6367373Y9004300D01*
X6357416Y9019997D01*
X6345885Y9034576D01*
X6342989Y9038590D01*
X6342278Y9042400D01*
X6342989Y9046210D01*
X6345885Y9050223D01*
X6357416Y9064802D01*
X6367373Y9080500D01*
X6375704Y9097111D01*
X6382258Y9114485D01*
X6384493Y9123070D01*
X6256629Y9123070D01*
X6256629Y9102344D01*
X6255715Y9098026D01*
X6253022Y9094571D01*
X6249060Y9092539D01*
X6244691Y9092336D01*
X6233464Y9094419D01*
X6214922Y9095841D01*
X6196380Y9095333D01*
X6172809Y9092438D01*
X6169355Y9093555D01*
X6166459Y9095790D01*
X6164580Y9098940D01*
X6163970Y9102496D01*
X6163970Y9123070D01*
X6023356Y9123070D01*
X6020206Y9123527D01*
X6017412Y9124950D01*
X6013450Y9124950D01*
X6013450Y9098940D01*
X6012535Y9094673D01*
X6009894Y9091218D01*
X6006084Y9089136D01*
X6001715Y9088882D01*
X5987186Y9091168D01*
X5969000Y9092082D01*
X5950813Y9091168D01*
X5936284Y9088882D01*
X5931916Y9089136D01*
X5928106Y9091218D01*
X5925464Y9094673D01*
X5924550Y9098940D01*
X5924550Y9124950D01*
X5898642Y9124950D01*
X5895086Y9125610D01*
X5891936Y9127490D01*
X5889701Y9130334D01*
X5888583Y9133789D01*
X5888837Y9137700D01*
X5891174Y9155785D01*
X5891631Y9173972D01*
X5890209Y9192107D01*
X5888431Y9201861D01*
X5888634Y9206280D01*
X5890666Y9210192D01*
X5894120Y9212884D01*
X5898438Y9213850D01*
X5924550Y9213850D01*
X5924550Y9239910D01*
X5925515Y9244279D01*
X5928309Y9247784D01*
X5932322Y9249765D01*
X5936792Y9249867D01*
X5941822Y9248800D01*
X5959906Y9246920D01*
X5978093Y9246920D01*
X5996178Y9248800D01*
X6001207Y9249867D01*
X6005677Y9249765D01*
X6009690Y9247784D01*
X6012484Y9244279D01*
X6013450Y9239910D01*
X6013450Y9213850D01*
X6017412Y9213850D01*
X6020206Y9215272D01*
X6023356Y9215729D01*
X6163970Y9215729D01*
X6163970Y9236303D01*
X6164580Y9239859D01*
X6166459Y9243009D01*
X6169355Y9245244D01*
X6172809Y9246362D01*
X6196380Y9243466D01*
X6214922Y9242958D01*
X6233464Y9244380D01*
X6244691Y9246463D01*
X6249060Y9246260D01*
X6253022Y9244228D01*
X6255715Y9240774D01*
X6256629Y9236456D01*
X6256629Y9215729D01*
X6384493Y9215729D01*
X6382258Y9224314D01*
X6375704Y9241688D01*
X6367373Y9258300D01*
X6357416Y9273997D01*
X6345885Y9288576D01*
X6342989Y9292590D01*
X6342278Y9296400D01*
X6342989Y9300210D01*
X6345885Y9304223D01*
X6357416Y9318802D01*
X6367373Y9334500D01*
X6375704Y9351111D01*
X6382258Y9368485D01*
X6386982Y9386468D01*
X6389827Y9404858D01*
X6390792Y9423400D01*
X6389827Y9441942D01*
X6386982Y9460331D01*
X6382258Y9478314D01*
X6375704Y9495688D01*
X6367373Y9512300D01*
X6361430Y9521647D01*
X6359956Y9525711D01*
X6360261Y9529978D01*
X6362293Y9533737D01*
X6365748Y9536328D01*
X6369964Y9537293D01*
X6455257Y9537700D01*
X8483498Y9537700D01*
X8487816Y9536734D01*
X8491270Y9534042D01*
X8493302Y9530080D01*
X8493455Y9525660D01*
X8491728Y9521596D01*
X8488426Y9518650D01*
X8479180Y9513519D01*
X8462010Y9501733D01*
X8446008Y9488424D01*
X8431276Y9473692D01*
X8417966Y9457690D01*
X8406180Y9440519D01*
X8396020Y9422333D01*
X8387638Y9403283D01*
X8381034Y9383522D01*
X8376259Y9363252D01*
X8373364Y9342628D01*
X8372398Y9321800D01*
X8373364Y9300972D01*
X8376259Y9280347D01*
X8381034Y9260078D01*
X8387638Y9240316D01*
X8396020Y9221266D01*
X8406180Y9203080D01*
X8417966Y9185910D01*
X8431276Y9169908D01*
X8446008Y9155176D01*
X8462010Y9141866D01*
X8479180Y9130080D01*
X8497366Y9119920D01*
X8516416Y9111538D01*
X8536178Y9104934D01*
X8556447Y9100159D01*
X8577072Y9097264D01*
X8597900Y9096298D01*
X8618728Y9097264D01*
X8639352Y9100159D01*
X8659622Y9104934D01*
X8679383Y9111538D01*
X8698433Y9119920D01*
X8716619Y9130080D01*
X8733790Y9141866D01*
X8749792Y9155176D01*
X8764524Y9169908D01*
X8777833Y9185910D01*
X8784183Y9195155D01*
X8787282Y9198102D01*
X8791295Y9199473D01*
X8795562Y9199118D01*
X8799271Y9197035D01*
X8801811Y9193631D01*
X8802725Y9189466D01*
X8850376Y-1027379D01*
X8849512Y-1031494D01*
X8847074Y-1034897D01*
X8843467Y-1037031D01*
X8839301Y-1037539D01*
X8835237Y-1036319D01*
X8832088Y-1033576D01*
X8830310Y-1029766D01*
X8827465Y-1017778D01*
X8820861Y-998016D01*
X8812479Y-978966D01*
X8802319Y-960780D01*
X8790533Y-943610D01*
X8777224Y-927608D01*
X8762492Y-912876D01*
X8746490Y-899566D01*
X8729319Y-887780D01*
X8711133Y-877620D01*
X8692083Y-869238D01*
X8672322Y-862634D01*
X8652052Y-857859D01*
X8631428Y-854964D01*
X8610600Y-853998D01*
X8589772Y-854964D01*
X8569147Y-857859D01*
X8548878Y-862634D01*
X8529116Y-869238D01*
X8510066Y-877620D01*
X8491880Y-887780D01*
X8474710Y-899566D01*
X8458708Y-912876D01*
X8443976Y-927608D01*
X8430666Y-943610D01*
X8418880Y-960780D01*
X8408720Y-978966D01*
X8400338Y-998016D01*
X8393734Y-1017778D01*
X8388959Y-1038047D01*
X8386064Y-1058672D01*
X8385098Y-1079500D01*
X8386064Y-1100328D01*
X8388959Y-1120952D01*
X8393734Y-1141222D01*
X8400338Y-1160983D01*
X8408720Y-1180033D01*
X8418880Y-1198219D01*
X8430666Y-1215390D01*
X8443976Y-1231392D01*
X8458708Y-1246124D01*
X8474710Y-1259433D01*
X8491880Y-1271219D01*
X8510066Y-1281379D01*
X8529116Y-1289761D01*
X8548878Y-1296365D01*
X8569147Y-1301140D01*
X8589772Y-1304036D01*
X8610600Y-1305001D01*
X8631428Y-1304036D01*
X8652052Y-1301140D01*
X8672322Y-1296365D01*
X8692083Y-1289761D01*
X8711133Y-1281379D01*
X8729319Y-1271219D01*
X8746490Y-1259433D01*
X8762492Y-1246124D01*
X8777224Y-1231392D01*
X8790533Y-1215390D01*
X8802319Y-1198219D01*
X8812479Y-1180033D01*
X8820861Y-1160983D01*
X8827465Y-1141222D01*
X8830767Y-1127201D01*
X8832545Y-1123442D01*
X8835694Y-1120698D01*
X8839708Y-1119428D01*
X8843873Y-1119886D01*
X8847480Y-1122019D01*
X8849969Y-1125423D01*
X8850833Y-1129487D01*
X8851392Y-1249934D01*
X8851392Y-1333855D01*
X8850630Y-1337767D01*
X8848394Y-1341069D01*
X8845143Y-1343253D01*
X8841232Y-1344015D01*
X8837320Y-1343253D01*
X8834069Y-1341069D01*
X8827211Y-1334211D01*
X8825484Y-1333500D01*
X8802116Y-1333500D01*
X8800388Y-1334211D01*
X8779205Y-1355394D01*
X8775903Y-1357630D01*
X8771991Y-1358392D01*
G37*

%LPC*%
G36*
X2798876Y-557631D02*
G01*
X2818384Y-556209D01*
X2837586Y-552958D01*
X2856433Y-547827D01*
X2874721Y-540867D01*
X2892196Y-532231D01*
X2908808Y-521919D01*
X2924302Y-510082D01*
X2938627Y-496773D01*
X2951581Y-482142D01*
X2963062Y-466343D01*
X2972968Y-449529D01*
X2981198Y-431800D01*
X2987649Y-413410D01*
X2992323Y-394411D01*
X2995168Y-375107D01*
X2996082Y-355600D01*
X2995168Y-336092D01*
X2992323Y-316788D01*
X2987649Y-297789D01*
X2981198Y-279400D01*
X2972968Y-261670D01*
X2963062Y-244856D01*
X2951581Y-229057D01*
X2938627Y-214426D01*
X2924302Y-201117D01*
X2908808Y-189280D01*
X2892196Y-178968D01*
X2874721Y-170332D01*
X2856433Y-163372D01*
X2837586Y-158242D01*
X2818384Y-154990D01*
X2798876Y-153568D01*
X2779369Y-154025D01*
X2759964Y-156413D01*
X2740914Y-160578D01*
X2722321Y-166624D01*
X2704439Y-174447D01*
X2687370Y-183946D01*
X2671318Y-195021D01*
X2656382Y-207619D01*
X2642717Y-221589D01*
X2630525Y-236829D01*
X2619806Y-253136D01*
X2610713Y-270459D01*
X2603347Y-288544D01*
X2597759Y-307238D01*
X2594000Y-326390D01*
X2592120Y-345846D01*
X2592120Y-365353D01*
X2594000Y-384810D01*
X2597759Y-403961D01*
X2603347Y-422656D01*
X2610713Y-440740D01*
X2619806Y-458063D01*
X2630525Y-474370D01*
X2642717Y-489610D01*
X2656382Y-503580D01*
X2671318Y-516178D01*
X2687370Y-527253D01*
X2704439Y-536752D01*
X2722321Y-544576D01*
X2740914Y-550621D01*
X2759964Y-554786D01*
X2779369Y-557174D01*
G37*
G36*
X1828800Y-550062D02*
G01*
X1847850Y-549148D01*
X1866747Y-546354D01*
X1885238Y-541680D01*
X1903222Y-535279D01*
X1920493Y-527100D01*
X1936851Y-517296D01*
X1949754Y-507746D01*
X1953666Y-505968D01*
X1957933Y-505968D01*
X1961845Y-507746D01*
X1974748Y-517296D01*
X1991106Y-527100D01*
X2008378Y-535279D01*
X2026361Y-541680D01*
X2029460Y-542493D01*
X2029460Y-408940D01*
X2025091Y-408279D01*
X2021941Y-406400D01*
X2019706Y-403504D01*
X2018588Y-399999D01*
X2018842Y-396290D01*
X2019554Y-393547D01*
X2022348Y-374650D01*
X2023262Y-355600D01*
X2022348Y-336550D01*
X2019554Y-317652D01*
X2018842Y-314909D01*
X2018588Y-311200D01*
X2019706Y-307695D01*
X2021941Y-304850D01*
X2025091Y-302920D01*
X2029460Y-302260D01*
X2029460Y-168706D01*
X2026361Y-169519D01*
X2008378Y-175920D01*
X1991106Y-184099D01*
X1974748Y-193903D01*
X1961845Y-203454D01*
X1957933Y-205232D01*
X1953666Y-205232D01*
X1949754Y-203454D01*
X1936851Y-193903D01*
X1920493Y-184099D01*
X1903222Y-175920D01*
X1885238Y-169519D01*
X1866747Y-164846D01*
X1847850Y-162052D01*
X1828800Y-161137D01*
X1809750Y-162052D01*
X1790852Y-164846D01*
X1772361Y-169519D01*
X1754378Y-175920D01*
X1737106Y-184099D01*
X1720748Y-193903D01*
X1705406Y-205282D01*
X1691284Y-218084D01*
X1678482Y-232206D01*
X1667103Y-247548D01*
X1657299Y-263906D01*
X1649120Y-281178D01*
X1642719Y-299161D01*
X1638046Y-317652D01*
X1635251Y-336550D01*
X1634337Y-355600D01*
X1635251Y-374650D01*
X1638046Y-393547D01*
X1642719Y-412038D01*
X1649120Y-430022D01*
X1657299Y-447293D01*
X1667103Y-463651D01*
X1678482Y-478993D01*
X1691284Y-493115D01*
X1705406Y-505917D01*
X1720748Y-517296D01*
X1737106Y-527100D01*
X1754378Y-535279D01*
X1772361Y-541680D01*
X1790852Y-546354D01*
X1809750Y-549148D01*
G37*
G36*
X2136140Y-542493D02*
G01*
X2139238Y-541680D01*
X2157222Y-535279D01*
X2174494Y-527100D01*
X2190851Y-517296D01*
X2206193Y-505917D01*
X2220315Y-493115D01*
X2233117Y-478993D01*
X2244496Y-463651D01*
X2254300Y-447293D01*
X2262479Y-430022D01*
X2268880Y-412038D01*
X2269693Y-408940D01*
X2136140Y-408940D01*
G37*
G36*
X2136140Y-302260D02*
G01*
X2269693Y-302260D01*
X2268880Y-299161D01*
X2262479Y-281178D01*
X2254300Y-263906D01*
X2244496Y-247548D01*
X2233117Y-232206D01*
X2220315Y-218084D01*
X2206193Y-205282D01*
X2190851Y-193903D01*
X2174494Y-184099D01*
X2157222Y-175920D01*
X2139238Y-169519D01*
X2136140Y-168706D01*
G37*
G36*
X1816100Y300837D02*
G01*
X1835150Y301752D01*
X1854047Y304546D01*
X1872538Y309219D01*
X1890522Y315620D01*
X1907793Y323799D01*
X1924151Y333603D01*
X1937054Y343154D01*
X1940966Y344932D01*
X1945233Y344932D01*
X1949145Y343154D01*
X1962048Y333603D01*
X1978406Y323799D01*
X1995678Y315620D01*
X2013661Y309219D01*
X2016760Y308406D01*
X2016760Y441959D01*
X2012391Y442620D01*
X2009241Y444500D01*
X2007006Y447395D01*
X2005888Y450900D01*
X2006142Y454609D01*
X2006854Y457352D01*
X2009648Y476250D01*
X2010562Y495300D01*
X2009648Y514350D01*
X2006854Y533247D01*
X2006142Y535990D01*
X2005888Y539699D01*
X2007006Y543204D01*
X2009241Y546049D01*
X2012391Y547979D01*
X2016760Y548640D01*
X2016760Y682193D01*
X2013661Y681380D01*
X1995678Y674979D01*
X1978406Y666800D01*
X1962048Y656996D01*
X1949145Y647446D01*
X1945233Y645668D01*
X1940966Y645668D01*
X1937054Y647446D01*
X1924151Y656996D01*
X1907793Y666800D01*
X1890522Y674979D01*
X1872538Y681380D01*
X1854047Y686054D01*
X1835150Y688848D01*
X1816100Y689762D01*
X1797050Y688848D01*
X1778152Y686054D01*
X1759661Y681380D01*
X1741678Y674979D01*
X1724406Y666800D01*
X1708048Y656996D01*
X1692706Y645617D01*
X1678584Y632815D01*
X1665782Y618693D01*
X1654403Y603351D01*
X1644599Y586994D01*
X1636420Y569722D01*
X1630019Y551738D01*
X1625346Y533247D01*
X1622552Y514350D01*
X1621637Y495300D01*
X1622552Y476250D01*
X1625346Y457352D01*
X1630019Y438861D01*
X1636420Y420878D01*
X1644599Y403606D01*
X1654403Y387248D01*
X1665782Y371906D01*
X1678584Y357784D01*
X1692706Y344982D01*
X1708048Y333603D01*
X1724406Y323799D01*
X1741678Y315620D01*
X1759661Y309219D01*
X1778152Y304546D01*
X1797050Y301752D01*
G37*
G36*
X2123440Y308406D02*
G01*
X2126538Y309219D01*
X2144522Y315620D01*
X2161794Y323799D01*
X2178151Y333603D01*
X2193493Y344982D01*
X2207615Y357784D01*
X2220417Y371906D01*
X2231796Y387248D01*
X2241600Y403606D01*
X2249779Y420878D01*
X2256180Y438861D01*
X2256993Y441959D01*
X2123440Y441959D01*
G37*
G36*
X2811576Y318668D02*
G01*
X2831084Y320090D01*
X2850286Y323342D01*
X2869133Y328472D01*
X2887421Y335432D01*
X2904896Y344068D01*
X2921508Y354380D01*
X2937002Y366217D01*
X2951327Y379526D01*
X2964281Y394157D01*
X2975762Y409956D01*
X2985668Y426770D01*
X2993898Y444500D01*
X3000349Y462889D01*
X3005023Y481888D01*
X3007868Y501192D01*
X3008782Y520700D01*
X3007868Y540207D01*
X3005023Y559511D01*
X3000349Y578510D01*
X2993898Y596900D01*
X2985668Y614629D01*
X2975762Y631444D01*
X2964281Y647242D01*
X2951327Y661873D01*
X2937002Y675182D01*
X2921508Y687019D01*
X2904896Y697331D01*
X2887421Y705967D01*
X2869133Y712927D01*
X2850286Y718058D01*
X2831084Y721309D01*
X2811576Y722731D01*
X2792069Y722274D01*
X2772664Y719886D01*
X2753614Y715721D01*
X2735021Y709676D01*
X2717139Y701852D01*
X2700070Y692353D01*
X2684018Y681278D01*
X2669082Y668680D01*
X2655417Y654710D01*
X2643225Y639470D01*
X2632506Y623163D01*
X2623413Y605840D01*
X2616047Y587756D01*
X2610459Y569061D01*
X2606700Y549910D01*
X2604820Y530453D01*
X2604820Y510946D01*
X2606700Y491490D01*
X2610459Y472338D01*
X2616047Y453643D01*
X2623413Y435559D01*
X2632506Y418236D01*
X2643225Y401929D01*
X2655417Y386689D01*
X2669082Y372719D01*
X2684018Y360121D01*
X2700070Y349046D01*
X2717139Y339547D01*
X2735021Y331724D01*
X2753614Y325678D01*
X2772664Y321513D01*
X2792069Y319125D01*
G37*
G36*
X2123440Y548640D02*
G01*
X2256993Y548640D01*
X2256180Y551738D01*
X2249779Y569722D01*
X2241600Y586994D01*
X2231796Y603351D01*
X2220417Y618693D01*
X2207615Y632815D01*
X2193493Y645617D01*
X2178151Y656996D01*
X2161794Y666800D01*
X2144522Y674979D01*
X2126538Y681380D01*
X2123440Y682193D01*
G37*
G36*
X1816100Y1189837D02*
G01*
X1835150Y1190752D01*
X1854047Y1193546D01*
X1872538Y1198219D01*
X1890522Y1204620D01*
X1907793Y1212799D01*
X1924151Y1222603D01*
X1937054Y1232154D01*
X1940966Y1233932D01*
X1945233Y1233932D01*
X1949145Y1232154D01*
X1962048Y1222603D01*
X1978406Y1212799D01*
X1995678Y1204620D01*
X2013661Y1198219D01*
X2016760Y1197406D01*
X2016760Y1330960D01*
X2012391Y1331620D01*
X2009241Y1333500D01*
X2007006Y1336395D01*
X2005888Y1339900D01*
X2006142Y1343609D01*
X2006854Y1346352D01*
X2009648Y1365250D01*
X2010562Y1384300D01*
X2009648Y1403350D01*
X2006854Y1422247D01*
X2006142Y1424990D01*
X2005888Y1428699D01*
X2007006Y1432204D01*
X2009241Y1435049D01*
X2012391Y1436979D01*
X2016760Y1437640D01*
X2016760Y1571193D01*
X2013661Y1570380D01*
X1995678Y1563979D01*
X1978406Y1555800D01*
X1962048Y1545996D01*
X1949145Y1536446D01*
X1945233Y1534668D01*
X1940966Y1534668D01*
X1937054Y1536446D01*
X1924151Y1545996D01*
X1907793Y1555800D01*
X1890522Y1563979D01*
X1872538Y1570380D01*
X1854047Y1575054D01*
X1835150Y1577848D01*
X1816100Y1578762D01*
X1797050Y1577848D01*
X1778152Y1575054D01*
X1759661Y1570380D01*
X1741678Y1563979D01*
X1724406Y1555800D01*
X1708048Y1545996D01*
X1692706Y1534617D01*
X1678584Y1521815D01*
X1665782Y1507693D01*
X1654403Y1492351D01*
X1644599Y1475994D01*
X1636420Y1458722D01*
X1630019Y1440738D01*
X1625346Y1422247D01*
X1622552Y1403350D01*
X1621637Y1384300D01*
X1622552Y1365250D01*
X1625346Y1346352D01*
X1630019Y1327861D01*
X1636420Y1309878D01*
X1644599Y1292606D01*
X1654403Y1276248D01*
X1665782Y1260906D01*
X1678584Y1246784D01*
X1692706Y1233982D01*
X1708048Y1222603D01*
X1724406Y1212799D01*
X1741678Y1204620D01*
X1759661Y1198219D01*
X1778152Y1193546D01*
X1797050Y1190752D01*
G37*
G36*
X2811576Y1194968D02*
G01*
X2831084Y1196390D01*
X2850286Y1199642D01*
X2869133Y1204772D01*
X2887421Y1211732D01*
X2904896Y1220368D01*
X2921508Y1230680D01*
X2937002Y1242517D01*
X2951327Y1255826D01*
X2964281Y1270457D01*
X2975762Y1286256D01*
X2985668Y1303070D01*
X2993898Y1320800D01*
X3000349Y1339189D01*
X3005023Y1358188D01*
X3007868Y1377492D01*
X3008782Y1397000D01*
X3007868Y1416507D01*
X3005023Y1435811D01*
X3000349Y1454810D01*
X2993898Y1473200D01*
X2985668Y1490929D01*
X2975762Y1507744D01*
X2964281Y1523542D01*
X2951327Y1538173D01*
X2937002Y1551482D01*
X2921508Y1563319D01*
X2904896Y1573631D01*
X2887421Y1582267D01*
X2869133Y1589227D01*
X2850286Y1594358D01*
X2831084Y1597609D01*
X2811576Y1599031D01*
X2792069Y1598574D01*
X2772664Y1596186D01*
X2753614Y1592021D01*
X2735021Y1585976D01*
X2717139Y1578152D01*
X2700070Y1568653D01*
X2684018Y1557578D01*
X2669082Y1544980D01*
X2655417Y1531010D01*
X2643225Y1515770D01*
X2632506Y1499463D01*
X2623413Y1482140D01*
X2616047Y1464056D01*
X2610459Y1445361D01*
X2606700Y1426210D01*
X2604820Y1406753D01*
X2604820Y1387246D01*
X2606700Y1367790D01*
X2610459Y1348638D01*
X2616047Y1329944D01*
X2623413Y1311859D01*
X2632506Y1294536D01*
X2643225Y1278229D01*
X2655417Y1262989D01*
X2669082Y1249019D01*
X2684018Y1236421D01*
X2700070Y1225346D01*
X2717139Y1215847D01*
X2735021Y1208024D01*
X2753614Y1201978D01*
X2772664Y1197813D01*
X2792069Y1195425D01*
G37*
G36*
X2123440Y1197406D02*
G01*
X2126538Y1198219D01*
X2144522Y1204620D01*
X2161794Y1212799D01*
X2178151Y1222603D01*
X2193493Y1233982D01*
X2207615Y1246784D01*
X2220417Y1260906D01*
X2231796Y1276248D01*
X2241600Y1292606D01*
X2249779Y1309878D01*
X2256180Y1327861D01*
X2256993Y1330960D01*
X2123440Y1330960D01*
G37*
G36*
X2123440Y1437640D02*
G01*
X2256993Y1437640D01*
X2256180Y1440738D01*
X2249779Y1458722D01*
X2241600Y1475994D01*
X2231796Y1492351D01*
X2220417Y1507693D01*
X2207615Y1521815D01*
X2193493Y1534617D01*
X2178151Y1545996D01*
X2161794Y1555800D01*
X2144522Y1563979D01*
X2126538Y1570380D01*
X2123440Y1571193D01*
G37*
G36*
X6985000Y1667205D02*
G01*
X7006844Y1668170D01*
X7028484Y1671015D01*
X7049820Y1675739D01*
X7070699Y1682292D01*
X7090867Y1690674D01*
X7110272Y1700784D01*
X7128662Y1712518D01*
X7146036Y1725828D01*
X7162139Y1740560D01*
X7176871Y1756664D01*
X7190181Y1774037D01*
X7201916Y1792427D01*
X7212025Y1811832D01*
X7220407Y1832000D01*
X7226960Y1852879D01*
X7231684Y1874215D01*
X7234529Y1895856D01*
X7235494Y1917700D01*
X7234529Y1939543D01*
X7231684Y1961184D01*
X7226960Y1982520D01*
X7220407Y2003399D01*
X7212025Y2023567D01*
X7201916Y2042972D01*
X7190181Y2061362D01*
X7176871Y2078736D01*
X7162139Y2094839D01*
X7146036Y2109571D01*
X7128662Y2122881D01*
X7125309Y2125014D01*
X7122414Y2127859D01*
X7120839Y2131568D01*
X7120839Y2135632D01*
X7122414Y2139340D01*
X7125309Y2142185D01*
X7128662Y2144318D01*
X7146036Y2157628D01*
X7162139Y2172360D01*
X7176871Y2188464D01*
X7190181Y2205837D01*
X7201916Y2224227D01*
X7212025Y2243632D01*
X7220407Y2263800D01*
X7226960Y2284679D01*
X7231684Y2306015D01*
X7234529Y2327656D01*
X7235494Y2349500D01*
X7234529Y2371344D01*
X7231684Y2392984D01*
X7226960Y2414320D01*
X7220407Y2435199D01*
X7212025Y2455367D01*
X7201916Y2474772D01*
X7190181Y2493162D01*
X7176871Y2510536D01*
X7162139Y2526639D01*
X7146036Y2541371D01*
X7139736Y2546197D01*
X7137196Y2549093D01*
X7135875Y2552750D01*
X7136079Y2556611D01*
X7137653Y2560167D01*
X7141362Y2563418D01*
X7158736Y2576728D01*
X7174839Y2591460D01*
X7189571Y2607564D01*
X7202881Y2624937D01*
X7214616Y2643327D01*
X7224725Y2662732D01*
X7233107Y2682900D01*
X7239660Y2703779D01*
X7244384Y2725115D01*
X7247229Y2746756D01*
X7248194Y2768600D01*
X7247229Y2790444D01*
X7244384Y2812084D01*
X7239660Y2833420D01*
X7233107Y2854299D01*
X7224725Y2874467D01*
X7214616Y2893872D01*
X7202881Y2912262D01*
X7189571Y2929636D01*
X7174839Y2945739D01*
X7158736Y2960471D01*
X7146188Y2970072D01*
X7143750Y2972816D01*
X7142429Y2976321D01*
X7142429Y2979978D01*
X7143750Y2983433D01*
X7146188Y2986227D01*
X7158736Y2995828D01*
X7174839Y3010560D01*
X7189571Y3026664D01*
X7202881Y3044037D01*
X7214616Y3062427D01*
X7224725Y3081832D01*
X7233107Y3102000D01*
X7239660Y3122879D01*
X7244384Y3144215D01*
X7247229Y3165856D01*
X7248194Y3187700D01*
X7247229Y3209544D01*
X7244384Y3231184D01*
X7239660Y3252520D01*
X7233107Y3273399D01*
X7224725Y3293567D01*
X7214616Y3312972D01*
X7202881Y3331362D01*
X7189571Y3348736D01*
X7174839Y3364839D01*
X7158736Y3379571D01*
X7141362Y3392881D01*
X7122972Y3404615D01*
X7103567Y3414725D01*
X7083399Y3423107D01*
X7062520Y3429660D01*
X7041184Y3434384D01*
X7019544Y3437229D01*
X6997700Y3438194D01*
X6975856Y3437229D01*
X6954215Y3434384D01*
X6932879Y3429660D01*
X6912000Y3423107D01*
X6891832Y3414725D01*
X6872427Y3404615D01*
X6854037Y3392881D01*
X6836664Y3379571D01*
X6820560Y3364839D01*
X6805828Y3348736D01*
X6792518Y3331362D01*
X6780784Y3312972D01*
X6770674Y3293567D01*
X6762292Y3273399D01*
X6755739Y3252520D01*
X6751015Y3231184D01*
X6748170Y3209544D01*
X6747205Y3187700D01*
X6748170Y3165856D01*
X6751015Y3144215D01*
X6755739Y3122879D01*
X6762292Y3102000D01*
X6770674Y3081832D01*
X6780784Y3062427D01*
X6792518Y3044037D01*
X6805828Y3026664D01*
X6820560Y3010560D01*
X6836664Y2995828D01*
X6849211Y2986227D01*
X6851650Y2983433D01*
X6852970Y2979978D01*
X6852970Y2976321D01*
X6851650Y2972816D01*
X6849211Y2970072D01*
X6836664Y2960471D01*
X6820560Y2945739D01*
X6805828Y2929636D01*
X6792518Y2912262D01*
X6780784Y2893872D01*
X6770674Y2874467D01*
X6762292Y2854299D01*
X6755739Y2833420D01*
X6751015Y2812084D01*
X6748170Y2790444D01*
X6747205Y2768600D01*
X6748170Y2746756D01*
X6751015Y2725115D01*
X6755739Y2703779D01*
X6762292Y2682900D01*
X6770674Y2662732D01*
X6780784Y2643327D01*
X6792518Y2624937D01*
X6805828Y2607564D01*
X6820560Y2591460D01*
X6836664Y2576728D01*
X6842963Y2571902D01*
X6845503Y2569006D01*
X6846824Y2565349D01*
X6846620Y2561488D01*
X6845046Y2557932D01*
X6841337Y2554681D01*
X6823964Y2541371D01*
X6807860Y2526639D01*
X6793128Y2510536D01*
X6779818Y2493162D01*
X6768084Y2474772D01*
X6757974Y2455367D01*
X6749592Y2435199D01*
X6743039Y2414320D01*
X6738315Y2392984D01*
X6735470Y2371344D01*
X6734505Y2349500D01*
X6735470Y2327656D01*
X6738315Y2306015D01*
X6743039Y2284679D01*
X6749592Y2263800D01*
X6757974Y2243632D01*
X6768084Y2224227D01*
X6779818Y2205837D01*
X6793128Y2188464D01*
X6807860Y2172360D01*
X6823964Y2157628D01*
X6841337Y2144318D01*
X6844690Y2142185D01*
X6847586Y2139340D01*
X6849160Y2135632D01*
X6849160Y2131568D01*
X6847586Y2127859D01*
X6844690Y2125014D01*
X6841337Y2122881D01*
X6823964Y2109571D01*
X6807860Y2094839D01*
X6793128Y2078736D01*
X6779818Y2061362D01*
X6768084Y2042972D01*
X6757974Y2023567D01*
X6749592Y2003399D01*
X6743039Y1982520D01*
X6738315Y1961184D01*
X6735470Y1939543D01*
X6734505Y1917700D01*
X6735470Y1895856D01*
X6738315Y1874215D01*
X6743039Y1852879D01*
X6749592Y1832000D01*
X6757974Y1811832D01*
X6768084Y1792427D01*
X6779818Y1774037D01*
X6793128Y1756664D01*
X6807860Y1740560D01*
X6823964Y1725828D01*
X6841337Y1712518D01*
X6859727Y1700784D01*
X6879132Y1690674D01*
X6899300Y1682292D01*
X6920179Y1675739D01*
X6941515Y1671015D01*
X6963156Y1668170D01*
G37*
G36*
X7708900Y1667205D02*
G01*
X7730744Y1668170D01*
X7752384Y1671015D01*
X7773720Y1675739D01*
X7794599Y1682292D01*
X7814767Y1690674D01*
X7834172Y1700784D01*
X7852562Y1712518D01*
X7869936Y1725828D01*
X7886039Y1740560D01*
X7900771Y1756664D01*
X7914081Y1774037D01*
X7925816Y1792427D01*
X7935925Y1811832D01*
X7941919Y1826260D01*
X7944002Y1829460D01*
X7947101Y1831644D01*
X7950809Y1832508D01*
X7954619Y1831949D01*
X7957921Y1830070D01*
X7960309Y1827072D01*
X7966506Y1815236D01*
X7977225Y1798929D01*
X7989417Y1783689D01*
X8003082Y1769719D01*
X8018018Y1757121D01*
X8034070Y1746046D01*
X8051139Y1736547D01*
X8069021Y1728724D01*
X8083550Y1723999D01*
X8083550Y1860550D01*
X7965236Y1860550D01*
X7960817Y1861566D01*
X7957312Y1864360D01*
X7955330Y1868424D01*
X7955330Y1872894D01*
X7958429Y1895856D01*
X7959394Y1917700D01*
X7958429Y1939543D01*
X7955330Y1962505D01*
X7955330Y1966975D01*
X7957312Y1971039D01*
X7960817Y1973834D01*
X7965236Y1974850D01*
X8083550Y1974850D01*
X8083550Y2111400D01*
X8069021Y2106676D01*
X8051139Y2098852D01*
X8034070Y2089353D01*
X8018018Y2078278D01*
X8003082Y2065680D01*
X7989417Y2051710D01*
X7977225Y2036470D01*
X7966506Y2020163D01*
X7960309Y2008327D01*
X7957921Y2005330D01*
X7954619Y2003450D01*
X7950809Y2002891D01*
X7947101Y2003755D01*
X7944002Y2005939D01*
X7941919Y2009139D01*
X7935925Y2023567D01*
X7925816Y2042972D01*
X7914081Y2061362D01*
X7900771Y2078736D01*
X7886039Y2094839D01*
X7869936Y2109571D01*
X7854594Y2121357D01*
X7852054Y2124252D01*
X7850733Y2127910D01*
X7850936Y2131771D01*
X7852511Y2135276D01*
X7855356Y2137968D01*
X7865262Y2144318D01*
X7882636Y2157628D01*
X7898739Y2172360D01*
X7913471Y2188464D01*
X7926781Y2205837D01*
X7938516Y2224227D01*
X7946136Y2238806D01*
X7948930Y2242210D01*
X7952943Y2244039D01*
X7957312Y2244039D01*
X7961274Y2242210D01*
X7964119Y2238857D01*
X7966506Y2234336D01*
X7977225Y2218029D01*
X7989417Y2202789D01*
X8003082Y2188819D01*
X8018018Y2176221D01*
X8034070Y2165146D01*
X8051139Y2155647D01*
X8069021Y2147824D01*
X8083550Y2143099D01*
X8083550Y2279650D01*
X7975092Y2279650D01*
X7970723Y2280666D01*
X7967167Y2283460D01*
X7965236Y2287524D01*
X7965186Y2291994D01*
X7968284Y2306015D01*
X7971129Y2327656D01*
X7972094Y2349500D01*
X7971129Y2371344D01*
X7969656Y2382469D01*
X7970012Y2386736D01*
X7972094Y2390495D01*
X7975549Y2393035D01*
X7979765Y2393950D01*
X8083550Y2393950D01*
X8083550Y2530500D01*
X8069021Y2525776D01*
X8051139Y2517952D01*
X8034070Y2508453D01*
X8018018Y2497378D01*
X8003082Y2484780D01*
X7989417Y2470810D01*
X7977225Y2455570D01*
X7970164Y2444851D01*
X7967065Y2441803D01*
X7962900Y2440330D01*
X7958581Y2440736D01*
X7954772Y2442972D01*
X7952282Y2446528D01*
X7948625Y2455367D01*
X7938516Y2474772D01*
X7926781Y2493162D01*
X7913471Y2510536D01*
X7898739Y2526639D01*
X7882636Y2541371D01*
X7870088Y2550972D01*
X7867650Y2553716D01*
X7866329Y2557221D01*
X7866329Y2560878D01*
X7867650Y2564333D01*
X7870088Y2567127D01*
X7882636Y2576728D01*
X7898739Y2591460D01*
X7913471Y2607564D01*
X7926781Y2624937D01*
X7938516Y2643327D01*
X7948625Y2662732D01*
X7952282Y2671572D01*
X7954772Y2675128D01*
X7958581Y2677363D01*
X7962900Y2677769D01*
X7967065Y2676296D01*
X7970164Y2673248D01*
X7977225Y2662529D01*
X7989417Y2647289D01*
X8003082Y2633319D01*
X8018018Y2620721D01*
X8034070Y2609646D01*
X8051139Y2600147D01*
X8069021Y2592324D01*
X8083550Y2587599D01*
X8083550Y2724150D01*
X7979765Y2724150D01*
X7975549Y2725064D01*
X7972094Y2727604D01*
X7970012Y2731363D01*
X7969656Y2735630D01*
X7971129Y2746756D01*
X7972094Y2768600D01*
X7971129Y2790444D01*
X7968284Y2812084D01*
X7965186Y2826105D01*
X7965236Y2830576D01*
X7967167Y2834640D01*
X7970723Y2837434D01*
X7975092Y2838450D01*
X8083550Y2838450D01*
X8083550Y2975000D01*
X8069021Y2970276D01*
X8051139Y2962452D01*
X8034070Y2952953D01*
X8018018Y2941878D01*
X8003082Y2929280D01*
X7989417Y2915310D01*
X7977225Y2900070D01*
X7966506Y2883763D01*
X7964119Y2879242D01*
X7961274Y2875889D01*
X7957312Y2874060D01*
X7952943Y2874060D01*
X7948930Y2875889D01*
X7946136Y2879293D01*
X7938516Y2893872D01*
X7926781Y2912262D01*
X7913471Y2929636D01*
X7898739Y2945739D01*
X7882636Y2960471D01*
X7870088Y2970072D01*
X7867650Y2972816D01*
X7866329Y2976321D01*
X7866329Y2979978D01*
X7867650Y2983433D01*
X7870088Y2986227D01*
X7882636Y2995828D01*
X7898739Y3010560D01*
X7913471Y3026664D01*
X7926781Y3044037D01*
X7938516Y3062427D01*
X7948625Y3081832D01*
X7955483Y3098444D01*
X7958023Y3102051D01*
X7961782Y3104235D01*
X7966151Y3104642D01*
X7970266Y3103168D01*
X7973415Y3100120D01*
X7977225Y3094329D01*
X7989417Y3079089D01*
X8003082Y3065119D01*
X8018018Y3052521D01*
X8034070Y3041446D01*
X8051139Y3031947D01*
X8069021Y3024124D01*
X8083550Y3019399D01*
X8083550Y3155950D01*
X7981340Y3155950D01*
X7977327Y3156762D01*
X7973974Y3159099D01*
X7971840Y3162554D01*
X7971180Y3166567D01*
X7972094Y3187700D01*
X7971129Y3209544D01*
X7968284Y3231184D01*
X7963560Y3252520D01*
X7962138Y3257042D01*
X7961680Y3260801D01*
X7962646Y3264458D01*
X7964881Y3267506D01*
X7968132Y3269538D01*
X7971840Y3270250D01*
X8083550Y3270250D01*
X8083550Y3406800D01*
X8069021Y3402076D01*
X8051139Y3394252D01*
X8034070Y3384753D01*
X8018018Y3373678D01*
X8003082Y3361080D01*
X7989417Y3347110D01*
X7977225Y3331870D01*
X7966506Y3315563D01*
X7960817Y3304743D01*
X7957972Y3301390D01*
X7954009Y3299510D01*
X7949590Y3299510D01*
X7945628Y3301390D01*
X7942783Y3304743D01*
X7938516Y3312972D01*
X7926781Y3331362D01*
X7913471Y3348736D01*
X7898739Y3364839D01*
X7882636Y3379571D01*
X7865262Y3392881D01*
X7846872Y3404615D01*
X7827467Y3414725D01*
X7807299Y3423107D01*
X7786420Y3429660D01*
X7765084Y3434384D01*
X7743444Y3437229D01*
X7721600Y3438194D01*
X7699756Y3437229D01*
X7678115Y3434384D01*
X7656779Y3429660D01*
X7635900Y3423107D01*
X7615732Y3414725D01*
X7596327Y3404615D01*
X7577937Y3392881D01*
X7560564Y3379571D01*
X7544460Y3364839D01*
X7529728Y3348736D01*
X7516418Y3331362D01*
X7504684Y3312972D01*
X7494574Y3293567D01*
X7486192Y3273399D01*
X7479639Y3252520D01*
X7474915Y3231184D01*
X7472070Y3209544D01*
X7471105Y3187700D01*
X7472070Y3165856D01*
X7474915Y3144215D01*
X7479639Y3122879D01*
X7486192Y3102000D01*
X7494574Y3081832D01*
X7504684Y3062427D01*
X7516418Y3044037D01*
X7529728Y3026664D01*
X7544460Y3010560D01*
X7560564Y2995828D01*
X7573111Y2986227D01*
X7575550Y2983433D01*
X7576870Y2979978D01*
X7576870Y2976321D01*
X7575550Y2972816D01*
X7573111Y2970072D01*
X7560564Y2960471D01*
X7544460Y2945739D01*
X7529728Y2929636D01*
X7516418Y2912262D01*
X7504684Y2893872D01*
X7494574Y2874467D01*
X7486192Y2854299D01*
X7479639Y2833420D01*
X7474915Y2812084D01*
X7472070Y2790444D01*
X7471105Y2768600D01*
X7472070Y2746756D01*
X7474915Y2725115D01*
X7479639Y2703779D01*
X7486192Y2682900D01*
X7494574Y2662732D01*
X7504684Y2643327D01*
X7516418Y2624937D01*
X7529728Y2607564D01*
X7544460Y2591460D01*
X7560564Y2576728D01*
X7573111Y2567127D01*
X7575550Y2564333D01*
X7576870Y2560878D01*
X7576870Y2557221D01*
X7575550Y2553716D01*
X7573111Y2550972D01*
X7560564Y2541371D01*
X7544460Y2526639D01*
X7529728Y2510536D01*
X7516418Y2493162D01*
X7504684Y2474772D01*
X7494574Y2455367D01*
X7486192Y2435199D01*
X7479639Y2414320D01*
X7474915Y2392984D01*
X7472070Y2371344D01*
X7471105Y2349500D01*
X7472070Y2327656D01*
X7474915Y2306015D01*
X7479639Y2284679D01*
X7486192Y2263800D01*
X7494574Y2243632D01*
X7504684Y2224227D01*
X7516418Y2205837D01*
X7529728Y2188464D01*
X7544460Y2172360D01*
X7560564Y2157628D01*
X7575905Y2145842D01*
X7578445Y2142947D01*
X7579766Y2139289D01*
X7579563Y2135428D01*
X7577988Y2131923D01*
X7575143Y2129231D01*
X7565237Y2122881D01*
X7547864Y2109571D01*
X7531760Y2094839D01*
X7517028Y2078736D01*
X7503718Y2061362D01*
X7491984Y2042972D01*
X7481874Y2023567D01*
X7473492Y2003399D01*
X7466939Y1982520D01*
X7462215Y1961184D01*
X7459370Y1939543D01*
X7458405Y1917700D01*
X7459370Y1895856D01*
X7462215Y1874215D01*
X7466939Y1852879D01*
X7473492Y1832000D01*
X7481874Y1811832D01*
X7491984Y1792427D01*
X7503718Y1774037D01*
X7517028Y1756664D01*
X7531760Y1740560D01*
X7547864Y1725828D01*
X7565237Y1712518D01*
X7583627Y1700784D01*
X7603032Y1690674D01*
X7623200Y1682292D01*
X7644079Y1675739D01*
X7665415Y1671015D01*
X7687056Y1668170D01*
G37*
G36*
X8524646Y1690319D02*
G01*
X8544153Y1690319D01*
X8563610Y1692249D01*
X8582812Y1695957D01*
X8601506Y1701546D01*
X8619591Y1708912D01*
X8636914Y1718005D01*
X8653272Y1728724D01*
X8668461Y1740966D01*
X8682482Y1754581D01*
X8695080Y1769516D01*
X8706154Y1785620D01*
X8715654Y1802688D01*
X8723477Y1820621D01*
X8729472Y1839163D01*
X8733688Y1858264D01*
X8736076Y1877669D01*
X8736533Y1897176D01*
X8735110Y1916684D01*
X8731808Y1935937D01*
X8726678Y1954784D01*
X8719769Y1973072D01*
X8711133Y1990547D01*
X8700820Y2007158D01*
X8688933Y2022703D01*
X8675624Y2036978D01*
X8660993Y2049932D01*
X8651798Y2056638D01*
X8649563Y2058873D01*
X8648090Y2061718D01*
X8647633Y2064867D01*
X8647633Y2176729D01*
X8648141Y2180031D01*
X8649766Y2182977D01*
X8668461Y2198166D01*
X8682482Y2211781D01*
X8695080Y2226716D01*
X8706154Y2242820D01*
X8715654Y2259888D01*
X8723477Y2277821D01*
X8729472Y2296363D01*
X8733688Y2315464D01*
X8736076Y2334869D01*
X8736533Y2354376D01*
X8735110Y2373884D01*
X8731808Y2393137D01*
X8726678Y2411984D01*
X8719769Y2430272D01*
X8711133Y2447747D01*
X8700820Y2464358D01*
X8688933Y2479903D01*
X8675624Y2494178D01*
X8660993Y2507132D01*
X8651240Y2514244D01*
X8649004Y2516479D01*
X8647582Y2519324D01*
X8647074Y2522474D01*
X8647074Y2634589D01*
X8647633Y2637891D01*
X8649208Y2640838D01*
X8652357Y2643581D01*
X8667546Y2655773D01*
X8681516Y2669387D01*
X8694064Y2684272D01*
X8705138Y2700324D01*
X8714638Y2717342D01*
X8722410Y2735173D01*
X8728405Y2753715D01*
X8732621Y2772765D01*
X8734958Y2792069D01*
X8735466Y2811576D01*
X8734044Y2830982D01*
X8730742Y2850235D01*
X8725611Y2869031D01*
X8718702Y2887218D01*
X8710066Y2904693D01*
X8699804Y2921254D01*
X8687968Y2936748D01*
X8674709Y2951022D01*
X8660130Y2963926D01*
X8651798Y2969971D01*
X8649563Y2972206D01*
X8648090Y2975051D01*
X8647633Y2978200D01*
X8647633Y3065729D01*
X8648141Y3069031D01*
X8649766Y3071977D01*
X8668461Y3087166D01*
X8682482Y3100781D01*
X8695080Y3115716D01*
X8706154Y3131820D01*
X8715654Y3148888D01*
X8723477Y3166821D01*
X8729472Y3185363D01*
X8733688Y3204464D01*
X8736076Y3223869D01*
X8736533Y3243376D01*
X8735110Y3262884D01*
X8731808Y3282137D01*
X8726678Y3300984D01*
X8719769Y3319272D01*
X8711133Y3336747D01*
X8700820Y3353358D01*
X8688933Y3368903D01*
X8675624Y3383178D01*
X8660993Y3396132D01*
X8645194Y3407613D01*
X8639911Y3410762D01*
X8637270Y3412998D01*
X8635492Y3416046D01*
X8634933Y3419500D01*
X8634933Y3890060D01*
X8635746Y3894124D01*
X8638133Y3897477D01*
X8641638Y3899611D01*
X8645753Y3900220D01*
X8649055Y3899966D01*
X8661044Y3899966D01*
X8674506Y3900881D01*
X8687409Y3903421D01*
X8699855Y3907637D01*
X8711641Y3913479D01*
X8722563Y3920794D01*
X8732469Y3929430D01*
X8741105Y3939336D01*
X8748420Y3950258D01*
X8754262Y3962044D01*
X8758478Y3974490D01*
X8761018Y3987393D01*
X8761933Y4000855D01*
X8761933Y4063644D01*
X8761018Y4077106D01*
X8758478Y4090009D01*
X8754262Y4102455D01*
X8748420Y4114241D01*
X8741105Y4125163D01*
X8732469Y4135069D01*
X8723579Y4142841D01*
X8721445Y4145432D01*
X8720277Y4148582D01*
X8720226Y4151934D01*
X8721242Y4158640D01*
X8722207Y4178300D01*
X8721242Y4197959D01*
X8718346Y4217416D01*
X8713571Y4236516D01*
X8706916Y4255008D01*
X8698534Y4272788D01*
X8688425Y4289704D01*
X8676690Y4305503D01*
X8663482Y4320082D01*
X8648903Y4333290D01*
X8638997Y4340606D01*
X8636812Y4342841D01*
X8635390Y4345686D01*
X8634933Y4348784D01*
X8634933Y4439615D01*
X8635390Y4442714D01*
X8636812Y4445558D01*
X8638997Y4447794D01*
X8648903Y4455109D01*
X8663482Y4468317D01*
X8676690Y4482896D01*
X8688425Y4498695D01*
X8698534Y4515612D01*
X8706916Y4533392D01*
X8713571Y4551883D01*
X8718346Y4570984D01*
X8721242Y4590440D01*
X8722207Y4610100D01*
X8721242Y4629759D01*
X8718346Y4649216D01*
X8713571Y4668316D01*
X8706916Y4686808D01*
X8698534Y4704588D01*
X8688425Y4721504D01*
X8676690Y4737303D01*
X8663482Y4751882D01*
X8648903Y4765090D01*
X8638997Y4772406D01*
X8636812Y4774641D01*
X8635390Y4777486D01*
X8634933Y4780584D01*
X8634933Y4909515D01*
X8635390Y4912614D01*
X8636812Y4915458D01*
X8638997Y4917694D01*
X8648903Y4925009D01*
X8663482Y4938217D01*
X8676690Y4952796D01*
X8688425Y4968595D01*
X8698534Y4985512D01*
X8706916Y5003292D01*
X8713571Y5021783D01*
X8718346Y5040884D01*
X8721242Y5060340D01*
X8722207Y5080000D01*
X8721242Y5099659D01*
X8718346Y5119116D01*
X8713571Y5138216D01*
X8706916Y5156708D01*
X8698534Y5174488D01*
X8688425Y5191404D01*
X8676690Y5207203D01*
X8663482Y5221782D01*
X8648903Y5234990D01*
X8638997Y5242306D01*
X8636812Y5244541D01*
X8635390Y5247386D01*
X8634933Y5250484D01*
X8634933Y5379415D01*
X8635390Y5382514D01*
X8636812Y5385358D01*
X8638997Y5387594D01*
X8648903Y5394909D01*
X8663482Y5408117D01*
X8676690Y5422696D01*
X8688425Y5438495D01*
X8698534Y5455412D01*
X8706916Y5473192D01*
X8713571Y5491683D01*
X8718346Y5510784D01*
X8721242Y5530240D01*
X8722207Y5549900D01*
X8721242Y5569559D01*
X8718346Y5589016D01*
X8713571Y5608116D01*
X8706916Y5626608D01*
X8698534Y5644388D01*
X8688425Y5661304D01*
X8676690Y5677103D01*
X8663482Y5691682D01*
X8648903Y5704890D01*
X8638997Y5712206D01*
X8636812Y5714441D01*
X8635390Y5717286D01*
X8634933Y5720384D01*
X8634933Y5823915D01*
X8635390Y5827014D01*
X8636812Y5829858D01*
X8638997Y5832094D01*
X8648903Y5839409D01*
X8663482Y5852617D01*
X8676690Y5867196D01*
X8688425Y5882995D01*
X8698534Y5899912D01*
X8706916Y5917692D01*
X8713571Y5936183D01*
X8718346Y5955284D01*
X8721242Y5974740D01*
X8722207Y5994400D01*
X8721242Y6014059D01*
X8718346Y6033516D01*
X8713571Y6052616D01*
X8706916Y6071108D01*
X8698534Y6088888D01*
X8688425Y6105804D01*
X8676690Y6121603D01*
X8663482Y6136182D01*
X8648903Y6149390D01*
X8638997Y6156706D01*
X8636812Y6158941D01*
X8635390Y6161786D01*
X8634933Y6164884D01*
X8634933Y6293815D01*
X8635390Y6296914D01*
X8636812Y6299758D01*
X8638997Y6301994D01*
X8648903Y6309309D01*
X8663482Y6322517D01*
X8676690Y6337096D01*
X8688425Y6352895D01*
X8698534Y6369812D01*
X8706916Y6387592D01*
X8713571Y6406083D01*
X8718346Y6425184D01*
X8721242Y6444640D01*
X8722207Y6464300D01*
X8721242Y6483959D01*
X8718346Y6503416D01*
X8713571Y6522516D01*
X8706916Y6541007D01*
X8698534Y6558788D01*
X8688425Y6575704D01*
X8676690Y6591503D01*
X8663482Y6606082D01*
X8648903Y6619290D01*
X8640165Y6625742D01*
X8637930Y6628028D01*
X8636558Y6630822D01*
X8636050Y6633921D01*
X8636050Y6762089D01*
X8636609Y6765391D01*
X8638184Y6768338D01*
X8656574Y6783273D01*
X8670493Y6796887D01*
X8683091Y6811772D01*
X8694166Y6827824D01*
X8703614Y6844842D01*
X8711387Y6862673D01*
X8717432Y6881215D01*
X8721598Y6900265D01*
X8723985Y6919569D01*
X8724442Y6939076D01*
X8723020Y6958482D01*
X8719769Y6977735D01*
X8714638Y6996531D01*
X8707729Y7014718D01*
X8699093Y7032193D01*
X8688781Y7048753D01*
X8676995Y7064248D01*
X8663686Y7078522D01*
X8649106Y7091425D01*
X8640216Y7097877D01*
X8637981Y7100112D01*
X8636558Y7102957D01*
X8636050Y7106107D01*
X8636050Y7206589D01*
X8636609Y7209891D01*
X8638184Y7212838D01*
X8656574Y7227773D01*
X8670493Y7241387D01*
X8683091Y7256272D01*
X8694166Y7272324D01*
X8703614Y7289342D01*
X8711387Y7307173D01*
X8717432Y7325715D01*
X8721598Y7344765D01*
X8723985Y7364069D01*
X8724442Y7383576D01*
X8723020Y7402982D01*
X8719769Y7422235D01*
X8714638Y7441031D01*
X8707729Y7459218D01*
X8699093Y7476693D01*
X8688781Y7493253D01*
X8676995Y7508748D01*
X8663686Y7523022D01*
X8649106Y7535925D01*
X8640216Y7542377D01*
X8637981Y7544612D01*
X8636558Y7547457D01*
X8636050Y7550607D01*
X8636050Y7676489D01*
X8636609Y7679791D01*
X8638184Y7682738D01*
X8656574Y7697673D01*
X8670493Y7711287D01*
X8683091Y7726172D01*
X8694166Y7742224D01*
X8703614Y7759242D01*
X8711387Y7777073D01*
X8717432Y7795615D01*
X8721598Y7814665D01*
X8723985Y7833969D01*
X8724442Y7853476D01*
X8723020Y7872882D01*
X8719769Y7892135D01*
X8714638Y7910931D01*
X8707729Y7929118D01*
X8699093Y7946593D01*
X8688781Y7963153D01*
X8676995Y7978648D01*
X8663686Y7992922D01*
X8649106Y8005825D01*
X8640673Y8011922D01*
X8638438Y8014208D01*
X8637016Y8017002D01*
X8636508Y8020151D01*
X8636508Y8145830D01*
X8637066Y8149132D01*
X8638641Y8152079D01*
X8657336Y8167217D01*
X8671306Y8180882D01*
X8683904Y8195818D01*
X8694978Y8211870D01*
X8704478Y8228939D01*
X8712250Y8246821D01*
X8718296Y8265414D01*
X8722512Y8284464D01*
X8724849Y8303869D01*
X8725357Y8323376D01*
X8723934Y8342884D01*
X8720632Y8362086D01*
X8715502Y8380933D01*
X8708593Y8399221D01*
X8699906Y8416696D01*
X8689644Y8433308D01*
X8677757Y8448802D01*
X8664448Y8463127D01*
X8649868Y8476081D01*
X8634069Y8487562D01*
X8617204Y8497468D01*
X8599525Y8505698D01*
X8581085Y8512149D01*
X8562136Y8516823D01*
X8542782Y8519668D01*
X8523325Y8520582D01*
X8503818Y8519668D01*
X8484463Y8516823D01*
X8465515Y8512149D01*
X8447074Y8505698D01*
X8429396Y8497468D01*
X8412530Y8487562D01*
X8396732Y8476081D01*
X8382152Y8463127D01*
X8368842Y8448802D01*
X8356955Y8433308D01*
X8346694Y8416696D01*
X8338007Y8399221D01*
X8335213Y8391804D01*
X8333028Y8388350D01*
X8329625Y8386013D01*
X8325561Y8385251D01*
X8321598Y8386114D01*
X8318246Y8388502D01*
X8316112Y8392007D01*
X8315198Y8394700D01*
X8306968Y8412429D01*
X8297062Y8429244D01*
X8285581Y8445042D01*
X8272627Y8459673D01*
X8258302Y8472982D01*
X8242808Y8484819D01*
X8226196Y8495131D01*
X8208721Y8503767D01*
X8190433Y8510727D01*
X8185150Y8512149D01*
X8185150Y8375650D01*
X8316366Y8375650D01*
X8320024Y8374989D01*
X8323173Y8373008D01*
X8325408Y8370062D01*
X8326475Y8366506D01*
X8325967Y8362086D01*
X8322665Y8342884D01*
X8321243Y8323376D01*
X8321751Y8303869D01*
X8324088Y8284464D01*
X8326475Y8273694D01*
X8326424Y8269173D01*
X8324494Y8265159D01*
X8320938Y8262366D01*
X8316569Y8261350D01*
X8185150Y8261350D01*
X8185150Y8124850D01*
X8190433Y8126272D01*
X8208721Y8133232D01*
X8226196Y8141868D01*
X8242808Y8152180D01*
X8258302Y8164017D01*
X8272627Y8177326D01*
X8285581Y8191957D01*
X8297062Y8207756D01*
X8306968Y8224570D01*
X8315198Y8242300D01*
X8316061Y8244738D01*
X8318093Y8248192D01*
X8321344Y8250580D01*
X8325256Y8251545D01*
X8329218Y8250885D01*
X8332622Y8248751D01*
X8334959Y8245449D01*
X8342122Y8228939D01*
X8351621Y8211870D01*
X8362696Y8195818D01*
X8375294Y8180882D01*
X8389264Y8167217D01*
X8407958Y8152079D01*
X8409533Y8149132D01*
X8410092Y8145830D01*
X8410092Y8020812D01*
X8409584Y8017662D01*
X8408162Y8014817D01*
X8405926Y8012582D01*
X8396579Y8005825D01*
X8382000Y7992922D01*
X8368741Y7978648D01*
X8356904Y7963153D01*
X8346643Y7946593D01*
X8338007Y7929118D01*
X8337042Y7926578D01*
X8334806Y7923123D01*
X8331453Y7920837D01*
X8327390Y7920024D01*
X8323376Y7920939D01*
X8320074Y7923326D01*
X8317941Y7926831D01*
X8315198Y7934706D01*
X8306968Y7952384D01*
X8297062Y7969250D01*
X8285581Y7985048D01*
X8272627Y7999628D01*
X8258302Y8012938D01*
X8242808Y8024774D01*
X8226196Y8035086D01*
X8208721Y8043773D01*
X8190433Y8050682D01*
X8185150Y8052104D01*
X8185150Y7915605D01*
X8319058Y7915605D01*
X8322716Y7914944D01*
X8325866Y7913014D01*
X8328152Y7910068D01*
X8329168Y7906512D01*
X8328863Y7902803D01*
X8325967Y7892135D01*
X8322665Y7872882D01*
X8321243Y7853476D01*
X8321751Y7833969D01*
X8324088Y7814665D01*
X8324291Y7809179D01*
X8322309Y7805115D01*
X8318753Y7802321D01*
X8314385Y7801305D01*
X8185150Y7801305D01*
X8185150Y7664805D01*
X8190433Y7666278D01*
X8208721Y7673187D01*
X8226196Y7681874D01*
X8242808Y7692136D01*
X8258302Y7704023D01*
X8272627Y7717332D01*
X8285581Y7731912D01*
X8297062Y7747711D01*
X8306968Y7764576D01*
X8314537Y7780934D01*
X8316925Y7784185D01*
X8320379Y7786217D01*
X8324392Y7786776D01*
X8328253Y7785760D01*
X8331453Y7783322D01*
X8333435Y7779816D01*
X8334298Y7777073D01*
X8342071Y7759242D01*
X8351570Y7742224D01*
X8362645Y7726172D01*
X8375192Y7711287D01*
X8389112Y7697673D01*
X8404352Y7685481D01*
X8407501Y7682738D01*
X8409076Y7679791D01*
X8409635Y7676489D01*
X8409635Y7550556D01*
X8409127Y7547457D01*
X8407704Y7544612D01*
X8405469Y7542377D01*
X8396579Y7535925D01*
X8382000Y7523022D01*
X8368741Y7508748D01*
X8356904Y7493253D01*
X8346643Y7476693D01*
X8338515Y7460335D01*
X8336127Y7457186D01*
X8332724Y7455204D01*
X8328812Y7454696D01*
X8325002Y7455662D01*
X8321852Y7458049D01*
X8319820Y7461453D01*
X8315198Y7474661D01*
X8306968Y7492390D01*
X8297062Y7509205D01*
X8285581Y7525003D01*
X8272627Y7539634D01*
X8258302Y7552944D01*
X8242808Y7564780D01*
X8226196Y7575092D01*
X8208721Y7583728D01*
X8190433Y7590637D01*
X8185150Y7592110D01*
X8185150Y7455611D01*
X8321903Y7455611D01*
X8325713Y7454849D01*
X8328964Y7452715D01*
X8331200Y7449515D01*
X8332063Y7445705D01*
X8331098Y7441031D01*
X8325967Y7422235D01*
X8322665Y7402982D01*
X8321243Y7383576D01*
X8321751Y7364069D01*
X8323122Y7352690D01*
X8322716Y7348423D01*
X8320633Y7344714D01*
X8317230Y7342225D01*
X8313013Y7341311D01*
X8185150Y7341311D01*
X8185150Y7204811D01*
X8190433Y7206234D01*
X8208721Y7213193D01*
X8226196Y7221829D01*
X8242808Y7232142D01*
X8258302Y7243978D01*
X8272627Y7257288D01*
X8285581Y7271918D01*
X8297062Y7287717D01*
X8306968Y7304531D01*
X8312658Y7316825D01*
X8315045Y7320076D01*
X8318500Y7322159D01*
X8322513Y7322718D01*
X8326374Y7321651D01*
X8329574Y7319213D01*
X8331555Y7315708D01*
X8334298Y7307173D01*
X8342071Y7289342D01*
X8351570Y7272324D01*
X8362645Y7256272D01*
X8375192Y7241387D01*
X8389112Y7227773D01*
X8404352Y7215581D01*
X8407501Y7212838D01*
X8409076Y7209891D01*
X8409635Y7206589D01*
X8409635Y7106056D01*
X8409127Y7102957D01*
X8407704Y7100112D01*
X8405469Y7097877D01*
X8396579Y7091425D01*
X8382000Y7078522D01*
X8368741Y7064248D01*
X8356904Y7048753D01*
X8346643Y7032193D01*
X8338007Y7014718D01*
X8335975Y7009485D01*
X8333790Y7006031D01*
X8330387Y7003694D01*
X8326374Y7002932D01*
X8322360Y7003796D01*
X8319008Y7006183D01*
X8316925Y7009688D01*
X8315198Y7014667D01*
X8306968Y7032345D01*
X8297062Y7049160D01*
X8285581Y7064959D01*
X8272627Y7079589D01*
X8258302Y7092899D01*
X8242808Y7104735D01*
X8226196Y7115048D01*
X8208721Y7123734D01*
X8190433Y7130643D01*
X8185150Y7132066D01*
X8185150Y6995566D01*
X8317534Y6995566D01*
X8321192Y6994906D01*
X8324342Y6992975D01*
X8326577Y6990029D01*
X8327644Y6986473D01*
X8327339Y6982764D01*
X8325967Y6977735D01*
X8322665Y6958482D01*
X8321243Y6939076D01*
X8321751Y6919569D01*
X8324088Y6900265D01*
X8325561Y6893661D01*
X8325510Y6889140D01*
X8323529Y6885076D01*
X8320024Y6882282D01*
X8315604Y6881266D01*
X8185150Y6881266D01*
X8185150Y6744766D01*
X8190433Y6746240D01*
X8208721Y6753148D01*
X8226196Y6761784D01*
X8242808Y6772097D01*
X8258302Y6783984D01*
X8272627Y6797243D01*
X8285581Y6811873D01*
X8297062Y6827672D01*
X8306968Y6844538D01*
X8315248Y6862419D01*
X8317280Y6865874D01*
X8320531Y6868261D01*
X8324443Y6869175D01*
X8328406Y6868515D01*
X8331809Y6866381D01*
X8334146Y6863080D01*
X8342071Y6844842D01*
X8351570Y6827824D01*
X8362645Y6811772D01*
X8375192Y6796887D01*
X8389112Y6783273D01*
X8404352Y6771081D01*
X8407501Y6768338D01*
X8409076Y6765391D01*
X8409635Y6762089D01*
X8409635Y6635597D01*
X8409127Y6632498D01*
X8407755Y6629704D01*
X8405520Y6627469D01*
X8394496Y6619290D01*
X8379917Y6606082D01*
X8366709Y6591503D01*
X8354974Y6575704D01*
X8344865Y6558788D01*
X8337550Y6543344D01*
X8335213Y6540144D01*
X8331809Y6538112D01*
X8327847Y6537553D01*
X8323986Y6538518D01*
X8320836Y6540906D01*
X8318804Y6544309D01*
X8315198Y6554622D01*
X8306968Y6572351D01*
X8297062Y6589166D01*
X8285581Y6604965D01*
X8272627Y6619595D01*
X8258302Y6632854D01*
X8242808Y6644741D01*
X8226196Y6655053D01*
X8208721Y6663690D01*
X8190433Y6670598D01*
X8185150Y6672072D01*
X8185150Y6535572D01*
X8320074Y6535572D01*
X8323681Y6534912D01*
X8326831Y6532981D01*
X8329117Y6530085D01*
X8330184Y6526580D01*
X8329930Y6522923D01*
X8325053Y6503416D01*
X8322157Y6483959D01*
X8321192Y6464300D01*
X8322157Y6444640D01*
X8323935Y6432905D01*
X8323630Y6428587D01*
X8321548Y6424777D01*
X8318093Y6422186D01*
X8313877Y6421272D01*
X8185150Y6421272D01*
X8185150Y6284772D01*
X8190433Y6286195D01*
X8208721Y6293154D01*
X8226196Y6301790D01*
X8242808Y6312103D01*
X8258302Y6323939D01*
X8272627Y6337249D01*
X8285581Y6351879D01*
X8297062Y6367678D01*
X8306968Y6384493D01*
X8313826Y6399276D01*
X8316163Y6402476D01*
X8319566Y6404508D01*
X8323478Y6405118D01*
X8327339Y6404152D01*
X8330539Y6401816D01*
X8332571Y6398412D01*
X8336483Y6387592D01*
X8344865Y6369812D01*
X8354974Y6352895D01*
X8366709Y6337096D01*
X8379917Y6322517D01*
X8394496Y6309309D01*
X8404402Y6301994D01*
X8406587Y6299758D01*
X8408009Y6296914D01*
X8408517Y6293815D01*
X8408517Y6164884D01*
X8408009Y6161786D01*
X8406587Y6158941D01*
X8404402Y6156706D01*
X8394496Y6149390D01*
X8379917Y6136182D01*
X8366709Y6121603D01*
X8354974Y6105804D01*
X8344865Y6088888D01*
X8339581Y6077661D01*
X8337194Y6074460D01*
X8333790Y6072428D01*
X8331098Y6072073D01*
X8332876Y6069533D01*
X8333790Y6065774D01*
X8333181Y6061964D01*
X8329828Y6052616D01*
X8325053Y6033516D01*
X8322157Y6014059D01*
X8321192Y5994400D01*
X8322157Y5974740D01*
X8322462Y5972911D01*
X8322157Y5968542D01*
X8320074Y5964783D01*
X8316620Y5962142D01*
X8312403Y5961227D01*
X8185150Y5961227D01*
X8185150Y5824728D01*
X8190433Y5826201D01*
X8208721Y5833110D01*
X8226196Y5841746D01*
X8242808Y5852058D01*
X8258302Y5863945D01*
X8272627Y5877204D01*
X8285581Y5891834D01*
X8297062Y5907633D01*
X8306968Y5924448D01*
X8311794Y5934964D01*
X8314181Y5938164D01*
X8317585Y5940196D01*
X8321497Y5940806D01*
X8325358Y5939840D01*
X8328558Y5937504D01*
X8330590Y5934100D01*
X8336483Y5917692D01*
X8344865Y5899912D01*
X8354974Y5882995D01*
X8366709Y5867196D01*
X8379917Y5852617D01*
X8394496Y5839409D01*
X8404402Y5832094D01*
X8406587Y5829858D01*
X8408009Y5827014D01*
X8408517Y5823915D01*
X8408517Y5720384D01*
X8408009Y5717286D01*
X8406587Y5714441D01*
X8404402Y5712206D01*
X8394496Y5704890D01*
X8379917Y5691682D01*
X8366709Y5677103D01*
X8354974Y5661304D01*
X8344865Y5644388D01*
X8336432Y5626557D01*
X8334044Y5623356D01*
X8330641Y5621324D01*
X8326729Y5620766D01*
X8322868Y5621731D01*
X8319668Y5624118D01*
X8317636Y5627522D01*
X8315198Y5634583D01*
X8306968Y5652262D01*
X8297062Y5669127D01*
X8285581Y5684926D01*
X8272627Y5699556D01*
X8258302Y5712815D01*
X8242808Y5724702D01*
X8226196Y5735015D01*
X8208721Y5743651D01*
X8190433Y5750560D01*
X8185150Y5752033D01*
X8185150Y5615533D01*
X8318652Y5615533D01*
X8322309Y5614873D01*
X8325408Y5612942D01*
X8327694Y5610047D01*
X8328761Y5606542D01*
X8328507Y5602884D01*
X8325053Y5589016D01*
X8322157Y5569559D01*
X8321192Y5549900D01*
X8322157Y5530240D01*
X8324748Y5512866D01*
X8324443Y5508548D01*
X8322411Y5504738D01*
X8318906Y5502148D01*
X8314690Y5501233D01*
X8185150Y5501233D01*
X8185150Y5364734D01*
X8190433Y5366156D01*
X8208721Y5373065D01*
X8226196Y5381752D01*
X8242808Y5392064D01*
X8258302Y5403900D01*
X8272627Y5417210D01*
X8285581Y5431840D01*
X8297062Y5447639D01*
X8306968Y5464454D01*
X8314944Y5481675D01*
X8317280Y5484876D01*
X8320684Y5486958D01*
X8324646Y5487517D01*
X8328507Y5486603D01*
X8331708Y5484215D01*
X8333740Y5480812D01*
X8336483Y5473192D01*
X8344865Y5455412D01*
X8354974Y5438495D01*
X8366709Y5422696D01*
X8379917Y5408117D01*
X8394496Y5394909D01*
X8404402Y5387594D01*
X8406587Y5385358D01*
X8408009Y5382514D01*
X8408517Y5379415D01*
X8408517Y5250484D01*
X8408009Y5247386D01*
X8406587Y5244541D01*
X8404402Y5242306D01*
X8394496Y5234990D01*
X8379917Y5221782D01*
X8366709Y5207203D01*
X8354974Y5191404D01*
X8344865Y5174488D01*
X8338413Y5160873D01*
X8336076Y5157673D01*
X8332622Y5155641D01*
X8328710Y5155031D01*
X8324850Y5156047D01*
X8321700Y5158435D01*
X8319668Y5161838D01*
X8315198Y5174538D01*
X8306968Y5192268D01*
X8297062Y5209082D01*
X8285581Y5224881D01*
X8272627Y5239512D01*
X8258302Y5252821D01*
X8242808Y5264658D01*
X8226196Y5274970D01*
X8208721Y5283606D01*
X8190433Y5290566D01*
X8185150Y5291988D01*
X8185150Y5155488D01*
X8321598Y5155488D01*
X8325408Y5154777D01*
X8328659Y5152644D01*
X8330844Y5149494D01*
X8331758Y5145735D01*
X8331149Y5141925D01*
X8329828Y5138216D01*
X8325053Y5119116D01*
X8322157Y5099659D01*
X8321192Y5080000D01*
X8322157Y5060340D01*
X8323275Y5052822D01*
X8322970Y5048504D01*
X8320938Y5044694D01*
X8317484Y5042103D01*
X8313216Y5041188D01*
X8185150Y5041188D01*
X8185150Y4904689D01*
X8190433Y4906162D01*
X8208721Y4913071D01*
X8226196Y4921707D01*
X8242808Y4932019D01*
X8258302Y4943856D01*
X8272627Y4957165D01*
X8285581Y4971796D01*
X8297062Y4987594D01*
X8306968Y5004409D01*
X8312962Y5017363D01*
X8315299Y5020564D01*
X8318703Y5022646D01*
X8322614Y5023205D01*
X8326475Y5022291D01*
X8329675Y5019903D01*
X8331758Y5016500D01*
X8336483Y5003292D01*
X8344865Y4985512D01*
X8354974Y4968595D01*
X8366709Y4952796D01*
X8379917Y4938217D01*
X8394496Y4925009D01*
X8404402Y4917694D01*
X8406587Y4915458D01*
X8408009Y4912614D01*
X8408517Y4909515D01*
X8408517Y4780584D01*
X8408009Y4777486D01*
X8406587Y4774641D01*
X8404402Y4772406D01*
X8394496Y4765090D01*
X8379917Y4751882D01*
X8366709Y4737303D01*
X8354974Y4721504D01*
X8344865Y4704588D01*
X8340394Y4695190D01*
X8338058Y4691989D01*
X8334146Y4689856D01*
X8335264Y4685690D01*
X8334705Y4681880D01*
X8329828Y4668316D01*
X8325053Y4649216D01*
X8322157Y4629759D01*
X8321192Y4610100D01*
X8322106Y4591812D01*
X8321497Y4587798D01*
X8319312Y4584344D01*
X8315959Y4582007D01*
X8311946Y4581194D01*
X8185150Y4581194D01*
X8185150Y4444695D01*
X8190433Y4446117D01*
X8208721Y4453026D01*
X8226196Y4461713D01*
X8242808Y4471974D01*
X8258302Y4483862D01*
X8272627Y4497171D01*
X8285581Y4511751D01*
X8297062Y4527550D01*
X8306968Y4544415D01*
X8310981Y4553051D01*
X8313318Y4556252D01*
X8316722Y4558284D01*
X8320633Y4558893D01*
X8324494Y4557928D01*
X8327694Y4555591D01*
X8329726Y4552188D01*
X8336483Y4533392D01*
X8344865Y4515612D01*
X8354974Y4498695D01*
X8366709Y4482896D01*
X8379917Y4468317D01*
X8394496Y4455109D01*
X8404402Y4447794D01*
X8406587Y4445558D01*
X8408009Y4442714D01*
X8408517Y4439615D01*
X8408517Y4348784D01*
X8408009Y4345686D01*
X8406587Y4342841D01*
X8404402Y4340606D01*
X8394496Y4333290D01*
X8379917Y4320082D01*
X8366709Y4305503D01*
X8354974Y4289704D01*
X8344865Y4272788D01*
X8336483Y4255008D01*
X8335264Y4251706D01*
X8333130Y4248200D01*
X8329726Y4245813D01*
X8325713Y4245000D01*
X8321649Y4245864D01*
X8318296Y4248251D01*
X8316112Y4251756D01*
X8315198Y4254500D01*
X8306968Y4272229D01*
X8297062Y4289044D01*
X8285581Y4304842D01*
X8272627Y4319473D01*
X8258302Y4332782D01*
X8242808Y4344619D01*
X8226196Y4354931D01*
X8208721Y4363567D01*
X8190433Y4370527D01*
X8185150Y4371949D01*
X8185150Y4235450D01*
X8316569Y4235450D01*
X8320176Y4234789D01*
X8323325Y4232859D01*
X8325561Y4230014D01*
X8326628Y4226509D01*
X8326424Y4222800D01*
X8325053Y4217416D01*
X8322157Y4197959D01*
X8321192Y4178300D01*
X8322157Y4158640D01*
X8325053Y4139184D01*
X8326424Y4133799D01*
X8326628Y4130090D01*
X8325561Y4126585D01*
X8323325Y4123690D01*
X8320176Y4121810D01*
X8316569Y4121150D01*
X8185150Y4121150D01*
X8185150Y3984650D01*
X8190433Y3986072D01*
X8208721Y3993032D01*
X8226196Y4001668D01*
X8242808Y4011980D01*
X8258302Y4023817D01*
X8272627Y4037126D01*
X8285581Y4051757D01*
X8297062Y4067556D01*
X8306968Y4084370D01*
X8315198Y4102100D01*
X8316112Y4104843D01*
X8318296Y4108348D01*
X8321649Y4110736D01*
X8325713Y4111599D01*
X8329726Y4110786D01*
X8333130Y4108399D01*
X8335264Y4104894D01*
X8336483Y4101592D01*
X8344865Y4083812D01*
X8354974Y4066895D01*
X8366709Y4051096D01*
X8379917Y4036517D01*
X8394496Y4023309D01*
X8404402Y4015994D01*
X8406587Y4013758D01*
X8408009Y4010914D01*
X8408517Y4007815D01*
X8408517Y3401364D01*
X8407603Y3397199D01*
X8405063Y3393744D01*
X8393176Y3383178D01*
X8379866Y3368903D01*
X8367979Y3353358D01*
X8357666Y3336747D01*
X8349030Y3319272D01*
X8341868Y3300222D01*
X8339785Y3296869D01*
X8336534Y3294583D01*
X8332724Y3293668D01*
X8328812Y3294278D01*
X8325459Y3296361D01*
X8323122Y3299510D01*
X8319668Y3307029D01*
X8309762Y3323844D01*
X8298281Y3339642D01*
X8285327Y3354273D01*
X8271002Y3367582D01*
X8255508Y3379419D01*
X8238896Y3389731D01*
X8221421Y3398367D01*
X8203133Y3405327D01*
X8197850Y3406749D01*
X8197850Y3270250D01*
X8323275Y3270250D01*
X8327339Y3269386D01*
X8330742Y3266998D01*
X8332876Y3263442D01*
X8333435Y3259378D01*
X8332266Y3243376D01*
X8332724Y3223869D01*
X8335111Y3204464D01*
X8339328Y3185363D01*
X8344560Y3169259D01*
X8345017Y3165449D01*
X8344103Y3161792D01*
X8341817Y3158693D01*
X8339937Y3157474D01*
X8342122Y3158032D01*
X8346135Y3157372D01*
X8349538Y3155238D01*
X8351824Y3151936D01*
X8353145Y3148888D01*
X8362645Y3131820D01*
X8373719Y3115716D01*
X8386318Y3100781D01*
X8400338Y3087166D01*
X8419033Y3071977D01*
X8420658Y3069031D01*
X8421217Y3065729D01*
X8421217Y2978962D01*
X8420709Y2975864D01*
X8419236Y2973019D01*
X8417001Y2970784D01*
X8407603Y2963926D01*
X8393023Y2951022D01*
X8379714Y2936748D01*
X8367877Y2921254D01*
X8357616Y2904693D01*
X8348980Y2887218D01*
X8341868Y2868371D01*
X8339785Y2865018D01*
X8336584Y2862732D01*
X8332724Y2861818D01*
X8328812Y2862427D01*
X8325459Y2864510D01*
X8323122Y2867710D01*
X8319668Y2875229D01*
X8309762Y2892044D01*
X8298281Y2907842D01*
X8285327Y2922473D01*
X8271002Y2935782D01*
X8255508Y2947619D01*
X8238896Y2957931D01*
X8221421Y2966567D01*
X8203133Y2973527D01*
X8197850Y2974949D01*
X8197850Y2838450D01*
X8323275Y2838450D01*
X8327339Y2837586D01*
X8330742Y2835198D01*
X8332876Y2831642D01*
X8333435Y2827578D01*
X8332266Y2811576D01*
X8332724Y2792069D01*
X8335060Y2772765D01*
X8339277Y2753715D01*
X8344560Y2737459D01*
X8345068Y2733649D01*
X8344103Y2729992D01*
X8341868Y2726893D01*
X8340140Y2725775D01*
X8342172Y2726283D01*
X8346135Y2725623D01*
X8349538Y2723489D01*
X8351824Y2720187D01*
X8353094Y2717342D01*
X8362543Y2700324D01*
X8373618Y2684272D01*
X8386216Y2669387D01*
X8400135Y2655773D01*
X8418525Y2640838D01*
X8420100Y2637891D01*
X8420658Y2634589D01*
X8420658Y2521661D01*
X8420150Y2518511D01*
X8418728Y2515717D01*
X8416493Y2513431D01*
X8407806Y2507132D01*
X8393176Y2494178D01*
X8379866Y2479903D01*
X8367979Y2464358D01*
X8357666Y2447747D01*
X8349030Y2430272D01*
X8344458Y2418232D01*
X8342375Y2414879D01*
X8339175Y2412593D01*
X8335365Y2411679D01*
X8331453Y2412339D01*
X8328101Y2414371D01*
X8325764Y2417572D01*
X8319668Y2430729D01*
X8309762Y2447544D01*
X8298281Y2463342D01*
X8285327Y2477973D01*
X8271002Y2491282D01*
X8255508Y2503119D01*
X8238896Y2513431D01*
X8221421Y2522067D01*
X8203133Y2529027D01*
X8197850Y2530449D01*
X8197850Y2393950D01*
X8325053Y2393950D01*
X8329371Y2392984D01*
X8332825Y2390343D01*
X8334857Y2386482D01*
X8335060Y2382062D01*
X8333689Y2373884D01*
X8332266Y2354376D01*
X8332724Y2334869D01*
X8335111Y2315464D01*
X8339328Y2296363D01*
X8340445Y2292959D01*
X8340902Y2289149D01*
X8339937Y2285492D01*
X8337702Y2282393D01*
X8334502Y2280361D01*
X8330742Y2279650D01*
X8197850Y2279650D01*
X8197850Y2143150D01*
X8203133Y2144572D01*
X8221421Y2151532D01*
X8238896Y2160168D01*
X8255508Y2170480D01*
X8271002Y2182317D01*
X8285327Y2195626D01*
X8298281Y2210257D01*
X8309762Y2226056D01*
X8319668Y2242870D01*
X8327898Y2260600D01*
X8330438Y2267915D01*
X8332520Y2271369D01*
X8335772Y2273757D01*
X8339683Y2274671D01*
X8343646Y2274062D01*
X8347049Y2271877D01*
X8349335Y2268575D01*
X8353145Y2259888D01*
X8362645Y2242820D01*
X8373719Y2226716D01*
X8386318Y2211781D01*
X8400338Y2198166D01*
X8419033Y2182977D01*
X8420658Y2180031D01*
X8421217Y2176729D01*
X8421217Y2064867D01*
X8420709Y2061718D01*
X8419236Y2058873D01*
X8417001Y2056638D01*
X8407806Y2049932D01*
X8393176Y2036978D01*
X8379866Y2022703D01*
X8367979Y2007158D01*
X8357666Y1990547D01*
X8351621Y1978355D01*
X8349234Y1975205D01*
X8345830Y1973224D01*
X8341918Y1972716D01*
X8344306Y1968754D01*
X8345170Y1964943D01*
X8344509Y1961083D01*
X8342122Y1954784D01*
X8336991Y1935937D01*
X8333689Y1916684D01*
X8332266Y1897176D01*
X8332724Y1877669D01*
X8333435Y1871929D01*
X8333028Y1867662D01*
X8330946Y1863953D01*
X8327491Y1861464D01*
X8323325Y1860550D01*
X8197850Y1860550D01*
X8197850Y1724050D01*
X8203133Y1725472D01*
X8221421Y1732432D01*
X8238896Y1741068D01*
X8255508Y1751380D01*
X8271002Y1763217D01*
X8285327Y1776526D01*
X8298281Y1791157D01*
X8309762Y1806956D01*
X8319668Y1823770D01*
X8323275Y1831593D01*
X8325662Y1834845D01*
X8329117Y1836877D01*
X8333079Y1837436D01*
X8336991Y1836420D01*
X8340191Y1833930D01*
X8342122Y1830425D01*
X8345322Y1820621D01*
X8353145Y1802688D01*
X8362645Y1785620D01*
X8373719Y1769516D01*
X8386318Y1754581D01*
X8400338Y1740966D01*
X8415528Y1728724D01*
X8431885Y1718005D01*
X8449208Y1708912D01*
X8467293Y1701546D01*
X8485987Y1695957D01*
X8505190Y1692249D01*
G37*
G36*
X8337143Y1974443D02*
G01*
X8334959Y1976069D01*
X8332978Y1979472D01*
X8327898Y1993900D01*
X8319668Y2011629D01*
X8309762Y2028443D01*
X8298281Y2044242D01*
X8285327Y2058873D01*
X8271002Y2072182D01*
X8255508Y2084019D01*
X8238896Y2094331D01*
X8221421Y2102967D01*
X8203133Y2109927D01*
X8197850Y2111349D01*
X8197850Y1974850D01*
X8335009Y1974850D01*
G37*
G36*
X2824276Y1995068D02*
G01*
X2843784Y1996490D01*
X2862986Y1999742D01*
X2881833Y2004872D01*
X2900121Y2011832D01*
X2917596Y2020468D01*
X2934208Y2030780D01*
X2949702Y2042617D01*
X2964027Y2055926D01*
X2976981Y2070557D01*
X2988462Y2086356D01*
X2998368Y2103170D01*
X3006598Y2120900D01*
X3013049Y2139289D01*
X3017723Y2158288D01*
X3020568Y2177592D01*
X3021482Y2197100D01*
X3020568Y2216607D01*
X3017723Y2235911D01*
X3013049Y2254910D01*
X3006598Y2273300D01*
X2998368Y2291029D01*
X2988462Y2307844D01*
X2976981Y2323642D01*
X2964027Y2338273D01*
X2949702Y2351582D01*
X2934208Y2363419D01*
X2917596Y2373731D01*
X2900121Y2382367D01*
X2881833Y2389327D01*
X2862986Y2394458D01*
X2843784Y2397709D01*
X2824276Y2399131D01*
X2804769Y2398674D01*
X2785364Y2396286D01*
X2766314Y2392121D01*
X2747721Y2386076D01*
X2729839Y2378252D01*
X2712770Y2368753D01*
X2696718Y2357678D01*
X2681782Y2345080D01*
X2668117Y2331110D01*
X2655925Y2315870D01*
X2645206Y2299563D01*
X2636113Y2282240D01*
X2628747Y2264156D01*
X2623159Y2245461D01*
X2619400Y2226310D01*
X2617520Y2206853D01*
X2617520Y2187346D01*
X2619400Y2167890D01*
X2623159Y2148738D01*
X2628747Y2130044D01*
X2636113Y2111959D01*
X2645206Y2094636D01*
X2655925Y2078329D01*
X2668117Y2063089D01*
X2681782Y2049119D01*
X2696718Y2036521D01*
X2712770Y2025446D01*
X2729839Y2015947D01*
X2747721Y2008124D01*
X2766314Y2002078D01*
X2785364Y1997913D01*
X2804769Y1995525D01*
G37*
G36*
X1828800Y2015337D02*
G01*
X1847850Y2016252D01*
X1866747Y2019046D01*
X1885238Y2023719D01*
X1903222Y2030120D01*
X1920493Y2038299D01*
X1936851Y2048103D01*
X1949754Y2057654D01*
X1953666Y2059432D01*
X1957933Y2059432D01*
X1961845Y2057654D01*
X1974748Y2048103D01*
X1991106Y2038299D01*
X2008378Y2030120D01*
X2026361Y2023719D01*
X2029460Y2022906D01*
X2029460Y2156460D01*
X2025091Y2157120D01*
X2021941Y2159000D01*
X2019706Y2161895D01*
X2018588Y2165400D01*
X2018842Y2169109D01*
X2019554Y2171852D01*
X2022348Y2190750D01*
X2023262Y2209800D01*
X2022348Y2228850D01*
X2019554Y2247747D01*
X2018842Y2250490D01*
X2018588Y2254199D01*
X2019706Y2257704D01*
X2021941Y2260549D01*
X2025091Y2262479D01*
X2029460Y2263140D01*
X2029460Y2396693D01*
X2026361Y2395880D01*
X2008378Y2389479D01*
X1991106Y2381300D01*
X1974748Y2371496D01*
X1961845Y2361946D01*
X1957933Y2360168D01*
X1953666Y2360168D01*
X1949754Y2361946D01*
X1936851Y2371496D01*
X1920493Y2381300D01*
X1903222Y2389479D01*
X1885238Y2395880D01*
X1866747Y2400554D01*
X1847850Y2403348D01*
X1828800Y2404262D01*
X1809750Y2403348D01*
X1790852Y2400554D01*
X1772361Y2395880D01*
X1754378Y2389479D01*
X1737106Y2381300D01*
X1720748Y2371496D01*
X1705406Y2360117D01*
X1691284Y2347315D01*
X1678482Y2333193D01*
X1667103Y2317851D01*
X1657299Y2301494D01*
X1649120Y2284222D01*
X1642719Y2266238D01*
X1638046Y2247747D01*
X1635251Y2228850D01*
X1634337Y2209800D01*
X1635251Y2190750D01*
X1638046Y2171852D01*
X1642719Y2153361D01*
X1649120Y2135378D01*
X1657299Y2118106D01*
X1667103Y2101748D01*
X1678482Y2086406D01*
X1691284Y2072284D01*
X1705406Y2059482D01*
X1720748Y2048103D01*
X1737106Y2038299D01*
X1754378Y2030120D01*
X1772361Y2023719D01*
X1790852Y2019046D01*
X1809750Y2016252D01*
G37*
G36*
X2136140Y2022906D02*
G01*
X2139238Y2023719D01*
X2157222Y2030120D01*
X2174494Y2038299D01*
X2190851Y2048103D01*
X2206193Y2059482D01*
X2220315Y2072284D01*
X2233117Y2086406D01*
X2244496Y2101748D01*
X2254300Y2118106D01*
X2262479Y2135378D01*
X2268880Y2153361D01*
X2269693Y2156460D01*
X2136140Y2156460D01*
G37*
G36*
X2136140Y2263140D02*
G01*
X2269693Y2263140D01*
X2268880Y2266238D01*
X2262479Y2284222D01*
X2254300Y2301494D01*
X2244496Y2317851D01*
X2233117Y2333193D01*
X2220315Y2347315D01*
X2206193Y2360117D01*
X2190851Y2371496D01*
X2174494Y2381300D01*
X2157222Y2389479D01*
X2139238Y2395880D01*
X2136140Y2396693D01*
G37*
G36*
X8197850Y2587650D02*
G01*
X8203133Y2589072D01*
X8221421Y2596032D01*
X8238896Y2604668D01*
X8255508Y2614980D01*
X8271002Y2626817D01*
X8285327Y2640126D01*
X8298281Y2654757D01*
X8309762Y2670556D01*
X8319668Y2687370D01*
X8327898Y2705100D01*
X8332927Y2719527D01*
X8335009Y2722981D01*
X8337245Y2724607D01*
X8334908Y2724150D01*
X8197850Y2724150D01*
G37*
G36*
X2824276Y2833268D02*
G01*
X2843784Y2834690D01*
X2862986Y2837942D01*
X2881833Y2843072D01*
X2900121Y2850032D01*
X2917596Y2858668D01*
X2934208Y2868980D01*
X2949702Y2880817D01*
X2964027Y2894126D01*
X2976981Y2908757D01*
X2988462Y2924556D01*
X2998368Y2941370D01*
X3006598Y2959100D01*
X3013049Y2977489D01*
X3017723Y2996488D01*
X3020568Y3015792D01*
X3021482Y3035300D01*
X3020568Y3054807D01*
X3017723Y3074111D01*
X3013049Y3093110D01*
X3006598Y3111500D01*
X2998368Y3129229D01*
X2988462Y3146044D01*
X2976981Y3161842D01*
X2964027Y3176473D01*
X2949702Y3189782D01*
X2934208Y3201619D01*
X2917596Y3211931D01*
X2900121Y3220567D01*
X2881833Y3227527D01*
X2862986Y3232658D01*
X2843784Y3235909D01*
X2824276Y3237331D01*
X2804769Y3236874D01*
X2785364Y3234486D01*
X2766314Y3230321D01*
X2747721Y3224276D01*
X2729839Y3216452D01*
X2712770Y3206953D01*
X2696718Y3195878D01*
X2681782Y3183280D01*
X2668117Y3169310D01*
X2655925Y3154070D01*
X2645206Y3137763D01*
X2636113Y3120440D01*
X2628747Y3102356D01*
X2623159Y3083661D01*
X2619400Y3064510D01*
X2617520Y3045053D01*
X2617520Y3025546D01*
X2619400Y3006090D01*
X2623159Y2986938D01*
X2628747Y2968244D01*
X2636113Y2950159D01*
X2645206Y2932836D01*
X2655925Y2916529D01*
X2668117Y2901289D01*
X2681782Y2887319D01*
X2696718Y2874721D01*
X2712770Y2863646D01*
X2729839Y2854147D01*
X2747721Y2846324D01*
X2766314Y2840278D01*
X2785364Y2836113D01*
X2804769Y2833725D01*
G37*
G36*
X1828800Y2840837D02*
G01*
X1847850Y2841752D01*
X1866747Y2844546D01*
X1885238Y2849219D01*
X1903222Y2855620D01*
X1920493Y2863799D01*
X1936851Y2873603D01*
X1949754Y2883154D01*
X1953666Y2884932D01*
X1957933Y2884932D01*
X1961845Y2883154D01*
X1974748Y2873603D01*
X1991106Y2863799D01*
X2008378Y2855620D01*
X2026361Y2849219D01*
X2029460Y2848406D01*
X2029460Y2981960D01*
X2025091Y2982620D01*
X2021941Y2984500D01*
X2019706Y2987395D01*
X2018588Y2990900D01*
X2018842Y2994609D01*
X2019554Y2997352D01*
X2022348Y3016250D01*
X2023262Y3035300D01*
X2022348Y3054350D01*
X2019554Y3073247D01*
X2018842Y3075990D01*
X2018588Y3079699D01*
X2019706Y3083204D01*
X2021941Y3086049D01*
X2025091Y3087979D01*
X2029460Y3088640D01*
X2029460Y3222193D01*
X2026361Y3221380D01*
X2008378Y3214979D01*
X1991106Y3206800D01*
X1974748Y3196996D01*
X1961845Y3187446D01*
X1957933Y3185668D01*
X1953666Y3185668D01*
X1949754Y3187446D01*
X1936851Y3196996D01*
X1920493Y3206800D01*
X1903222Y3214979D01*
X1885238Y3221380D01*
X1866747Y3226054D01*
X1847850Y3228848D01*
X1828800Y3229762D01*
X1809750Y3228848D01*
X1790852Y3226054D01*
X1772361Y3221380D01*
X1754378Y3214979D01*
X1737106Y3206800D01*
X1720748Y3196996D01*
X1705406Y3185617D01*
X1691284Y3172815D01*
X1678482Y3158693D01*
X1667103Y3143351D01*
X1657299Y3126994D01*
X1649120Y3109722D01*
X1642719Y3091738D01*
X1638046Y3073247D01*
X1635251Y3054350D01*
X1634337Y3035300D01*
X1635251Y3016250D01*
X1638046Y2997352D01*
X1642719Y2978861D01*
X1649120Y2960878D01*
X1657299Y2943606D01*
X1667103Y2927248D01*
X1678482Y2911906D01*
X1691284Y2897784D01*
X1705406Y2884982D01*
X1720748Y2873603D01*
X1737106Y2863799D01*
X1754378Y2855620D01*
X1772361Y2849219D01*
X1790852Y2844546D01*
X1809750Y2841752D01*
G37*
G36*
X2136140Y2848406D02*
G01*
X2139238Y2849219D01*
X2157222Y2855620D01*
X2174494Y2863799D01*
X2190851Y2873603D01*
X2206193Y2884982D01*
X2220315Y2897784D01*
X2233117Y2911906D01*
X2244496Y2927248D01*
X2254300Y2943606D01*
X2262479Y2960878D01*
X2268880Y2978861D01*
X2269693Y2981960D01*
X2136140Y2981960D01*
G37*
G36*
X8197850Y3019450D02*
G01*
X8203133Y3020872D01*
X8221421Y3027832D01*
X8238896Y3036468D01*
X8255508Y3046780D01*
X8271002Y3058617D01*
X8285327Y3071926D01*
X8298281Y3086557D01*
X8309762Y3102356D01*
X8319668Y3119170D01*
X8327898Y3136900D01*
X8332927Y3151225D01*
X8335009Y3154680D01*
X8337346Y3156407D01*
X8334908Y3155950D01*
X8197850Y3155950D01*
G37*
G36*
X2136140Y3088640D02*
G01*
X2269693Y3088640D01*
X2268880Y3091738D01*
X2262479Y3109722D01*
X2254300Y3126994D01*
X2244496Y3143351D01*
X2233117Y3158693D01*
X2220315Y3172815D01*
X2206193Y3185617D01*
X2190851Y3196996D01*
X2174494Y3206800D01*
X2157222Y3214979D01*
X2139238Y3221380D01*
X2136140Y3222193D01*
G37*
G36*
X1651000Y3952392D02*
G01*
X1670659Y3953357D01*
X1690116Y3956253D01*
X1709216Y3961028D01*
X1727707Y3967683D01*
X1745488Y3976065D01*
X1762404Y3986174D01*
X1778203Y3997909D01*
X1792782Y4011117D01*
X1805990Y4025696D01*
X1817725Y4041495D01*
X1827834Y4058412D01*
X1836216Y4076192D01*
X1842871Y4094683D01*
X1847646Y4113784D01*
X1850542Y4133240D01*
X1851507Y4152900D01*
X1850542Y4172559D01*
X1847646Y4192015D01*
X1842871Y4211116D01*
X1836216Y4229608D01*
X1827834Y4247388D01*
X1817725Y4264304D01*
X1805990Y4280103D01*
X1792782Y4294682D01*
X1778203Y4307890D01*
X1768297Y4315206D01*
X1766112Y4317441D01*
X1764690Y4320286D01*
X1764233Y4323384D01*
X1764233Y4452315D01*
X1764690Y4455414D01*
X1766112Y4458258D01*
X1768297Y4460494D01*
X1778203Y4467809D01*
X1792782Y4481017D01*
X1805990Y4495596D01*
X1817725Y4511395D01*
X1827834Y4528312D01*
X1836216Y4546092D01*
X1842871Y4564583D01*
X1847646Y4583684D01*
X1850542Y4603140D01*
X1851507Y4622800D01*
X1850542Y4642459D01*
X1847646Y4661916D01*
X1842871Y4681016D01*
X1836216Y4699508D01*
X1827834Y4717288D01*
X1817725Y4734204D01*
X1805990Y4750003D01*
X1792782Y4764582D01*
X1778203Y4777790D01*
X1768297Y4785106D01*
X1766112Y4787341D01*
X1764690Y4790186D01*
X1764233Y4793284D01*
X1764233Y4896815D01*
X1764690Y4899914D01*
X1766112Y4902758D01*
X1768297Y4904994D01*
X1778203Y4912309D01*
X1792782Y4925517D01*
X1805990Y4940096D01*
X1817725Y4955895D01*
X1827834Y4972812D01*
X1836216Y4990592D01*
X1842871Y5009083D01*
X1847646Y5028184D01*
X1850542Y5047640D01*
X1851507Y5067300D01*
X1850542Y5086959D01*
X1847646Y5106416D01*
X1842871Y5125516D01*
X1836216Y5144008D01*
X1827834Y5161788D01*
X1817725Y5178704D01*
X1805990Y5194503D01*
X1792782Y5209082D01*
X1778203Y5222290D01*
X1768297Y5229606D01*
X1766112Y5231841D01*
X1764690Y5234686D01*
X1764233Y5237784D01*
X1764233Y5366715D01*
X1764690Y5369814D01*
X1766112Y5372658D01*
X1768297Y5374894D01*
X1778203Y5382209D01*
X1792782Y5395417D01*
X1805990Y5409996D01*
X1817725Y5425795D01*
X1827834Y5442712D01*
X1836216Y5460492D01*
X1842871Y5478983D01*
X1847646Y5498084D01*
X1850542Y5517540D01*
X1851507Y5537200D01*
X1850542Y5556859D01*
X1847646Y5576316D01*
X1842871Y5595416D01*
X1836216Y5613908D01*
X1827834Y5631688D01*
X1817725Y5648604D01*
X1805990Y5664403D01*
X1792782Y5678982D01*
X1778203Y5692190D01*
X1768297Y5699506D01*
X1766112Y5701741D01*
X1764690Y5704586D01*
X1764233Y5707684D01*
X1764233Y5811215D01*
X1764690Y5814314D01*
X1766112Y5817158D01*
X1768297Y5819394D01*
X1778203Y5826709D01*
X1792782Y5839917D01*
X1805990Y5854496D01*
X1817725Y5870295D01*
X1827834Y5887212D01*
X1836216Y5904992D01*
X1842871Y5923483D01*
X1847646Y5942584D01*
X1850542Y5962040D01*
X1851507Y5981700D01*
X1850542Y6001359D01*
X1847646Y6020816D01*
X1842871Y6039916D01*
X1836216Y6058408D01*
X1827834Y6076188D01*
X1817725Y6093104D01*
X1805990Y6108903D01*
X1792782Y6123482D01*
X1778203Y6136690D01*
X1768297Y6144006D01*
X1766112Y6146241D01*
X1764690Y6149086D01*
X1764233Y6152184D01*
X1764233Y6293815D01*
X1764690Y6296914D01*
X1766112Y6299758D01*
X1768297Y6301994D01*
X1778203Y6309309D01*
X1792782Y6322517D01*
X1805990Y6337096D01*
X1817725Y6352895D01*
X1827834Y6369812D01*
X1836216Y6387592D01*
X1842871Y6406083D01*
X1847646Y6425184D01*
X1850542Y6444640D01*
X1851507Y6464300D01*
X1850542Y6483959D01*
X1847646Y6503416D01*
X1842871Y6522516D01*
X1836216Y6541007D01*
X1827834Y6558788D01*
X1817725Y6575704D01*
X1805990Y6591503D01*
X1792782Y6606082D01*
X1778203Y6619290D01*
X1768297Y6626606D01*
X1766112Y6628841D01*
X1764690Y6631686D01*
X1764233Y6634784D01*
X1764233Y6763715D01*
X1764690Y6766814D01*
X1766112Y6769658D01*
X1768297Y6771894D01*
X1778203Y6779209D01*
X1792782Y6792417D01*
X1805990Y6806996D01*
X1817725Y6822795D01*
X1827834Y6839712D01*
X1836216Y6857492D01*
X1842871Y6875983D01*
X1847646Y6895084D01*
X1850542Y6914540D01*
X1851507Y6934200D01*
X1850542Y6953859D01*
X1847646Y6973316D01*
X1842871Y6992416D01*
X1836216Y7010908D01*
X1827834Y7028688D01*
X1817725Y7045604D01*
X1805990Y7061403D01*
X1792782Y7075982D01*
X1778203Y7089190D01*
X1768297Y7096506D01*
X1766112Y7098741D01*
X1764690Y7101586D01*
X1764233Y7104684D01*
X1764233Y7233615D01*
X1764690Y7236714D01*
X1766112Y7239558D01*
X1768297Y7241794D01*
X1778203Y7249109D01*
X1792782Y7262317D01*
X1805990Y7276896D01*
X1817725Y7292695D01*
X1827834Y7309612D01*
X1836216Y7327392D01*
X1842871Y7345883D01*
X1847646Y7364984D01*
X1850542Y7384440D01*
X1851507Y7404100D01*
X1850542Y7423759D01*
X1847646Y7443216D01*
X1842871Y7462316D01*
X1836216Y7480808D01*
X1827834Y7498588D01*
X1817725Y7515504D01*
X1805990Y7531303D01*
X1792782Y7545882D01*
X1778203Y7559090D01*
X1768297Y7566406D01*
X1766112Y7568641D01*
X1764690Y7571486D01*
X1764233Y7574584D01*
X1764233Y7678115D01*
X1764690Y7681214D01*
X1766112Y7684058D01*
X1768297Y7686294D01*
X1778203Y7693609D01*
X1792782Y7706817D01*
X1805990Y7721396D01*
X1817725Y7737195D01*
X1827834Y7754112D01*
X1836216Y7771892D01*
X1842871Y7790383D01*
X1847646Y7809484D01*
X1850542Y7828940D01*
X1851507Y7848600D01*
X1850542Y7868259D01*
X1847646Y7887716D01*
X1842871Y7906816D01*
X1836216Y7925308D01*
X1827834Y7943088D01*
X1817725Y7960004D01*
X1805990Y7975803D01*
X1792782Y7990382D01*
X1778203Y8003590D01*
X1768297Y8010906D01*
X1766112Y8013141D01*
X1764690Y8015986D01*
X1764233Y8019084D01*
X1764233Y8148015D01*
X1764690Y8151114D01*
X1766112Y8153958D01*
X1768297Y8156194D01*
X1778203Y8163509D01*
X1792782Y8176717D01*
X1805990Y8191296D01*
X1817725Y8207095D01*
X1827834Y8224012D01*
X1836216Y8241792D01*
X1842871Y8260283D01*
X1847646Y8279384D01*
X1850542Y8298840D01*
X1851507Y8318500D01*
X1850542Y8338159D01*
X1847646Y8357616D01*
X1842871Y8376716D01*
X1836216Y8395208D01*
X1827834Y8412988D01*
X1817725Y8429904D01*
X1805990Y8445703D01*
X1792782Y8460282D01*
X1778203Y8473490D01*
X1762404Y8485225D01*
X1745488Y8495334D01*
X1727707Y8503716D01*
X1709216Y8510371D01*
X1690116Y8515146D01*
X1670659Y8518042D01*
X1651000Y8519007D01*
X1631340Y8518042D01*
X1611884Y8515146D01*
X1592783Y8510371D01*
X1574292Y8503716D01*
X1556512Y8495334D01*
X1539595Y8485225D01*
X1523796Y8473490D01*
X1509217Y8460282D01*
X1496009Y8445703D01*
X1484274Y8429904D01*
X1474165Y8412988D01*
X1465783Y8395208D01*
X1459128Y8376716D01*
X1454353Y8357616D01*
X1451457Y8338159D01*
X1450492Y8318500D01*
X1451457Y8298840D01*
X1454353Y8279384D01*
X1459128Y8260283D01*
X1465783Y8241792D01*
X1474165Y8224012D01*
X1484274Y8207095D01*
X1496009Y8191296D01*
X1509217Y8176717D01*
X1523796Y8163509D01*
X1533702Y8156194D01*
X1535887Y8153958D01*
X1537309Y8151114D01*
X1537817Y8148015D01*
X1537817Y8019084D01*
X1537309Y8015986D01*
X1535887Y8013141D01*
X1533702Y8010906D01*
X1523796Y8003590D01*
X1509217Y7990382D01*
X1496009Y7975803D01*
X1484274Y7960004D01*
X1474165Y7943088D01*
X1465783Y7925308D01*
X1459128Y7906816D01*
X1454353Y7887716D01*
X1451457Y7868259D01*
X1450492Y7848600D01*
X1451457Y7828940D01*
X1454353Y7809484D01*
X1459128Y7790383D01*
X1465783Y7771892D01*
X1474165Y7754112D01*
X1484274Y7737195D01*
X1496009Y7721396D01*
X1509217Y7706817D01*
X1523796Y7693609D01*
X1533702Y7686294D01*
X1535887Y7684058D01*
X1537309Y7681214D01*
X1537817Y7678115D01*
X1537817Y7574584D01*
X1537309Y7571486D01*
X1535887Y7568641D01*
X1533702Y7566406D01*
X1523796Y7559090D01*
X1509217Y7545882D01*
X1496009Y7531303D01*
X1484274Y7515504D01*
X1474165Y7498588D01*
X1465783Y7480808D01*
X1459128Y7462316D01*
X1454353Y7443216D01*
X1451457Y7423759D01*
X1450492Y7404100D01*
X1451457Y7384440D01*
X1454353Y7364984D01*
X1459128Y7345883D01*
X1465783Y7327392D01*
X1474165Y7309612D01*
X1484274Y7292695D01*
X1496009Y7276896D01*
X1509217Y7262317D01*
X1523796Y7249109D01*
X1533702Y7241794D01*
X1535887Y7239558D01*
X1537309Y7236714D01*
X1537817Y7233615D01*
X1537817Y7104684D01*
X1537309Y7101586D01*
X1535887Y7098741D01*
X1533702Y7096506D01*
X1523796Y7089190D01*
X1509217Y7075982D01*
X1496009Y7061403D01*
X1484274Y7045604D01*
X1474165Y7028688D01*
X1465783Y7010908D01*
X1459128Y6992416D01*
X1454353Y6973316D01*
X1451457Y6953859D01*
X1450492Y6934200D01*
X1451457Y6914540D01*
X1454353Y6895084D01*
X1459128Y6875983D01*
X1465783Y6857492D01*
X1474165Y6839712D01*
X1484274Y6822795D01*
X1496009Y6806996D01*
X1509217Y6792417D01*
X1523796Y6779209D01*
X1533702Y6771894D01*
X1535887Y6769658D01*
X1537309Y6766814D01*
X1537817Y6763715D01*
X1537817Y6634784D01*
X1537309Y6631686D01*
X1535887Y6628841D01*
X1533702Y6626606D01*
X1523796Y6619290D01*
X1509217Y6606082D01*
X1496009Y6591503D01*
X1484274Y6575704D01*
X1474165Y6558788D01*
X1465783Y6541007D01*
X1459128Y6522516D01*
X1454353Y6503416D01*
X1451457Y6483959D01*
X1450492Y6464300D01*
X1451457Y6444640D01*
X1454353Y6425184D01*
X1459128Y6406083D01*
X1465783Y6387592D01*
X1474165Y6369812D01*
X1484274Y6352895D01*
X1496009Y6337096D01*
X1509217Y6322517D01*
X1523796Y6309309D01*
X1533702Y6301994D01*
X1535887Y6299758D01*
X1537309Y6296914D01*
X1537817Y6293815D01*
X1537817Y6152184D01*
X1537309Y6149086D01*
X1535887Y6146241D01*
X1533702Y6144006D01*
X1523796Y6136690D01*
X1509217Y6123482D01*
X1496009Y6108903D01*
X1484274Y6093104D01*
X1474165Y6076188D01*
X1465783Y6058408D01*
X1459128Y6039916D01*
X1454353Y6020816D01*
X1451457Y6001359D01*
X1450492Y5981700D01*
X1451457Y5962040D01*
X1454353Y5942584D01*
X1459128Y5923483D01*
X1465783Y5904992D01*
X1474165Y5887212D01*
X1484274Y5870295D01*
X1496009Y5854496D01*
X1509217Y5839917D01*
X1523796Y5826709D01*
X1533702Y5819394D01*
X1535887Y5817158D01*
X1537309Y5814314D01*
X1537817Y5811215D01*
X1537817Y5707684D01*
X1537309Y5704586D01*
X1535887Y5701741D01*
X1533702Y5699506D01*
X1523796Y5692190D01*
X1509217Y5678982D01*
X1496009Y5664403D01*
X1484274Y5648604D01*
X1474165Y5631688D01*
X1465783Y5613908D01*
X1459128Y5595416D01*
X1454353Y5576316D01*
X1451457Y5556859D01*
X1450492Y5537200D01*
X1451457Y5517540D01*
X1454353Y5498084D01*
X1459128Y5478983D01*
X1465783Y5460492D01*
X1474165Y5442712D01*
X1484274Y5425795D01*
X1496009Y5409996D01*
X1509217Y5395417D01*
X1523796Y5382209D01*
X1533702Y5374894D01*
X1535887Y5372658D01*
X1537309Y5369814D01*
X1537817Y5366715D01*
X1537817Y5237784D01*
X1537309Y5234686D01*
X1535887Y5231841D01*
X1533702Y5229606D01*
X1523796Y5222290D01*
X1509217Y5209082D01*
X1496009Y5194503D01*
X1484274Y5178704D01*
X1474165Y5161788D01*
X1465783Y5144008D01*
X1459128Y5125516D01*
X1454353Y5106416D01*
X1451457Y5086959D01*
X1450492Y5067300D01*
X1451457Y5047640D01*
X1454353Y5028184D01*
X1459128Y5009083D01*
X1465783Y4990592D01*
X1474165Y4972812D01*
X1484274Y4955895D01*
X1496009Y4940096D01*
X1509217Y4925517D01*
X1523796Y4912309D01*
X1533702Y4904994D01*
X1535887Y4902758D01*
X1537309Y4899914D01*
X1537817Y4896815D01*
X1537817Y4793284D01*
X1537309Y4790186D01*
X1535887Y4787341D01*
X1533702Y4785106D01*
X1523796Y4777790D01*
X1509217Y4764582D01*
X1496009Y4750003D01*
X1484274Y4734204D01*
X1474165Y4717288D01*
X1465783Y4699508D01*
X1459128Y4681016D01*
X1454353Y4661916D01*
X1451457Y4642459D01*
X1450492Y4622800D01*
X1451457Y4603140D01*
X1454353Y4583684D01*
X1459128Y4564583D01*
X1465783Y4546092D01*
X1474165Y4528312D01*
X1484274Y4511395D01*
X1496009Y4495596D01*
X1509217Y4481017D01*
X1523796Y4467809D01*
X1533702Y4460494D01*
X1535887Y4458258D01*
X1537309Y4455414D01*
X1537817Y4452315D01*
X1537817Y4323384D01*
X1537309Y4320286D01*
X1535887Y4317441D01*
X1533702Y4315206D01*
X1523796Y4307890D01*
X1509217Y4294682D01*
X1496009Y4280103D01*
X1484274Y4264304D01*
X1474165Y4247388D01*
X1465783Y4229608D01*
X1459128Y4211116D01*
X1454353Y4192015D01*
X1451457Y4172559D01*
X1450492Y4152900D01*
X1451457Y4133240D01*
X1454353Y4113784D01*
X1459128Y4094683D01*
X1465783Y4076192D01*
X1474165Y4058412D01*
X1484274Y4041495D01*
X1496009Y4025696D01*
X1509217Y4011117D01*
X1523796Y3997909D01*
X1539595Y3986174D01*
X1556512Y3976065D01*
X1574292Y3967683D01*
X1592783Y3961028D01*
X1611884Y3956253D01*
X1631340Y3953357D01*
G37*
G36*
X2063750Y3971899D02*
G01*
X2063750Y4108450D01*
X1927301Y4108450D01*
X1930247Y4098544D01*
X1937613Y4080459D01*
X1946706Y4063136D01*
X1957425Y4046829D01*
X1969617Y4031589D01*
X1983282Y4017619D01*
X1998218Y4005021D01*
X2014270Y3993946D01*
X2031339Y3984447D01*
X2049221Y3976624D01*
G37*
G36*
X2178050Y3971950D02*
G01*
X2183333Y3973372D01*
X2201621Y3980332D01*
X2219096Y3988968D01*
X2235708Y3999280D01*
X2251202Y4011117D01*
X2265527Y4024426D01*
X2278481Y4039057D01*
X2289962Y4054856D01*
X2299868Y4071670D01*
X2308098Y4089400D01*
X2314702Y4108450D01*
X2178050Y4108450D01*
G37*
G36*
X8070850Y3984599D02*
G01*
X8070850Y4121150D01*
X7934401Y4121150D01*
X7937347Y4111244D01*
X7944713Y4093159D01*
X7953806Y4075836D01*
X7964525Y4059529D01*
X7976717Y4044289D01*
X7990382Y4030319D01*
X8005318Y4017721D01*
X8021370Y4006646D01*
X8038439Y3997147D01*
X8056321Y3989324D01*
G37*
G36*
X1927301Y4222750D02*
G01*
X2063750Y4222750D01*
X2063750Y4359300D01*
X2049221Y4354576D01*
X2031339Y4346752D01*
X2014270Y4337253D01*
X1998218Y4326178D01*
X1983282Y4313580D01*
X1969617Y4299610D01*
X1957425Y4284370D01*
X1946706Y4268063D01*
X1937613Y4250740D01*
X1930247Y4232656D01*
G37*
G36*
X2178050Y4222750D02*
G01*
X2314702Y4222750D01*
X2308098Y4241800D01*
X2299868Y4259529D01*
X2289962Y4276344D01*
X2278481Y4292142D01*
X2265527Y4306773D01*
X2251202Y4320082D01*
X2235708Y4331919D01*
X2219096Y4342231D01*
X2201621Y4350867D01*
X2183333Y4357827D01*
X2178050Y4359249D01*
G37*
G36*
X7934401Y4235450D02*
G01*
X8070850Y4235450D01*
X8070850Y4372000D01*
X8056321Y4367276D01*
X8038439Y4359452D01*
X8021370Y4349953D01*
X8005318Y4338878D01*
X7990382Y4326280D01*
X7976717Y4312310D01*
X7964525Y4297070D01*
X7953806Y4280763D01*
X7944713Y4263440D01*
X7937347Y4245356D01*
G37*
G36*
X2063750Y4434789D02*
G01*
X2063750Y4571288D01*
X1927301Y4571288D01*
X1930247Y4561382D01*
X1937613Y4543298D01*
X1946706Y4525975D01*
X1957425Y4509668D01*
X1969617Y4494428D01*
X1983282Y4480458D01*
X1998218Y4467860D01*
X2014270Y4456785D01*
X2031339Y4447286D01*
X2049221Y4439462D01*
G37*
G36*
X2178050Y4434789D02*
G01*
X2183333Y4436262D01*
X2201621Y4443171D01*
X2219096Y4451807D01*
X2235708Y4462119D01*
X2251202Y4473956D01*
X2265527Y4487265D01*
X2278481Y4501896D01*
X2289962Y4517694D01*
X2299868Y4534509D01*
X2308098Y4552238D01*
X2314702Y4571288D01*
X2178050Y4571288D01*
G37*
G36*
X8070850Y4444644D02*
G01*
X8070850Y4581194D01*
X7934401Y4581194D01*
X7937347Y4571238D01*
X7944713Y4553153D01*
X7953806Y4535881D01*
X7964525Y4519523D01*
X7976717Y4504283D01*
X7990382Y4490313D01*
X8005318Y4477766D01*
X8021370Y4466640D01*
X8038439Y4457141D01*
X8056321Y4449368D01*
G37*
G36*
X1927301Y4685588D02*
G01*
X2063750Y4685588D01*
X2063750Y4822139D01*
X2049221Y4817414D01*
X2031339Y4809591D01*
X2014270Y4800142D01*
X1998218Y4789017D01*
X1983282Y4776419D01*
X1969617Y4762449D01*
X1957425Y4747209D01*
X1946706Y4730902D01*
X1937613Y4713630D01*
X1930247Y4695545D01*
G37*
G36*
X2178050Y4685588D02*
G01*
X2314702Y4685588D01*
X2308098Y4704638D01*
X2299868Y4722368D01*
X2289962Y4739182D01*
X2278481Y4754981D01*
X2265527Y4769612D01*
X2251202Y4782921D01*
X2235708Y4794758D01*
X2219096Y4805070D01*
X2201621Y4813706D01*
X2183333Y4820666D01*
X2178050Y4822088D01*
G37*
G36*
X7934401Y4695494D02*
G01*
X8070850Y4695494D01*
X8070850Y4831994D01*
X8056321Y4827270D01*
X8038439Y4819497D01*
X8021370Y4809998D01*
X8005318Y4798923D01*
X7990382Y4786325D01*
X7976717Y4772355D01*
X7964525Y4757115D01*
X7953806Y4740757D01*
X7944713Y4723485D01*
X7937347Y4705400D01*
G37*
G36*
X8185150Y4695494D02*
G01*
X8322056Y4695494D01*
X8321649Y4696155D01*
X8315198Y4714544D01*
X8306968Y4732223D01*
X8297062Y4749088D01*
X8285581Y4764887D01*
X8272627Y4779467D01*
X8258302Y4792776D01*
X8242808Y4804664D01*
X8226196Y4814925D01*
X8208721Y4823612D01*
X8190433Y4830521D01*
X8185150Y4831994D01*
G37*
G36*
X2063750Y4897628D02*
G01*
X2063750Y5034127D01*
X1927301Y5034127D01*
X1930247Y5024221D01*
X1937613Y5006136D01*
X1946706Y4988814D01*
X1957425Y4972507D01*
X1969617Y4957267D01*
X1983282Y4943297D01*
X1998218Y4930698D01*
X2014270Y4919624D01*
X2031339Y4910124D01*
X2049221Y4902301D01*
G37*
G36*
X2178050Y4897628D02*
G01*
X2183333Y4899101D01*
X2201621Y4906010D01*
X2219096Y4914646D01*
X2235708Y4924958D01*
X2251202Y4936845D01*
X2265527Y4950104D01*
X2278481Y4964734D01*
X2289962Y4980533D01*
X2299868Y4997348D01*
X2308098Y5015077D01*
X2314702Y5034127D01*
X2178050Y5034127D01*
G37*
G36*
X8070850Y4904689D02*
G01*
X8070850Y5041188D01*
X7934401Y5041188D01*
X7937347Y5031282D01*
X7944713Y5013198D01*
X7953806Y4995875D01*
X7964525Y4979568D01*
X7976717Y4964328D01*
X7990382Y4950358D01*
X8005318Y4937760D01*
X8021370Y4926685D01*
X8038439Y4917186D01*
X8056321Y4909362D01*
G37*
G36*
X1927301Y5148427D02*
G01*
X2063750Y5148427D01*
X2063750Y5284978D01*
X2049221Y5280253D01*
X2031339Y5272430D01*
X2014270Y5262981D01*
X1998218Y5251856D01*
X1983282Y5239258D01*
X1969617Y5225288D01*
X1957425Y5210098D01*
X1946706Y5193741D01*
X1937613Y5176469D01*
X1930247Y5158384D01*
G37*
G36*
X2178050Y5148427D02*
G01*
X2314702Y5148427D01*
X2308098Y5167477D01*
X2299868Y5185206D01*
X2289962Y5202021D01*
X2278481Y5217820D01*
X2265527Y5232450D01*
X2251202Y5245760D01*
X2235708Y5257596D01*
X2219096Y5267909D01*
X2201621Y5276545D01*
X2183333Y5283504D01*
X2178050Y5284927D01*
G37*
G36*
X7934401Y5155488D02*
G01*
X8070850Y5155488D01*
X8070850Y5292039D01*
X8056321Y5287314D01*
X8038439Y5279491D01*
X8021370Y5270042D01*
X8005318Y5258917D01*
X7990382Y5246319D01*
X7976717Y5232349D01*
X7964525Y5217109D01*
X7953806Y5200802D01*
X7944713Y5183530D01*
X7937347Y5165445D01*
G37*
G36*
X2063750Y5360466D02*
G01*
X2063750Y5496966D01*
X1927301Y5496966D01*
X1930247Y5487060D01*
X1937613Y5468975D01*
X1946706Y5451703D01*
X1957425Y5435346D01*
X1969617Y5420106D01*
X1983282Y5406136D01*
X1998218Y5393537D01*
X2014270Y5382463D01*
X2031339Y5372963D01*
X2049221Y5365191D01*
G37*
G36*
X2178050Y5360466D02*
G01*
X2183333Y5361940D01*
X2201621Y5368848D01*
X2219096Y5377484D01*
X2235708Y5387797D01*
X2251202Y5399684D01*
X2265527Y5412943D01*
X2278481Y5427573D01*
X2289962Y5443372D01*
X2299868Y5460238D01*
X2308098Y5477916D01*
X2314702Y5496966D01*
X2178050Y5496966D01*
G37*
G36*
X8070850Y5364683D02*
G01*
X8070850Y5501233D01*
X7934401Y5501233D01*
X7937347Y5491276D01*
X7944713Y5473192D01*
X7953806Y5455920D01*
X7964525Y5439562D01*
X7976717Y5424373D01*
X7990382Y5410352D01*
X8005318Y5397804D01*
X8021370Y5386679D01*
X8038439Y5377180D01*
X8056321Y5369407D01*
G37*
G36*
X1927301Y5611266D02*
G01*
X2063750Y5611266D01*
X2063750Y5747816D01*
X2049221Y5743092D01*
X2031339Y5735320D01*
X2014270Y5725820D01*
X1998218Y5714695D01*
X1983282Y5702147D01*
X1969617Y5688126D01*
X1957425Y5672937D01*
X1946706Y5656580D01*
X1937613Y5639308D01*
X1930247Y5621223D01*
G37*
G36*
X2178050Y5611266D02*
G01*
X2314702Y5611266D01*
X2308098Y5630367D01*
X2299868Y5648045D01*
X2289962Y5664860D01*
X2278481Y5680659D01*
X2265527Y5695289D01*
X2251202Y5708599D01*
X2235708Y5720435D01*
X2219096Y5730748D01*
X2201621Y5739434D01*
X2183333Y5746343D01*
X2178050Y5747766D01*
G37*
G36*
X7934401Y5615533D02*
G01*
X8070850Y5615533D01*
X8070850Y5752033D01*
X8056321Y5747308D01*
X8038439Y5739536D01*
X8021370Y5730036D01*
X8005318Y5718962D01*
X7990382Y5706364D01*
X7976717Y5692394D01*
X7964525Y5677154D01*
X7953806Y5660796D01*
X7944713Y5643524D01*
X7937347Y5625439D01*
G37*
G36*
X2063750Y5823305D02*
G01*
X2063750Y5959805D01*
X1927301Y5959805D01*
X1930247Y5949899D01*
X1937613Y5931814D01*
X1946706Y5914542D01*
X1957425Y5898184D01*
X1969617Y5882944D01*
X1983282Y5868974D01*
X1998218Y5856376D01*
X2014270Y5845302D01*
X2031339Y5835802D01*
X2049221Y5828030D01*
G37*
G36*
X2178050Y5823305D02*
G01*
X2183333Y5824778D01*
X2201621Y5831687D01*
X2219096Y5840374D01*
X2235708Y5850636D01*
X2251202Y5862523D01*
X2265527Y5875832D01*
X2278481Y5890412D01*
X2289962Y5906211D01*
X2299868Y5923076D01*
X2308098Y5940755D01*
X2314702Y5959805D01*
X2178050Y5959805D01*
G37*
G36*
X8070850Y5824728D02*
G01*
X8070850Y5961227D01*
X7934401Y5961227D01*
X7937347Y5951321D01*
X7944713Y5933236D01*
X7953806Y5915914D01*
X7964525Y5899607D01*
X7976717Y5884367D01*
X7990382Y5870397D01*
X8005318Y5857798D01*
X8021370Y5846724D01*
X8038439Y5837224D01*
X8056321Y5829401D01*
G37*
G36*
X1927301Y6074105D02*
G01*
X2063750Y6074105D01*
X2063750Y6210655D01*
X2049221Y6205931D01*
X2031339Y6198158D01*
X2014270Y6188659D01*
X1998218Y6177534D01*
X1983282Y6164986D01*
X1969617Y6151016D01*
X1957425Y6135776D01*
X1946706Y6119418D01*
X1937613Y6102146D01*
X1930247Y6084062D01*
G37*
G36*
X2178050Y6074105D02*
G01*
X2314702Y6074105D01*
X2308098Y6093206D01*
X2299868Y6110884D01*
X2289962Y6127750D01*
X2278481Y6143548D01*
X2265527Y6158128D01*
X2251202Y6171438D01*
X2235708Y6183274D01*
X2219096Y6193586D01*
X2201621Y6202273D01*
X2183333Y6209182D01*
X2178050Y6210604D01*
G37*
G36*
X7934401Y6075527D02*
G01*
X8070850Y6075527D01*
X8070850Y6212078D01*
X8056321Y6207353D01*
X8038439Y6199530D01*
X8021370Y6190081D01*
X8005318Y6178956D01*
X7990382Y6166358D01*
X7976717Y6152388D01*
X7964525Y6137198D01*
X7953806Y6120841D01*
X7944713Y6103569D01*
X7937347Y6085484D01*
G37*
G36*
X8185150Y6075527D02*
G01*
X8322614Y6075527D01*
X8320786Y6078626D01*
X8315198Y6094577D01*
X8306968Y6112306D01*
X8297062Y6129121D01*
X8285581Y6144920D01*
X8272627Y6159550D01*
X8258302Y6172860D01*
X8242808Y6184696D01*
X8226196Y6195009D01*
X8208721Y6203645D01*
X8190433Y6210604D01*
X8185150Y6212027D01*
G37*
G36*
X8070850Y6284722D02*
G01*
X8070850Y6421272D01*
X7934401Y6421272D01*
X7937347Y6411315D01*
X7944713Y6393230D01*
X7953806Y6375958D01*
X7964525Y6359601D01*
X7976717Y6344412D01*
X7990382Y6330442D01*
X8005318Y6317843D01*
X8021370Y6306718D01*
X8038439Y6297269D01*
X8056321Y6289446D01*
G37*
G36*
X2063750Y6286144D02*
G01*
X2063750Y6422694D01*
X1927301Y6422694D01*
X1930247Y6412738D01*
X1937613Y6394653D01*
X1946706Y6377381D01*
X1957425Y6361023D01*
X1969617Y6345783D01*
X1983282Y6331813D01*
X1998218Y6319266D01*
X2014270Y6308140D01*
X2031339Y6298641D01*
X2049221Y6290868D01*
G37*
G36*
X2178050Y6286195D02*
G01*
X2183333Y6287617D01*
X2201621Y6294526D01*
X2219096Y6303213D01*
X2235708Y6313474D01*
X2251202Y6325362D01*
X2265527Y6338671D01*
X2278481Y6353251D01*
X2289962Y6369050D01*
X2299868Y6385915D01*
X2308098Y6403594D01*
X2314702Y6422694D01*
X2178050Y6422694D01*
G37*
G36*
X7934401Y6535572D02*
G01*
X8070850Y6535572D01*
X8070850Y6672072D01*
X8056321Y6667398D01*
X8038439Y6659575D01*
X8021370Y6650075D01*
X8005318Y6639001D01*
X7990382Y6626402D01*
X7976717Y6612432D01*
X7964525Y6597192D01*
X7953806Y6580886D01*
X7944713Y6563563D01*
X7937347Y6545478D01*
G37*
G36*
X1927301Y6536994D02*
G01*
X2063750Y6536994D01*
X2063750Y6673494D01*
X2049221Y6668770D01*
X2031339Y6660997D01*
X2014270Y6651498D01*
X1998218Y6640423D01*
X1983282Y6627825D01*
X1969617Y6613855D01*
X1957425Y6598615D01*
X1946706Y6582257D01*
X1937613Y6564985D01*
X1930247Y6546900D01*
G37*
G36*
X2178050Y6536994D02*
G01*
X2314702Y6536994D01*
X2308098Y6556044D01*
X2299868Y6573723D01*
X2289962Y6590588D01*
X2278481Y6606387D01*
X2265527Y6620967D01*
X2251202Y6634276D01*
X2235708Y6646164D01*
X2219096Y6656425D01*
X2201621Y6665112D01*
X2183333Y6672021D01*
X2178050Y6673494D01*
G37*
G36*
X8070850Y6744766D02*
G01*
X8070850Y6881266D01*
X7934401Y6881266D01*
X7937347Y6871360D01*
X7944713Y6853275D01*
X7953806Y6836003D01*
X7964525Y6819646D01*
X7976717Y6804406D01*
X7990382Y6790436D01*
X8005318Y6777837D01*
X8021370Y6766763D01*
X8038439Y6757263D01*
X8056321Y6749491D01*
G37*
G36*
X2063750Y6748983D02*
G01*
X2063750Y6885533D01*
X1927301Y6885533D01*
X1930247Y6875576D01*
X1937613Y6857492D01*
X1946706Y6840220D01*
X1957425Y6823862D01*
X1969617Y6808673D01*
X1983282Y6794652D01*
X1998218Y6782104D01*
X2014270Y6770979D01*
X2031339Y6761480D01*
X2049221Y6753707D01*
G37*
G36*
X2178050Y6749034D02*
G01*
X2183333Y6750456D01*
X2201621Y6757365D01*
X2219096Y6766052D01*
X2235708Y6776364D01*
X2251202Y6788200D01*
X2265527Y6801510D01*
X2278481Y6816140D01*
X2289962Y6831939D01*
X2299868Y6848754D01*
X2308098Y6866432D01*
X2314702Y6885533D01*
X2178050Y6885533D01*
G37*
G36*
X7934401Y6995566D02*
G01*
X8070850Y6995566D01*
X8070850Y7132116D01*
X8056321Y7127392D01*
X8038439Y7119620D01*
X8021370Y7110120D01*
X8005318Y7098995D01*
X7990382Y7086447D01*
X7976717Y7072426D01*
X7964525Y7057237D01*
X7953806Y7040880D01*
X7944713Y7023608D01*
X7937347Y7005523D01*
G37*
G36*
X1927301Y6999833D02*
G01*
X2063750Y6999833D01*
X2063750Y7136333D01*
X2049221Y7131608D01*
X2031339Y7123836D01*
X2014270Y7114336D01*
X1998218Y7103262D01*
X1983282Y7090664D01*
X1969617Y7076694D01*
X1957425Y7061453D01*
X1946706Y7045096D01*
X1937613Y7027824D01*
X1930247Y7009739D01*
G37*
G36*
X2178050Y6999833D02*
G01*
X2314702Y6999833D01*
X2308098Y7018883D01*
X2299868Y7036562D01*
X2289962Y7053427D01*
X2278481Y7069226D01*
X2265527Y7083856D01*
X2251202Y7097115D01*
X2235708Y7109002D01*
X2219096Y7119315D01*
X2201621Y7127951D01*
X2183333Y7134859D01*
X2178050Y7136333D01*
G37*
G36*
X8070850Y7204760D02*
G01*
X8070850Y7341311D01*
X7934401Y7341311D01*
X7937347Y7331354D01*
X7944713Y7313269D01*
X7953806Y7295997D01*
X7964525Y7279690D01*
X7976717Y7264450D01*
X7990382Y7250480D01*
X8005318Y7237882D01*
X8021370Y7226757D01*
X8038439Y7217308D01*
X8056321Y7209485D01*
G37*
G36*
X2063750Y7211822D02*
G01*
X2063750Y7348372D01*
X1927301Y7348372D01*
X1930247Y7338415D01*
X1937613Y7320330D01*
X1946706Y7303058D01*
X1957425Y7286701D01*
X1969617Y7271512D01*
X1983282Y7257542D01*
X1998218Y7244943D01*
X2014270Y7233818D01*
X2031339Y7224369D01*
X2049221Y7216546D01*
G37*
G36*
X2178050Y7211872D02*
G01*
X2183333Y7213295D01*
X2201621Y7220254D01*
X2219096Y7228890D01*
X2235708Y7239203D01*
X2251202Y7251039D01*
X2265527Y7264349D01*
X2278481Y7278979D01*
X2289962Y7294778D01*
X2299868Y7311593D01*
X2308098Y7329322D01*
X2314702Y7348372D01*
X2178050Y7348372D01*
G37*
G36*
X7934401Y7455611D02*
G01*
X8070850Y7455611D01*
X8070850Y7592110D01*
X8056321Y7587437D01*
X8038439Y7579614D01*
X8021370Y7570114D01*
X8005318Y7559040D01*
X7990382Y7546441D01*
X7976717Y7532471D01*
X7964525Y7517231D01*
X7953806Y7500924D01*
X7944713Y7483602D01*
X7937347Y7465517D01*
G37*
G36*
X1927301Y7462672D02*
G01*
X2063750Y7462672D01*
X2063750Y7599172D01*
X2049221Y7594498D01*
X2031339Y7586675D01*
X2014270Y7577175D01*
X1998218Y7566101D01*
X1983282Y7553502D01*
X1969617Y7539532D01*
X1957425Y7524292D01*
X1946706Y7507986D01*
X1937613Y7490663D01*
X1930247Y7472578D01*
G37*
G36*
X2178050Y7462672D02*
G01*
X2314702Y7462672D01*
X2308098Y7481722D01*
X2299868Y7499451D01*
X2289962Y7516266D01*
X2278481Y7532065D01*
X2265527Y7546695D01*
X2251202Y7559954D01*
X2235708Y7571841D01*
X2219096Y7582153D01*
X2201621Y7590790D01*
X2183333Y7597698D01*
X2178050Y7599172D01*
G37*
G36*
X8070850Y7664805D02*
G01*
X8070850Y7801305D01*
X7934401Y7801305D01*
X7937347Y7791399D01*
X7944713Y7773314D01*
X7953806Y7756042D01*
X7964525Y7739684D01*
X7976717Y7724444D01*
X7990382Y7710474D01*
X8005318Y7697876D01*
X8021370Y7686802D01*
X8038439Y7677302D01*
X8056321Y7669530D01*
G37*
G36*
X2063750Y7674660D02*
G01*
X2063750Y7811211D01*
X1927301Y7811211D01*
X1930247Y7801254D01*
X1937613Y7783169D01*
X1946706Y7765897D01*
X1957425Y7749590D01*
X1969617Y7734350D01*
X1983282Y7720380D01*
X1998218Y7707782D01*
X2014270Y7696657D01*
X2031339Y7687208D01*
X2049221Y7679385D01*
G37*
G36*
X2178050Y7674711D02*
G01*
X2183333Y7676134D01*
X2201621Y7683093D01*
X2219096Y7691729D01*
X2235708Y7702042D01*
X2251202Y7713878D01*
X2265527Y7727188D01*
X2278481Y7741818D01*
X2289962Y7757617D01*
X2299868Y7774431D01*
X2308098Y7792161D01*
X2314702Y7811211D01*
X2178050Y7811211D01*
G37*
G36*
X7934401Y7915605D02*
G01*
X8070850Y7915605D01*
X8070850Y8052155D01*
X8056321Y8047431D01*
X8038439Y8039658D01*
X8021370Y8030159D01*
X8005318Y8019034D01*
X7990382Y8006486D01*
X7976717Y7992516D01*
X7964525Y7977276D01*
X7953806Y7960918D01*
X7944713Y7943646D01*
X7937347Y7925562D01*
G37*
G36*
X1927301Y7925511D02*
G01*
X2063750Y7925511D01*
X2063750Y8062010D01*
X2049221Y8057337D01*
X2031339Y8049514D01*
X2014270Y8040014D01*
X1998218Y8028940D01*
X1983282Y8016341D01*
X1969617Y8002371D01*
X1957425Y7987131D01*
X1946706Y7970824D01*
X1937613Y7953502D01*
X1930247Y7935417D01*
G37*
G36*
X2178050Y7925511D02*
G01*
X2314702Y7925511D01*
X2308098Y7944561D01*
X2299868Y7962290D01*
X2289962Y7979105D01*
X2278481Y7994903D01*
X2265527Y8009534D01*
X2251202Y8022844D01*
X2235708Y8034680D01*
X2219096Y8044992D01*
X2201621Y8053628D01*
X2183333Y8060537D01*
X2178050Y8062010D01*
G37*
G36*
X8070850Y8124799D02*
G01*
X8070850Y8261350D01*
X7934401Y8261350D01*
X7937347Y8251444D01*
X7944713Y8233359D01*
X7953806Y8216036D01*
X7964525Y8199729D01*
X7976717Y8184489D01*
X7990382Y8170519D01*
X8005318Y8157921D01*
X8021370Y8146846D01*
X8038439Y8137347D01*
X8056321Y8129524D01*
G37*
G36*
X2063750Y8137499D02*
G01*
X2063750Y8274050D01*
X1927301Y8274050D01*
X1930247Y8264144D01*
X1937613Y8246059D01*
X1946706Y8228736D01*
X1957425Y8212429D01*
X1969617Y8197189D01*
X1983282Y8183219D01*
X1998218Y8170621D01*
X2014270Y8159546D01*
X2031339Y8150047D01*
X2049221Y8142224D01*
G37*
G36*
X2178050Y8137550D02*
G01*
X2183333Y8138972D01*
X2201621Y8145932D01*
X2219096Y8154568D01*
X2235708Y8164880D01*
X2251202Y8176717D01*
X2265527Y8190026D01*
X2278481Y8204657D01*
X2289962Y8220456D01*
X2299868Y8237270D01*
X2308098Y8255000D01*
X2314702Y8274050D01*
X2178050Y8274050D01*
G37*
G36*
X7934401Y8375650D02*
G01*
X8070850Y8375650D01*
X8070850Y8512200D01*
X8056321Y8507476D01*
X8038439Y8499652D01*
X8021370Y8490153D01*
X8005318Y8479078D01*
X7990382Y8466480D01*
X7976717Y8452510D01*
X7964525Y8437270D01*
X7953806Y8420963D01*
X7944713Y8403640D01*
X7937347Y8385556D01*
G37*
G36*
X1927301Y8388350D02*
G01*
X2063750Y8388350D01*
X2063750Y8524900D01*
X2049221Y8520176D01*
X2031339Y8512352D01*
X2014270Y8502853D01*
X1998218Y8491778D01*
X1983282Y8479180D01*
X1969617Y8465210D01*
X1957425Y8449970D01*
X1946706Y8433663D01*
X1937613Y8416340D01*
X1930247Y8398256D01*
G37*
G36*
X2178050Y8388350D02*
G01*
X2314702Y8388350D01*
X2308098Y8407400D01*
X2299868Y8425129D01*
X2289962Y8441944D01*
X2278481Y8457742D01*
X2265527Y8472373D01*
X2251202Y8485682D01*
X2235708Y8497519D01*
X2219096Y8507831D01*
X2201621Y8516467D01*
X2183333Y8523427D01*
X2178050Y8524849D01*
G37*

%LPD*%
D10*
X8128000Y7858480D02*
G01*
X8128000Y8318500D01*
X1651000Y5537200D02*
G01*
X1651000Y5981700D01*
X1651000Y5067300D02*
G01*
X1651000Y5537200D01*
X1651000Y7848600D02*
G01*
X1651000Y7404100D01*
X1651000Y8318500D02*
G01*
X1651000Y7848600D01*
X1651000Y6934200D02*
G01*
X1651000Y7404100D01*
X1651000Y6934200D02*
G01*
X1651000Y6464300D01*
X1651000Y6464300D02*
G01*
X1651000Y5981700D01*
X8534400Y1892300D02*
G01*
X8534400Y2349500D01*
X8534400Y2349500D02*
G01*
X8533866Y2350033D01*
X8533866Y2806700D01*
X8534400Y3238500D02*
G01*
X8534400Y2807233D01*
X8533866Y2806700D01*
X8534400Y3238500D02*
G01*
X8521700Y3251200D01*
X8521700Y4178300D01*
X8521700Y5549900D02*
G01*
X8521700Y5994400D01*
X8521700Y5080000D02*
G01*
X8521700Y5549900D01*
X8521700Y4178300D02*
G01*
X8521700Y4610100D01*
X8521700Y4610100D02*
G01*
X8521700Y5080000D01*
X8521700Y6464300D02*
G01*
X8521700Y5994400D01*
X8521700Y6464300D02*
G01*
X8522843Y6465443D01*
X8522843Y6934200D01*
X8522843Y6934200D02*
G01*
X8522843Y7378700D01*
X8522843Y7378700D02*
G01*
X8522843Y7848600D01*
X8522843Y7848600D02*
G01*
X8523300Y7849057D01*
X8523300Y8318500D01*
X1651000Y5067300D02*
G01*
X1651000Y4622800D01*
X1651000Y4622800D02*
G01*
X1651000Y4152900D01*
X2082800Y2209800D02*
G01*
X2082800Y3035300D01*
X2120900Y4628438D02*
G01*
X2120900Y5091277D01*
X8128000Y4638319D02*
G01*
X8128000Y5098338D01*
X8128000Y5098338D02*
G01*
X8128000Y5558358D01*
X2120900Y5091277D02*
G01*
X2120900Y5554141D01*
X8128000Y5558358D02*
G01*
X8128000Y6018377D01*
X8128000Y6018377D02*
G01*
X8128000Y6478422D01*
X2120900Y5554141D02*
G01*
X2120900Y6016980D01*
X8128000Y6478422D02*
G01*
X8128000Y6938441D01*
X2120900Y6016980D02*
G01*
X2120900Y6479819D01*
X8128000Y6938441D02*
G01*
X8128000Y7398461D01*
X8128000Y7398461D02*
G01*
X8128000Y7858480D01*
X2120900Y6479819D02*
G01*
X2120900Y6942658D01*
X8128000Y4638319D02*
G01*
X8128000Y4178300D01*
X8128000Y4178300D02*
G01*
X8128000Y3225800D01*
X8140700Y3213100D01*
X2120900Y6942658D02*
G01*
X2120900Y7405522D01*
X2120900Y7405522D02*
G01*
X2120900Y7868361D01*
X2120900Y7868361D02*
G01*
X2120900Y8331200D01*
X2120900Y4165600D02*
G01*
X2120900Y4628438D01*
X2120900Y4165600D02*
G01*
X2082800Y4127500D01*
X2082800Y3035300D01*
X2070100Y495300D02*
G01*
X2082800Y482600D01*
X2082800Y-355600D01*
X2082800Y2209800D02*
G01*
X2070100Y2197100D01*
X2070100Y1384300D01*
X2070100Y1384300D02*
G01*
X2070100Y495300D01*
X8140700Y1917700D02*
G01*
X8140700Y2336800D01*
X8140700Y2336800D02*
G01*
X8140700Y2781300D01*
X8140700Y2781300D02*
G01*
X8140700Y3213100D01*
X6946900Y4178300D02*
G01*
X6584137Y4541062D01*
X6584137Y6014262D01*
X6223000Y6375400D01*
X6946900Y4639741D02*
G01*
X6698589Y4888052D01*
X6698589Y6153810D01*
X6223000Y6629400D01*
X6946900Y5101158D02*
G01*
X6768795Y5279262D01*
X6768795Y6324904D01*
X6210300Y6883400D01*
X6946900Y6024041D02*
G01*
X6946900Y6204483D01*
X6407404Y6743979D01*
X6407404Y7194295D01*
X6210300Y7391400D01*
X8064500Y-546100D02*
G01*
X7932775Y-677824D01*
X7766583Y-677824D01*
X7683500Y-594740D01*
X7683500Y-499237D01*
X6368897Y815365D01*
X6368897Y4959502D01*
X6223000Y5105400D01*
X6223000Y5359400D02*
G01*
X6450228Y5132171D01*
X6450228Y814171D01*
X7810500Y-546100D01*
X7556500Y-546100D02*
G01*
X6310807Y699592D01*
X6310807Y3201390D01*
X6094095Y3418103D01*
X6094095Y5488304D01*
X5969000Y5613400D01*
X7721600Y2768600D02*
G01*
X7721600Y3187700D01*
X7721600Y2349500D02*
G01*
X7721600Y2768600D01*
X7721600Y2349500D02*
G01*
X7708900Y2336800D01*
X7708900Y1917700D01*
X6997700Y3187700D02*
G01*
X6997700Y2768600D01*
X6997700Y2768600D02*
G01*
X6985000Y2755900D01*
X6985000Y2349500D01*
X3581400Y2197100D02*
G01*
X3980586Y2596286D01*
X3980586Y4057243D01*
X4157903Y4234561D01*
X4216222Y4234561D01*
X4283532Y4301870D01*
X4283532Y4479467D01*
X4165600Y4597400D01*
X3581400Y3035300D02*
G01*
X3581400Y3759200D01*
X4165600Y4343400D01*
X3352800Y6499580D02*
G01*
X3798824Y6945604D01*
X3798824Y7799323D01*
X4152900Y8153400D01*
X3352800Y6035319D02*
G01*
X3352800Y6236157D01*
X3960825Y6844182D01*
X3960825Y7707325D01*
X4152900Y7899400D01*
X3352800Y4178300D02*
G01*
X3530904Y4356404D01*
X3530904Y6261404D01*
X4152900Y6883400D01*
X3556000Y-355600D02*
G01*
X4065625Y154025D01*
X4065625Y1002461D01*
X4178858Y1115695D01*
X4245356Y1115695D01*
X4324324Y1194663D01*
X4324324Y6508724D01*
X4445000Y6629400D01*
X3568700Y1397000D02*
G01*
X3444493Y1521205D01*
X3444493Y3679977D01*
X4019702Y4255185D01*
X4019702Y5975502D01*
X4165600Y6121400D01*
X3568700Y520700D02*
G01*
X3390900Y698500D01*
X3390900Y3803904D01*
X3765550Y4178807D01*
X3765550Y5975350D01*
X4165600Y6375400D01*
G36*
X8648700Y4064000D02*
G01*
X8661400Y4064000D01*
X8661400Y4000500D01*
X8648700Y4000500D01*
G37*
D11*
G01*
X6985000Y1917700D03*
G01*
X7708900Y1917700D03*
D12*
G01*
X1828800Y-355600D03*
G01*
X2082800Y-355600D03*
D11*
G01*
X6985000Y2349500D03*
G01*
X6946900Y8331200D03*
G01*
X6946900Y7869758D03*
G01*
X6946900Y7408341D03*
G01*
X6946900Y6946900D03*
G01*
X6946900Y6485458D03*
G01*
X6946900Y6024041D03*
G01*
X6946900Y5562600D03*
G01*
X6946900Y5101158D03*
G01*
X6946900Y4639741D03*
G01*
X6946900Y4178300D03*
G01*
X3352800Y8356600D03*
G01*
X3352800Y7892338D03*
G01*
X3352800Y7428077D03*
G01*
X3352800Y6963841D03*
G01*
X3352800Y6499580D03*
G01*
X3352800Y6035319D03*
G01*
X3352800Y5571058D03*
G01*
X3352800Y5106822D03*
G01*
X3352800Y4642561D03*
G01*
X3352800Y4178300D03*
G01*
X7721600Y3187700D03*
G01*
X7721600Y2768600D03*
G01*
X7721600Y2349500D03*
G01*
X6997700Y2768600D03*
G01*
X6997700Y3187700D03*
D12*
G01*
X1816100Y1384300D03*
G01*
X2070100Y1384300D03*
G01*
X1816100Y495300D03*
G01*
X2070100Y495300D03*
D13*
G01*
X4445000Y3581400D03*
G01*
X4445000Y4089400D03*
G01*
X4445000Y4343400D03*
G01*
X4445000Y3835400D03*
G01*
X4445000Y4597400D03*
G01*
X5969000Y3835400D03*
G01*
X5969000Y3581400D03*
G01*
X4445000Y4851400D03*
G01*
X4699000Y4851400D03*
G01*
X4953000Y4851400D03*
G01*
X5207000Y4851400D03*
G01*
X5461000Y4851400D03*
G01*
X5715000Y4851400D03*
G01*
X5969000Y4851400D03*
G01*
X5969000Y4597400D03*
G01*
X5969000Y4343400D03*
G01*
X5969000Y4089400D03*
G01*
X4445000Y5105400D03*
G01*
X4445000Y5613400D03*
G01*
X4445000Y5867400D03*
G01*
X4445000Y6121400D03*
G01*
X4445000Y6375400D03*
G01*
X4445000Y6629400D03*
G01*
X4445000Y6883400D03*
G01*
X4445000Y7137400D03*
G01*
X4445000Y7391400D03*
G01*
X4445000Y7645400D03*
G01*
X4445000Y7899400D03*
G01*
X4445000Y8153400D03*
G01*
X4445000Y8407400D03*
G01*
X4445000Y8661400D03*
G01*
X4445000Y8915400D03*
G01*
X4445000Y9169400D03*
G01*
X4445000Y9423400D03*
G01*
X5969000Y9423400D03*
G01*
X5969000Y9169400D03*
G01*
X5969000Y8915400D03*
G01*
X5969000Y8661400D03*
G01*
X5969000Y8407400D03*
G01*
X5969000Y8153400D03*
G01*
X5969000Y7899400D03*
G01*
X5969000Y7645400D03*
G01*
X5969000Y7391400D03*
G01*
X5969000Y7137400D03*
G01*
X5969000Y6883400D03*
G01*
X5969000Y6629400D03*
G01*
X5969000Y6375400D03*
G01*
X5969000Y6121400D03*
G01*
X5969000Y5867400D03*
G01*
X5969000Y5613400D03*
G01*
X5969000Y5105400D03*
G01*
X5715000Y9169400D03*
D14*
G01*
X5528995Y8126399D03*
G01*
X5728995Y7926400D03*
G01*
X5728995Y8126399D03*
D13*
G01*
X5969000Y5359400D03*
G01*
X4445000Y5359400D03*
G01*
X5080000Y9362389D03*
G01*
X5334000Y9362389D03*
G01*
X4744999Y8788400D03*
G01*
X4744999Y8534400D03*
G01*
X4744999Y8280400D03*
G01*
X4744999Y8026400D03*
G01*
X4744999Y7772400D03*
D14*
G01*
X5328996Y8126399D03*
G01*
X5528995Y7926400D03*
G01*
X5328996Y7926400D03*
D15*
G01*
X2120900Y8331200D03*
G01*
X2882900Y8331200D03*
G01*
X2120900Y7868361D03*
G01*
X2882900Y7868361D03*
G01*
X2120900Y7405522D03*
G01*
X2882900Y7405522D03*
G01*
X7366000Y8318500D03*
G01*
X8128000Y8318500D03*
G01*
X2120900Y6942658D03*
G01*
X2882900Y6942658D03*
G01*
X7366000Y7858480D03*
G01*
X8128000Y7858480D03*
G01*
X7366000Y7398461D03*
G01*
X8128000Y7398461D03*
G01*
X2120900Y6479819D03*
G01*
X2882900Y6479819D03*
G01*
X7366000Y6938441D03*
G01*
X8128000Y6938441D03*
G01*
X2120900Y6016980D03*
G01*
X2882900Y6016980D03*
G01*
X7366000Y6478422D03*
G01*
X8128000Y6478422D03*
G01*
X7366000Y6018377D03*
G01*
X8128000Y6018377D03*
G01*
X2120900Y5554141D03*
G01*
X2882900Y5554141D03*
G01*
X7366000Y5558358D03*
G01*
X8128000Y5558358D03*
G01*
X7366000Y5098338D03*
G01*
X8128000Y5098338D03*
G01*
X2120900Y5091277D03*
G01*
X2882900Y5091277D03*
G01*
X7366000Y4638319D03*
G01*
X8128000Y4638319D03*
G01*
X7366000Y4178300D03*
G01*
X8128000Y4178300D03*
G01*
X2120900Y4628438D03*
G01*
X2882900Y4628438D03*
G01*
X2806700Y520700D03*
G01*
X3568700Y520700D03*
G01*
X2806700Y1397000D03*
G01*
X3568700Y1397000D03*
G01*
X2120900Y4165600D03*
G01*
X2882900Y4165600D03*
G01*
X2819400Y2197100D03*
G01*
X3581400Y2197100D03*
G01*
X2819400Y3035300D03*
G01*
X3581400Y3035300D03*
D16*
G01*
X6794500Y-546100D03*
G01*
X7048500Y-546100D03*
G01*
X7302500Y-546100D03*
G01*
X7556500Y-546100D03*
G01*
X7810500Y-546100D03*
G01*
X8064500Y-546100D03*
G01*
X8318500Y-546100D03*
D15*
G01*
X2794000Y-355600D03*
G01*
X3556000Y-355600D03*
D12*
G01*
X1828800Y3035300D03*
G01*
X2082800Y3035300D03*
G01*
X1828800Y2209800D03*
G01*
X2082800Y2209800D03*
D15*
G01*
X8523300Y8318500D03*
D17*
G01*
X5956300Y2755900D03*
G01*
X5956300Y1244600D03*
G01*
X5956300Y2514600D03*
G01*
X5956300Y2260600D03*
G01*
X5956300Y2006600D03*
G01*
X5956300Y1752600D03*
G01*
X5956300Y1498600D03*
G01*
X4711700Y1231900D03*
G01*
X4203700Y2501900D03*
G01*
X4203700Y2247900D03*
G01*
X4203700Y1993900D03*
G01*
X4203700Y1739900D03*
G01*
X4203700Y1485900D03*
G01*
X4203700Y1231900D03*
G01*
X4457700Y2501900D03*
G01*
X4457700Y2247900D03*
G01*
X4457700Y1993900D03*
G01*
X4457700Y1739900D03*
G01*
X4457700Y1485900D03*
G01*
X4457700Y1231900D03*
G01*
X4711700Y2501900D03*
G01*
X4711700Y2247900D03*
G01*
X4711700Y1993900D03*
G01*
X4711700Y1739900D03*
G01*
X4711700Y1485900D03*
G01*
X4965700Y2514600D03*
G01*
X5727700Y1498600D03*
G01*
X5727700Y1752600D03*
G01*
X5727700Y2006600D03*
G01*
X5727700Y2260600D03*
G01*
X5727700Y2514600D03*
G01*
X5473700Y1244600D03*
G01*
X5473700Y1498600D03*
G01*
X5473700Y1752600D03*
G01*
X5473700Y2006600D03*
G01*
X5473700Y2260600D03*
G01*
X5473700Y2514600D03*
G01*
X5219700Y1244600D03*
G01*
X5219700Y1498600D03*
G01*
X5219700Y1752600D03*
G01*
X5219700Y2006600D03*
G01*
X5219700Y2260600D03*
G01*
X5219700Y2514600D03*
G01*
X5727700Y1244600D03*
G01*
X4965700Y1244600D03*
G01*
X4965700Y1498600D03*
G01*
X4965700Y1752600D03*
G01*
X4965700Y2006600D03*
G01*
X4965700Y2260600D03*
G01*
X4965700Y2755900D03*
G01*
X5727700Y2755900D03*
G01*
X5219700Y2755900D03*
G01*
X5473700Y2755900D03*
G01*
X4457700Y2743200D03*
G01*
X4203700Y2743200D03*
G01*
X4711700Y2743200D03*
G01*
X4165600Y5867400D03*
G01*
X4165600Y6121400D03*
G01*
X4165600Y6375400D03*
G01*
X4152900Y6629400D03*
G01*
X4152900Y6883400D03*
G01*
X4152900Y7137400D03*
G01*
X4152900Y7391400D03*
G01*
X4152900Y7645400D03*
G01*
X4152900Y7899400D03*
G01*
X4152900Y9423400D03*
G01*
X4152900Y9169400D03*
G01*
X4152900Y8915400D03*
G01*
X4152900Y8661400D03*
G01*
X4152900Y8407400D03*
G01*
X4152900Y8153400D03*
G01*
X4165600Y4343400D03*
G01*
X4165600Y4597400D03*
G01*
X4165600Y4851400D03*
G01*
X4165600Y5105400D03*
G01*
X4165600Y5359400D03*
G01*
X4165600Y5613400D03*
G01*
X4165600Y4089400D03*
G01*
X4165600Y3835400D03*
G01*
X4165600Y3581400D03*
G01*
X6223000Y3835400D03*
G01*
X6223000Y4089400D03*
G01*
X6223000Y4343400D03*
G01*
X6223000Y5867400D03*
G01*
X6223000Y5613400D03*
G01*
X6223000Y5359400D03*
G01*
X6223000Y5105400D03*
G01*
X6223000Y4851400D03*
G01*
X6223000Y4597400D03*
G01*
X6210300Y8407400D03*
G01*
X6210300Y8661400D03*
G01*
X6210300Y8915400D03*
G01*
X6210300Y9169400D03*
G01*
X6210300Y9423400D03*
G01*
X6210300Y8153400D03*
G01*
X6210300Y7899400D03*
G01*
X6210300Y7645400D03*
G01*
X6210300Y7391400D03*
G01*
X6210300Y7137400D03*
G01*
X6210300Y6883400D03*
G01*
X6223000Y6629400D03*
G01*
X6223000Y6375400D03*
G01*
X6223000Y6121400D03*
G01*
X6223000Y3594100D03*
D18*
G01*
X8522843Y7848600D03*
G01*
X8522843Y7378700D03*
D19*
G01*
X8521700Y5994400D03*
G01*
X8521700Y6464300D03*
D18*
G01*
X8522843Y6934200D03*
D19*
G01*
X8521700Y4610100D03*
G01*
X8521700Y5080000D03*
G01*
X8521700Y5549900D03*
D18*
G01*
X8533866Y2806700D03*
D20*
G01*
X8534400Y3238500D03*
D19*
G01*
X8521700Y4178300D03*
D17*
G01*
X4978400Y1003300D03*
G01*
X5740400Y1003300D03*
G01*
X5232400Y1003300D03*
G01*
X5486400Y1003300D03*
G01*
X4470400Y990600D03*
G01*
X4216400Y990600D03*
G01*
X4724400Y990600D03*
G01*
X5969000Y1003300D03*
D20*
G01*
X8534400Y2349500D03*
D17*
G01*
X6197600Y1016000D03*
G01*
X6184900Y1511300D03*
G01*
X6184900Y1765300D03*
G01*
X6184900Y2019300D03*
G01*
X6184900Y2273300D03*
G01*
X6184900Y2527300D03*
G01*
X6184900Y1257300D03*
G01*
X6184900Y2768600D03*
G01*
X6197600Y520700D03*
G01*
X6197600Y774700D03*
G01*
X6197600Y279400D03*
G01*
X5969000Y266700D03*
G01*
X4724400Y254000D03*
G01*
X4216400Y254000D03*
G01*
X4470400Y254000D03*
G01*
X5486400Y266700D03*
G01*
X5232400Y266700D03*
G01*
X5740400Y266700D03*
G01*
X4978400Y266700D03*
G01*
X4978400Y762000D03*
G01*
X4978400Y508000D03*
G01*
X5740400Y508000D03*
G01*
X5232400Y762000D03*
G01*
X5232400Y508000D03*
G01*
X5486400Y762000D03*
G01*
X5486400Y508000D03*
G01*
X5740400Y762000D03*
G01*
X4724400Y749300D03*
G01*
X4470400Y495300D03*
G01*
X4470400Y749300D03*
G01*
X4216400Y495300D03*
G01*
X4216400Y749300D03*
G01*
X4724400Y495300D03*
G01*
X5969000Y762000D03*
G01*
X5969000Y508000D03*
D19*
G01*
X1651000Y5981700D03*
G01*
X1651000Y7404100D03*
G01*
X1651000Y6934200D03*
G01*
X1651000Y6464300D03*
G01*
X1651000Y8318500D03*
G01*
X1651000Y7848600D03*
G01*
X1651000Y5067300D03*
G01*
X1651000Y5537200D03*
G01*
X1651000Y4152900D03*
G01*
X1651000Y4622800D03*
D15*
G01*
X8140700Y3213100D03*
G01*
X8140700Y2781300D03*
G01*
X8140700Y2336800D03*
D17*
G01*
X5969000Y12700D03*
G01*
X4724400Y0D03*
G01*
X4216400Y0D03*
G01*
X4470400Y0D03*
G01*
X5486400Y12700D03*
G01*
X5232400Y12700D03*
G01*
X5740400Y12700D03*
G01*
X4978400Y12700D03*
G01*
X4978400Y-228600D03*
G01*
X5740400Y-228600D03*
G01*
X5232400Y-228600D03*
G01*
X5486400Y-228600D03*
G01*
X4470400Y-241300D03*
G01*
X4216400Y-241300D03*
G01*
X4724400Y-241300D03*
G01*
X5969000Y-228600D03*
G01*
X6197600Y-215900D03*
G01*
X6197600Y25400D03*
G01*
X6210300Y-723900D03*
G01*
X4991100Y-736600D03*
G01*
X5753100Y-736600D03*
G01*
X5245100Y-736600D03*
G01*
X5499100Y-736600D03*
G01*
X4483100Y-749300D03*
G01*
X4229100Y-749300D03*
G01*
X4737100Y-749300D03*
G01*
X5981700Y-736600D03*
G01*
X4991100Y-482600D03*
G01*
X5753100Y-482600D03*
G01*
X5245100Y-482600D03*
G01*
X5499100Y-482600D03*
G01*
X4483100Y-495300D03*
G01*
X4229100Y-495300D03*
G01*
X4737100Y-495300D03*
G01*
X5981700Y-482600D03*
G01*
X6210300Y-469900D03*
D15*
G01*
X8140700Y1917700D03*
D20*
G01*
X8534400Y1892300D03*
M02*
