G04 Layer: BottomLayer*
G04 EasyEDA v6.5.48, 2025-03-27 00:42:13*
G04 263b490ed21644e2b7ecd1de9e176e96,d43077cf4c39487bac85c1b17e246763,10*
G04 Gerber Generator version 0.2*
G04 Scale: 100 percent, Rotated: No, Reflected: No *
G04 Dimensions in millimeters *
G04 leading zeros omitted , absolute positions ,4 integer and 5 decimal *
%FSLAX45Y45*%
%MOMM*%

%ADD10C,0.2540*%
%ADD11C,3.0000*%
%ADD12C,1.8796*%
%ADD13C,1.5240*%
%ADD14C,1.4000*%
%ADD15C,2.0320*%
%ADD16C,1.7780*%
%ADD17C,1.6000*%
%ADD18C,2.0230*%
%ADD19C,2.0000*%
%ADD20C,2.0340*%
%ADD21C,0.0182*%

%LPD*%
D10*
X1828800Y2209800D02*
G01*
X1951354Y2087245D01*
X2709545Y2087245D01*
X2819400Y2197100D01*
X6794500Y-546100D02*
G01*
X7959064Y618464D01*
X7959064Y1937893D01*
X8370671Y2349500D01*
X8534400Y2349500D01*
X6210300Y9423400D02*
G01*
X7418400Y9423400D01*
X8523300Y8318500D01*
X6210300Y9423400D02*
G01*
X5969000Y9423400D01*
X5969000Y9423400D02*
G01*
X5542483Y9423400D01*
X5377205Y9258122D01*
X4855235Y9258122D01*
X4828844Y9284512D01*
X2617012Y9284512D01*
X1651000Y8318500D01*
X2806700Y520700D02*
G01*
X2700527Y626871D01*
X1947672Y626871D01*
X1816100Y495300D01*
X2806700Y1397000D02*
G01*
X2689453Y1514246D01*
X1946046Y1514246D01*
X1816100Y1384300D01*
X2794000Y-355600D02*
G01*
X2668600Y-480999D01*
X1954199Y-480999D01*
X1828800Y-355600D01*
X7302500Y-546100D02*
G01*
X8140700Y292100D01*
X8140700Y1917700D01*
X8128000Y8318500D02*
G01*
X7277100Y9169400D01*
X6210300Y9169400D01*
X5969000Y9169400D02*
G01*
X6210300Y9169400D01*
X2120900Y8331200D02*
G01*
X2282139Y8169960D01*
X3422802Y8169960D01*
X3579469Y8326628D01*
X3579469Y8513292D01*
X4089679Y9023502D01*
X5823102Y9023502D01*
X5969000Y9169400D01*
X5969000Y3581400D02*
G01*
X6210300Y3581400D01*
X6223000Y3594100D01*
X5969000Y6121400D02*
G01*
X6223000Y6121400D01*
X7366000Y4178300D02*
G01*
X6946900Y4178300D01*
X5969000Y6375400D02*
G01*
X6223000Y6375400D01*
X7366000Y4638319D02*
G01*
X6948322Y4638319D01*
X6946900Y4639741D01*
X5969000Y6629400D02*
G01*
X6223000Y6629400D01*
X7366000Y5098338D02*
G01*
X6949719Y5098338D01*
X6946900Y5101158D01*
X5969000Y6883400D02*
G01*
X6210300Y6883400D01*
X7366000Y5558358D02*
G01*
X6951141Y5558358D01*
X6946900Y5562600D01*
X5969000Y7137400D02*
G01*
X6210300Y7137400D01*
X5969000Y7137400D02*
G01*
X5844438Y7012838D01*
X5844438Y6349669D01*
X5945708Y6248400D01*
X6261100Y6248400D01*
X6946900Y5562600D01*
X7366000Y6018377D02*
G01*
X6952564Y6018377D01*
X6946900Y6024041D01*
X5969000Y7391400D02*
G01*
X6210300Y7391400D01*
X7366000Y6478422D02*
G01*
X6953935Y6478422D01*
X6946900Y6485458D01*
X5969000Y7645400D02*
G01*
X6210300Y7645400D01*
X6210300Y7645400D02*
G01*
X6210300Y7580452D01*
X6663563Y7127189D01*
X6663563Y6768795D01*
X6946900Y6485458D01*
X5969000Y7899400D02*
G01*
X6210300Y7899400D01*
X6946900Y6946900D02*
G01*
X6356197Y7537602D01*
X6356197Y7753502D01*
X6210300Y7899400D01*
X7366000Y6938441D02*
G01*
X6955358Y6938441D01*
X6946900Y6946900D01*
X7366000Y7398461D02*
G01*
X6956780Y7398461D01*
X6946900Y7408341D01*
X5969000Y8153400D02*
G01*
X6210300Y8153400D01*
X6210300Y8153400D02*
G01*
X6210300Y8144941D01*
X6946900Y7408341D01*
X5969000Y8915400D02*
G01*
X6210300Y8915400D01*
X5969000Y8661400D02*
G01*
X6210300Y8661400D01*
X7366000Y8318500D02*
G01*
X6959600Y8318500D01*
X6946900Y8331200D01*
X6946900Y8331200D02*
G01*
X6540500Y8331200D01*
X6210300Y8661400D01*
X5969000Y8407400D02*
G01*
X6210300Y8407400D01*
X7366000Y7858480D02*
G01*
X6958177Y7858480D01*
X6946900Y7869758D01*
X6946900Y7869758D02*
G01*
X6747941Y7869758D01*
X6210300Y8407400D01*
X5969000Y4597400D02*
G01*
X6223000Y4597400D01*
X5969000Y4851400D02*
G01*
X6223000Y4851400D01*
X5969000Y5105400D02*
G01*
X6223000Y5105400D01*
X5969000Y5359400D02*
G01*
X6223000Y5359400D01*
X5969000Y5613400D02*
G01*
X6223000Y5613400D01*
X5969000Y5867400D02*
G01*
X6223000Y5867400D01*
X5969000Y4343400D02*
G01*
X6223000Y4343400D01*
X5969000Y4089400D02*
G01*
X6223000Y4089400D01*
X5969000Y3835400D02*
G01*
X6223000Y3835400D01*
X4445000Y3835400D02*
G01*
X4165600Y3835400D01*
X4445000Y4089400D02*
G01*
X4165600Y4089400D01*
X4445000Y5613400D02*
G01*
X4165600Y5613400D01*
X7721600Y3187700D02*
G01*
X7452537Y3187700D01*
X6423837Y4216400D01*
X5942202Y4216400D01*
X5588000Y4570603D01*
X5588000Y4873421D01*
X4848021Y5613400D01*
X4445000Y5613400D01*
X4445000Y5359400D02*
G01*
X4165600Y5359400D01*
X6985000Y2349500D02*
G01*
X6985000Y1917700D01*
X6997700Y3187700D02*
G01*
X6997700Y3229482D01*
X6264783Y3962400D01*
X5946927Y3962400D01*
X5080000Y4829327D01*
X5080000Y4880482D01*
X4601083Y5359400D01*
X4445000Y5359400D01*
X4445000Y5105400D02*
G01*
X4165600Y5105400D01*
X4445000Y4851400D02*
G01*
X4165600Y4851400D01*
X4445000Y4597400D02*
G01*
X4165600Y4597400D01*
X4445000Y4343400D02*
G01*
X4165600Y4343400D01*
X2882900Y6479819D02*
G01*
X3333038Y6479819D01*
X3352800Y6499580D01*
X4445000Y8153400D02*
G01*
X4152900Y8153400D01*
X4445000Y8407400D02*
G01*
X4152900Y8407400D01*
X2882900Y6942658D02*
G01*
X3331616Y6942658D01*
X3352800Y6963841D01*
X3352800Y6963841D02*
G01*
X4007002Y7618044D01*
X4007002Y8261502D01*
X4152900Y8407400D01*
X4445000Y8661400D02*
G01*
X4152900Y8661400D01*
X2882900Y7405522D02*
G01*
X3330244Y7405522D01*
X3352800Y7428077D01*
X3352800Y7428077D02*
G01*
X3936593Y8011871D01*
X3936593Y8445093D01*
X4152900Y8661400D01*
X4445000Y8915400D02*
G01*
X4152900Y8915400D01*
X2882900Y7868361D02*
G01*
X3328822Y7868361D01*
X3352800Y7892338D01*
X3352800Y7892338D02*
G01*
X3697554Y8237093D01*
X3697554Y8460054D01*
X4152900Y8915400D01*
X4445000Y9169400D02*
G01*
X4152900Y9169400D01*
X2882900Y8331200D02*
G01*
X3327400Y8331200D01*
X3352800Y8356600D01*
X3352800Y8356600D02*
G01*
X3352800Y8369300D01*
X4152900Y9169400D01*
X4445000Y9423400D02*
G01*
X4152900Y9423400D01*
X2882900Y6016980D02*
G01*
X3334461Y6016980D01*
X3352800Y6035319D01*
X4445000Y7899400D02*
G01*
X4152900Y7899400D01*
X4445000Y7645400D02*
G01*
X4152900Y7645400D01*
X2882900Y5554141D02*
G01*
X3335883Y5554141D01*
X3352800Y5571058D01*
X3352800Y5571058D02*
G01*
X3605961Y5824220D01*
X3605961Y7098461D01*
X4152900Y7645400D01*
X4445000Y7391400D02*
G01*
X4152900Y7391400D01*
X2882900Y5091277D02*
G01*
X3337255Y5091277D01*
X3352800Y5106822D01*
X3352800Y5106822D02*
G01*
X3763162Y5517184D01*
X3763162Y7001662D01*
X4152900Y7391400D01*
X4445000Y7137400D02*
G01*
X4152900Y7137400D01*
X2882900Y4628438D02*
G01*
X3338677Y4628438D01*
X3352800Y4642561D01*
X3352800Y4642561D02*
G01*
X4007002Y5296763D01*
X4007002Y6991502D01*
X4152900Y7137400D01*
X2882900Y4165600D02*
G01*
X3340100Y4165600D01*
X3352800Y4178300D01*
X4445000Y6883400D02*
G01*
X4152900Y6883400D01*
X4445000Y6629400D02*
G01*
X4152900Y6629400D01*
X4445000Y6375400D02*
G01*
X4165600Y6375400D01*
X4445000Y6121400D02*
G01*
X4165600Y6121400D01*
X4445000Y5867400D02*
G01*
X4165600Y5867400D01*
X1828800Y3035300D02*
G01*
X1960702Y2903397D01*
X2687497Y2903397D01*
X2819400Y3035300D01*
D11*
G01*
X6985000Y1917700D03*
G01*
X7708900Y1917700D03*
D12*
G01*
X1828800Y-355600D03*
G01*
X2082800Y-355600D03*
D11*
G01*
X6985000Y2349500D03*
G01*
X6946900Y8331200D03*
G01*
X6946900Y7869758D03*
G01*
X6946900Y7408341D03*
G01*
X6946900Y6946900D03*
G01*
X6946900Y6485458D03*
G01*
X6946900Y6024041D03*
G01*
X6946900Y5562600D03*
G01*
X6946900Y5101158D03*
G01*
X6946900Y4639741D03*
G01*
X6946900Y4178300D03*
G01*
X3352800Y8356600D03*
G01*
X3352800Y7892338D03*
G01*
X3352800Y7428077D03*
G01*
X3352800Y6963841D03*
G01*
X3352800Y6499580D03*
G01*
X3352800Y6035319D03*
G01*
X3352800Y5571058D03*
G01*
X3352800Y5106822D03*
G01*
X3352800Y4642561D03*
G01*
X3352800Y4178300D03*
G01*
X7721600Y3187700D03*
G01*
X7721600Y2768600D03*
G01*
X7721600Y2349500D03*
G01*
X6997700Y2768600D03*
G01*
X6997700Y3187700D03*
D12*
G01*
X1816100Y1384300D03*
G01*
X2070100Y1384300D03*
G01*
X1816100Y495300D03*
G01*
X2070100Y495300D03*
D13*
G01*
X4445000Y3581400D03*
G01*
X4445000Y4089400D03*
G01*
X4445000Y4343400D03*
G01*
X4445000Y3835400D03*
G01*
X4445000Y4597400D03*
G01*
X5969000Y3835400D03*
G01*
X5969000Y3581400D03*
G01*
X4445000Y4851400D03*
G01*
X4699000Y4851400D03*
G01*
X4953000Y4851400D03*
G01*
X5207000Y4851400D03*
G01*
X5461000Y4851400D03*
G01*
X5715000Y4851400D03*
G01*
X5969000Y4851400D03*
G01*
X5969000Y4597400D03*
G01*
X5969000Y4343400D03*
G01*
X5969000Y4089400D03*
G01*
X4445000Y5105400D03*
G01*
X4445000Y5613400D03*
G01*
X4445000Y5867400D03*
G01*
X4445000Y6121400D03*
G01*
X4445000Y6375400D03*
G01*
X4445000Y6629400D03*
G01*
X4445000Y6883400D03*
G01*
X4445000Y7137400D03*
G01*
X4445000Y7391400D03*
G01*
X4445000Y7645400D03*
G01*
X4445000Y7899400D03*
G01*
X4445000Y8153400D03*
G01*
X4445000Y8407400D03*
G01*
X4445000Y8661400D03*
G01*
X4445000Y8915400D03*
G01*
X4445000Y9169400D03*
G01*
X4445000Y9423400D03*
G01*
X5969000Y9423400D03*
G01*
X5969000Y9169400D03*
G01*
X5969000Y8915400D03*
G01*
X5969000Y8661400D03*
G01*
X5969000Y8407400D03*
G01*
X5969000Y8153400D03*
G01*
X5969000Y7899400D03*
G01*
X5969000Y7645400D03*
G01*
X5969000Y7391400D03*
G01*
X5969000Y7137400D03*
G01*
X5969000Y6883400D03*
G01*
X5969000Y6629400D03*
G01*
X5969000Y6375400D03*
G01*
X5969000Y6121400D03*
G01*
X5969000Y5867400D03*
G01*
X5969000Y5613400D03*
G01*
X5969000Y5105400D03*
G01*
X5715000Y9169400D03*
D14*
G01*
X5528995Y8126399D03*
G01*
X5728995Y7926400D03*
G01*
X5728995Y8126399D03*
D13*
G01*
X5969000Y5359400D03*
G01*
X4445000Y5359400D03*
G01*
X5080000Y9362389D03*
G01*
X5334000Y9362389D03*
G01*
X4744999Y8788400D03*
G01*
X4744999Y8534400D03*
G01*
X4744999Y8280400D03*
G01*
X4744999Y8026400D03*
G01*
X4744999Y7772400D03*
D14*
G01*
X5328996Y8126399D03*
G01*
X5528995Y7926400D03*
G01*
X5328996Y7926400D03*
D15*
G01*
X2120900Y8331200D03*
G01*
X2882900Y8331200D03*
G01*
X2120900Y7868361D03*
G01*
X2882900Y7868361D03*
G01*
X2120900Y7405522D03*
G01*
X2882900Y7405522D03*
G01*
X7366000Y8318500D03*
G01*
X8128000Y8318500D03*
G01*
X2120900Y6942658D03*
G01*
X2882900Y6942658D03*
G01*
X7366000Y7858480D03*
G01*
X8128000Y7858480D03*
G01*
X7366000Y7398461D03*
G01*
X8128000Y7398461D03*
G01*
X2120900Y6479819D03*
G01*
X2882900Y6479819D03*
G01*
X7366000Y6938441D03*
G01*
X8128000Y6938441D03*
G01*
X2120900Y6016980D03*
G01*
X2882900Y6016980D03*
G01*
X7366000Y6478422D03*
G01*
X8128000Y6478422D03*
G01*
X7366000Y6018377D03*
G01*
X8128000Y6018377D03*
G01*
X2120900Y5554141D03*
G01*
X2882900Y5554141D03*
G01*
X7366000Y5558358D03*
G01*
X8128000Y5558358D03*
G01*
X7366000Y5098338D03*
G01*
X8128000Y5098338D03*
G01*
X2120900Y5091277D03*
G01*
X2882900Y5091277D03*
G01*
X7366000Y4638319D03*
G01*
X8128000Y4638319D03*
G01*
X7366000Y4178300D03*
G01*
X8128000Y4178300D03*
G01*
X2120900Y4628438D03*
G01*
X2882900Y4628438D03*
G01*
X2806700Y520700D03*
G01*
X3568700Y520700D03*
G01*
X2806700Y1397000D03*
G01*
X3568700Y1397000D03*
G01*
X2120900Y4165600D03*
G01*
X2882900Y4165600D03*
G01*
X2819400Y2197100D03*
G01*
X3581400Y2197100D03*
G01*
X2819400Y3035300D03*
G01*
X3581400Y3035300D03*
D16*
G01*
X6794500Y-546100D03*
G01*
X7048500Y-546100D03*
G01*
X7302500Y-546100D03*
G01*
X7556500Y-546100D03*
G01*
X7810500Y-546100D03*
G01*
X8064500Y-546100D03*
G01*
X8318500Y-546100D03*
D15*
G01*
X2794000Y-355600D03*
G01*
X3556000Y-355600D03*
D12*
G01*
X1828800Y3035300D03*
G01*
X2082800Y3035300D03*
G01*
X1828800Y2209800D03*
G01*
X2082800Y2209800D03*
D15*
G01*
X8523300Y8318500D03*
D17*
G01*
X5956300Y2755900D03*
G01*
X5956300Y1244600D03*
G01*
X5956300Y2514600D03*
G01*
X5956300Y2260600D03*
G01*
X5956300Y2006600D03*
G01*
X5956300Y1752600D03*
G01*
X5956300Y1498600D03*
G01*
X4711700Y1231900D03*
G01*
X4203700Y2501900D03*
G01*
X4203700Y2247900D03*
G01*
X4203700Y1993900D03*
G01*
X4203700Y1739900D03*
G01*
X4203700Y1485900D03*
G01*
X4203700Y1231900D03*
G01*
X4457700Y2501900D03*
G01*
X4457700Y2247900D03*
G01*
X4457700Y1993900D03*
G01*
X4457700Y1739900D03*
G01*
X4457700Y1485900D03*
G01*
X4457700Y1231900D03*
G01*
X4711700Y2501900D03*
G01*
X4711700Y2247900D03*
G01*
X4711700Y1993900D03*
G01*
X4711700Y1739900D03*
G01*
X4711700Y1485900D03*
G01*
X4965700Y2514600D03*
G01*
X5727700Y1498600D03*
G01*
X5727700Y1752600D03*
G01*
X5727700Y2006600D03*
G01*
X5727700Y2260600D03*
G01*
X5727700Y2514600D03*
G01*
X5473700Y1244600D03*
G01*
X5473700Y1498600D03*
G01*
X5473700Y1752600D03*
G01*
X5473700Y2006600D03*
G01*
X5473700Y2260600D03*
G01*
X5473700Y2514600D03*
G01*
X5219700Y1244600D03*
G01*
X5219700Y1498600D03*
G01*
X5219700Y1752600D03*
G01*
X5219700Y2006600D03*
G01*
X5219700Y2260600D03*
G01*
X5219700Y2514600D03*
G01*
X5727700Y1244600D03*
G01*
X4965700Y1244600D03*
G01*
X4965700Y1498600D03*
G01*
X4965700Y1752600D03*
G01*
X4965700Y2006600D03*
G01*
X4965700Y2260600D03*
G01*
X4965700Y2755900D03*
G01*
X5727700Y2755900D03*
G01*
X5219700Y2755900D03*
G01*
X5473700Y2755900D03*
G01*
X4457700Y2743200D03*
G01*
X4203700Y2743200D03*
G01*
X4711700Y2743200D03*
G01*
X4165600Y5867400D03*
G01*
X4165600Y6121400D03*
G01*
X4165600Y6375400D03*
G01*
X4152900Y6629400D03*
G01*
X4152900Y6883400D03*
G01*
X4152900Y7137400D03*
G01*
X4152900Y7391400D03*
G01*
X4152900Y7645400D03*
G01*
X4152900Y7899400D03*
G01*
X4152900Y9423400D03*
G01*
X4152900Y9169400D03*
G01*
X4152900Y8915400D03*
G01*
X4152900Y8661400D03*
G01*
X4152900Y8407400D03*
G01*
X4152900Y8153400D03*
G01*
X4165600Y4343400D03*
G01*
X4165600Y4597400D03*
G01*
X4165600Y4851400D03*
G01*
X4165600Y5105400D03*
G01*
X4165600Y5359400D03*
G01*
X4165600Y5613400D03*
G01*
X4165600Y4089400D03*
G01*
X4165600Y3835400D03*
G01*
X4165600Y3581400D03*
G01*
X6223000Y3835400D03*
G01*
X6223000Y4089400D03*
G01*
X6223000Y4343400D03*
G01*
X6223000Y5867400D03*
G01*
X6223000Y5613400D03*
G01*
X6223000Y5359400D03*
G01*
X6223000Y5105400D03*
G01*
X6223000Y4851400D03*
G01*
X6223000Y4597400D03*
G01*
X6210300Y8407400D03*
G01*
X6210300Y8661400D03*
G01*
X6210300Y8915400D03*
G01*
X6210300Y9169400D03*
G01*
X6210300Y9423400D03*
G01*
X6210300Y8153400D03*
G01*
X6210300Y7899400D03*
G01*
X6210300Y7645400D03*
G01*
X6210300Y7391400D03*
G01*
X6210300Y7137400D03*
G01*
X6210300Y6883400D03*
G01*
X6223000Y6629400D03*
G01*
X6223000Y6375400D03*
G01*
X6223000Y6121400D03*
G01*
X6223000Y3594100D03*
D18*
G01*
X8522843Y7848600D03*
G01*
X8522843Y7378700D03*
D19*
G01*
X8521700Y5994400D03*
G01*
X8521700Y6464300D03*
D18*
G01*
X8522843Y6934200D03*
D19*
G01*
X8521700Y4610100D03*
G01*
X8521700Y5080000D03*
G01*
X8521700Y5549900D03*
D18*
G01*
X8533866Y2806700D03*
D20*
G01*
X8534400Y3238500D03*
D19*
G01*
X8521700Y4178300D03*
D17*
G01*
X4978400Y1003300D03*
G01*
X5740400Y1003300D03*
G01*
X5232400Y1003300D03*
G01*
X5486400Y1003300D03*
G01*
X4470400Y990600D03*
G01*
X4216400Y990600D03*
G01*
X4724400Y990600D03*
G01*
X5969000Y1003300D03*
D20*
G01*
X8534400Y2349500D03*
D17*
G01*
X6197600Y1016000D03*
G01*
X6184900Y1511300D03*
G01*
X6184900Y1765300D03*
G01*
X6184900Y2019300D03*
G01*
X6184900Y2273300D03*
G01*
X6184900Y2527300D03*
G01*
X6184900Y1257300D03*
G01*
X6184900Y2768600D03*
G01*
X6197600Y520700D03*
G01*
X6197600Y774700D03*
G01*
X6197600Y279400D03*
G01*
X5969000Y266700D03*
G01*
X4724400Y254000D03*
G01*
X4216400Y254000D03*
G01*
X4470400Y254000D03*
G01*
X5486400Y266700D03*
G01*
X5232400Y266700D03*
G01*
X5740400Y266700D03*
G01*
X4978400Y266700D03*
G01*
X4978400Y762000D03*
G01*
X4978400Y508000D03*
G01*
X5740400Y508000D03*
G01*
X5232400Y762000D03*
G01*
X5232400Y508000D03*
G01*
X5486400Y762000D03*
G01*
X5486400Y508000D03*
G01*
X5740400Y762000D03*
G01*
X4724400Y749300D03*
G01*
X4470400Y495300D03*
G01*
X4470400Y749300D03*
G01*
X4216400Y495300D03*
G01*
X4216400Y749300D03*
G01*
X4724400Y495300D03*
G01*
X5969000Y762000D03*
G01*
X5969000Y508000D03*
D19*
G01*
X1651000Y5981700D03*
G01*
X1651000Y7404100D03*
G01*
X1651000Y6934200D03*
G01*
X1651000Y6464300D03*
G01*
X1651000Y8318500D03*
G01*
X1651000Y7848600D03*
G01*
X1651000Y5067300D03*
G01*
X1651000Y5537200D03*
G01*
X1651000Y4152900D03*
G01*
X1651000Y4622800D03*
D15*
G01*
X8140700Y3213100D03*
G01*
X8140700Y2781300D03*
G01*
X8140700Y2336800D03*
D17*
G01*
X5969000Y12700D03*
G01*
X4724400Y0D03*
G01*
X4216400Y0D03*
G01*
X4470400Y0D03*
G01*
X5486400Y12700D03*
G01*
X5232400Y12700D03*
G01*
X5740400Y12700D03*
G01*
X4978400Y12700D03*
G01*
X4978400Y-228600D03*
G01*
X5740400Y-228600D03*
G01*
X5232400Y-228600D03*
G01*
X5486400Y-228600D03*
G01*
X4470400Y-241300D03*
G01*
X4216400Y-241300D03*
G01*
X4724400Y-241300D03*
G01*
X5969000Y-228600D03*
G01*
X6197600Y-215900D03*
G01*
X6197600Y25400D03*
G01*
X6210300Y-723900D03*
G01*
X4991100Y-736600D03*
G01*
X5753100Y-736600D03*
G01*
X5245100Y-736600D03*
G01*
X5499100Y-736600D03*
G01*
X4483100Y-749300D03*
G01*
X4229100Y-749300D03*
G01*
X4737100Y-749300D03*
G01*
X5981700Y-736600D03*
G01*
X4991100Y-482600D03*
G01*
X5753100Y-482600D03*
G01*
X5245100Y-482600D03*
G01*
X5499100Y-482600D03*
G01*
X4483100Y-495300D03*
G01*
X4229100Y-495300D03*
G01*
X4737100Y-495300D03*
G01*
X5981700Y-482600D03*
G01*
X6210300Y-469900D03*
D15*
G01*
X8140700Y1917700D03*
D20*
G01*
X8534400Y1892300D03*
M02*
